<svg width="500" height="300" viewBox="0 0 500 300" fill="none" xmlns="http://www.w3.org/2000/svg">
<g id="AequalsNotB">
<rect width="500" height="300" fill="white"/>
<ellipse id="start" cx="93.5" cy="193.639" rx="34.5" ry="14.5" fill="#D9D9D9"/>
<path id="START" d="M79.8295 190.593C79.7784 190.162 79.571 189.826 79.2074 189.588C78.8438 189.349 78.3977 189.23 77.8693 189.23C77.483 189.23 77.1449 189.292 76.8551 189.417C76.5682 189.542 76.3438 189.714 76.1818 189.933C76.0227 190.152 75.9432 190.4 75.9432 190.679C75.9432 190.912 75.9986 191.112 76.1094 191.279C76.223 191.444 76.3679 191.582 76.544 191.693C76.7202 191.801 76.9048 191.89 77.098 191.961C77.2912 192.029 77.4688 192.085 77.6307 192.127L78.517 192.366C78.7443 192.426 78.9972 192.508 79.2756 192.613C79.5568 192.718 79.8253 192.862 80.081 193.044C80.3395 193.223 80.5526 193.453 80.7202 193.734C80.8878 194.015 80.9716 194.36 80.9716 194.769C80.9716 195.241 80.848 195.667 80.6009 196.048C80.3565 196.429 79.9986 196.731 79.527 196.956C79.0582 197.18 78.4886 197.292 77.8182 197.292C77.1932 197.292 76.652 197.191 76.1946 196.99C75.7401 196.788 75.3821 196.507 75.1207 196.146C74.8622 195.785 74.7159 195.366 74.6818 194.889H75.7727C75.8011 195.218 75.9119 195.491 76.1051 195.707C76.3011 195.92 76.5483 196.079 76.8466 196.184C77.1477 196.287 77.4716 196.338 77.8182 196.338C78.2216 196.338 78.5838 196.272 78.9048 196.142C79.2259 196.008 79.4801 195.823 79.6676 195.588C79.8551 195.349 79.9489 195.071 79.9489 194.752C79.9489 194.463 79.8679 194.227 79.706 194.045C79.544 193.863 79.331 193.715 79.0668 193.602C78.8026 193.488 78.517 193.389 78.2102 193.304L77.1364 192.997C76.4545 192.801 75.9148 192.521 75.517 192.157C75.1193 191.794 74.9205 191.318 74.9205 190.73C74.9205 190.241 75.0526 189.815 75.3168 189.451C75.5838 189.085 75.9418 188.801 76.3906 188.599C76.8423 188.394 77.3466 188.292 77.9034 188.292C78.4659 188.292 78.9659 188.393 79.4034 188.595C79.8409 188.794 80.1875 189.066 80.4432 189.413C80.7017 189.76 80.8381 190.153 80.8523 190.593H79.8295ZM82.2319 189.349V188.412H88.7773V189.349H86.033V197.139H84.9762V189.349H82.2319ZM89.7468 197.139H88.6388L91.8434 188.412H92.9343L96.1388 197.139H95.0309L92.4229 189.792H92.3548L89.7468 197.139ZM90.1559 193.73H94.6218V194.667H90.1559V193.73ZM97.4982 197.139V188.412H100.447C101.129 188.412 101.689 188.528 102.126 188.761C102.564 188.991 102.887 189.308 103.098 189.711C103.308 190.115 103.413 190.573 103.413 191.088C103.413 191.602 103.308 192.058 103.098 192.456C102.887 192.853 102.565 193.166 102.13 193.393C101.696 193.617 101.14 193.73 100.464 193.73H98.0778V192.775H100.43C100.896 192.775 101.271 192.707 101.555 192.571C101.842 192.434 102.049 192.241 102.177 191.991C102.308 191.738 102.373 191.437 102.373 191.088C102.373 190.738 102.308 190.433 102.177 190.171C102.047 189.91 101.838 189.708 101.551 189.566C101.264 189.421 100.885 189.349 100.413 189.349H98.555V197.139H97.4982ZM101.606 193.218L103.754 197.139H102.527L100.413 193.218H101.606ZM104.697 189.349V188.412H111.242V189.349H108.498V197.139H107.441V189.349H104.697Z" fill="black"/>
<path id="Arrow 4" d="M186.354 193.492C186.549 193.297 186.549 192.981 186.354 192.785L183.172 189.603C182.976 189.408 182.66 189.408 182.464 189.603C182.269 189.799 182.269 190.115 182.464 190.31L185.293 193.139L182.464 195.967C182.269 196.162 182.269 196.479 182.464 196.674C182.66 196.87 182.976 196.87 183.172 196.674L186.354 193.492ZM133 193.639H186V192.639H133V193.639Z" fill="black"/>
<path id="Arrow 13" d="M85.6652 179.51C85.8703 179.695 86.1864 179.679 86.3713 179.474L89.3847 176.131C89.5696 175.926 89.5532 175.61 89.3481 175.425C89.143 175.24 88.8269 175.257 88.642 175.462L85.9635 178.433L82.9927 175.754C82.7876 175.569 82.4714 175.586 82.2865 175.791C82.1016 175.996 82.1179 176.312 82.323 176.497L85.6652 179.51ZM302.874 131.803C259.336 113.011 223.638 99.4891 194.674 91.543C165.72 83.5999 143.436 81.2114 126.75 84.7463C110.018 88.2911 98.9439 97.7879 92.4463 113.487C85.9661 129.144 84.0412 150.957 85.5007 179.165L86.4993 179.113C85.0419 150.944 86.9776 129.315 93.3703 113.869C99.7457 98.4656 110.557 89.199 126.958 85.7246C143.405 82.2402 165.5 84.5766 194.409 92.5074C223.307 100.435 258.954 113.936 302.478 132.721L302.874 131.803Z" fill="#FF0000" fill-opacity="0.87"/>
<path id="Arrow 12" d="M377.354 146.492C377.549 146.297 377.549 145.981 377.354 145.785L374.172 142.603C373.976 142.408 373.66 142.408 373.464 142.603C373.269 142.799 373.269 143.115 373.464 143.31L376.293 146.139L373.464 148.967C373.269 149.162 373.269 149.479 373.464 149.674C373.66 149.87 373.976 149.87 374.172 149.674L377.354 146.492ZM324 146.639H377V145.639H324V146.639Z" fill="black"/>
<path id="Arrow 6" d="M280.497 155.194C280.527 154.92 280.33 154.672 280.055 154.642L275.583 154.145C275.308 154.114 275.061 154.312 275.031 154.587C275 154.861 275.198 155.108 275.472 155.139L279.448 155.581L279.006 159.556C278.976 159.831 279.173 160.078 279.448 160.108C279.722 160.139 279.97 159.941 280 159.666L280.497 155.194ZM235.312 191.529L280.312 155.529L279.688 154.748L234.688 190.748L235.312 191.529Z" fill="black"/>
<path id="Arrow 8" d="M209.669 174.514C209.876 174.696 210.192 174.677 210.375 174.47L213.354 171.097C213.537 170.89 213.517 170.574 213.31 170.391C213.103 170.209 212.787 170.228 212.604 170.435L209.956 173.433L206.958 170.785C206.751 170.602 206.435 170.622 206.253 170.829C206.07 171.036 206.089 171.352 206.296 171.534L209.669 174.514ZM302.297 128.736C283.319 114.76 267.684 104.663 254.996 98.867C242.331 93.0816 232.476 91.5222 225.144 94.8367C217.791 98.1607 213.176 106.29 210.745 119.344C208.311 132.416 208.039 150.568 209.501 174.17L210.499 174.108C209.038 150.525 209.318 132.473 211.728 119.528C214.142 106.565 218.664 98.8635 225.556 95.7479C232.469 92.6227 241.967 94.0148 254.581 99.7766C267.171 105.528 282.738 115.574 301.703 129.541L302.297 128.736Z" fill="#FF0000"/>
<path id="Arrow 7" d="M280.116 218.625C280.385 218.561 280.551 218.291 280.486 218.022L279.438 213.646C279.374 213.378 279.104 213.212 278.836 213.276C278.567 213.341 278.402 213.61 278.466 213.879L279.397 217.769L275.507 218.7C275.239 218.765 275.073 219.035 275.137 219.303C275.202 219.572 275.472 219.737 275.74 219.673L280.116 218.625ZM235.738 191.565L279.738 218.565L280.262 217.713L236.262 190.713L235.738 191.565Z" fill="black"/>
<path id="Arrow 10" d="M376.354 225.492C376.549 225.297 376.549 224.981 376.354 224.785L373.172 221.603C372.976 221.408 372.66 221.408 372.464 221.603C372.269 221.799 372.269 222.115 372.464 222.31L375.293 225.139L372.464 227.967C372.269 228.162 372.269 228.479 372.464 228.674C372.66 228.87 372.976 228.87 373.172 228.674L376.354 225.492ZM326 225.639H376V224.639H326V225.639Z" fill="black"/>
<path id="B&#226;&#128;&#153;" d="M154.888 185.139V174.957H158.448C159.157 174.957 159.742 175.08 160.203 175.325C160.664 175.567 161.007 175.893 161.232 176.304C161.457 176.712 161.57 177.164 161.57 177.662C161.57 178.099 161.492 178.46 161.336 178.745C161.184 179.03 160.982 179.256 160.73 179.421C160.481 179.587 160.211 179.71 159.919 179.789V179.889C160.231 179.909 160.544 180.018 160.859 180.217C161.174 180.416 161.437 180.701 161.65 181.072C161.862 181.443 161.968 181.897 161.968 182.434C161.968 182.945 161.852 183.404 161.62 183.811C161.388 184.219 161.022 184.542 160.521 184.781C160.021 185.019 159.369 185.139 158.567 185.139H154.888ZM156.121 184.045H158.567C159.373 184.045 159.944 183.889 160.282 183.578C160.624 183.263 160.794 182.882 160.794 182.434C160.794 182.09 160.707 181.771 160.531 181.48C160.355 181.185 160.105 180.949 159.78 180.774C159.455 180.595 159.071 180.505 158.627 180.505H156.121V184.045ZM156.121 179.431H158.408C158.779 179.431 159.114 179.358 159.412 179.213C159.714 179.067 159.953 178.861 160.128 178.596C160.307 178.331 160.397 178.019 160.397 177.662C160.397 177.214 160.241 176.835 159.929 176.523C159.618 176.208 159.124 176.051 158.448 176.051H156.121V179.431ZM164.869 174.957V175.852C164.869 176.124 164.819 176.414 164.72 176.722C164.623 177.027 164.481 177.323 164.292 177.612C164.106 177.897 163.881 178.145 163.616 178.358L162.979 177.84C163.188 177.542 163.369 177.232 163.521 176.911C163.677 176.586 163.755 176.24 163.755 175.872V174.957H164.869Z" fill="black"/>
<path id="B&#226;&#128;&#153;_2" d="M250.888 222.139V211.957H254.448C255.157 211.957 255.742 212.08 256.203 212.325C256.664 212.567 257.007 212.893 257.232 213.304C257.457 213.712 257.57 214.164 257.57 214.662C257.57 215.099 257.492 215.46 257.336 215.745C257.184 216.03 256.982 216.256 256.73 216.421C256.481 216.587 256.211 216.71 255.919 216.789V216.889C256.231 216.909 256.544 217.018 256.859 217.217C257.174 217.416 257.437 217.701 257.65 218.072C257.862 218.443 257.968 218.897 257.968 219.434C257.968 219.945 257.852 220.404 257.62 220.811C257.388 221.219 257.022 221.542 256.521 221.781C256.021 222.019 255.369 222.139 254.567 222.139H250.888ZM252.121 221.045H254.567C255.373 221.045 255.944 220.889 256.282 220.578C256.624 220.263 256.794 219.882 256.794 219.434C256.794 219.09 256.707 218.771 256.531 218.48C256.355 218.185 256.105 217.949 255.78 217.774C255.455 217.595 255.071 217.505 254.627 217.505H252.121V221.045ZM252.121 216.431H254.408C254.779 216.431 255.114 216.358 255.412 216.213C255.714 216.067 255.953 215.861 256.128 215.596C256.307 215.331 256.397 215.019 256.397 214.662C256.397 214.214 256.241 213.835 255.929 213.523C255.618 213.208 255.124 213.051 254.448 213.051H252.121V216.431ZM260.869 211.957V212.852C260.869 213.124 260.819 213.414 260.72 213.722C260.623 214.027 260.481 214.323 260.292 214.612C260.106 214.897 259.881 215.145 259.616 215.358L258.979 214.84C259.188 214.542 259.369 214.232 259.521 213.911C259.677 213.586 259.755 213.24 259.755 212.872V211.957H260.869Z" fill="black"/>
<path id="B&#226;&#128;&#153;_3" d="M337.888 281V270.818H341.448C342.157 270.818 342.742 270.941 343.203 271.186C343.664 271.428 344.007 271.754 344.232 272.165C344.457 272.573 344.57 273.026 344.57 273.523C344.57 273.96 344.492 274.321 344.336 274.607C344.184 274.892 343.982 275.117 343.73 275.283C343.481 275.448 343.211 275.571 342.919 275.651V275.75C343.231 275.77 343.544 275.879 343.859 276.078C344.174 276.277 344.437 276.562 344.65 276.933C344.862 277.304 344.968 277.759 344.968 278.295C344.968 278.806 344.852 279.265 344.62 279.673C344.388 280.08 344.022 280.403 343.521 280.642C343.021 280.881 342.369 281 341.567 281H337.888ZM339.121 279.906H341.567C342.373 279.906 342.944 279.75 343.282 279.439C343.624 279.124 343.794 278.743 343.794 278.295C343.794 277.951 343.707 277.633 343.531 277.341C343.355 277.046 343.105 276.811 342.78 276.635C342.455 276.456 342.071 276.366 341.627 276.366H339.121V279.906ZM339.121 275.293H341.408C341.779 275.293 342.114 275.22 342.412 275.074C342.714 274.928 342.953 274.723 343.128 274.457C343.307 274.192 343.397 273.881 343.397 273.523C343.397 273.075 343.241 272.696 342.929 272.384C342.618 272.069 342.124 271.912 341.448 271.912H339.121V275.293ZM347.869 270.818V271.713C347.869 271.985 347.819 272.275 347.72 272.583C347.623 272.888 347.481 273.185 347.292 273.473C347.106 273.758 346.881 274.007 346.616 274.219L345.979 273.702C346.188 273.403 346.369 273.094 346.521 272.772C346.677 272.447 346.755 272.101 346.755 271.733V270.818H347.869Z" fill="black"/>
<path id="Arrow 5" d="M93.619 179.463C93.7978 179.673 94.1134 179.699 94.3238 179.52L97.7525 176.605C97.9629 176.427 97.9885 176.111 97.8096 175.901C97.6308 175.69 97.3152 175.665 97.1048 175.843L94.0571 178.434L91.4665 175.386C91.2876 175.176 90.9721 175.15 90.7617 175.329C90.5513 175.508 90.5257 175.824 90.7045 176.034L93.619 179.463ZM132.431 191.891C142.318 174.997 145.154 163.325 143.638 155.906C142.875 152.172 141.008 149.513 138.395 147.843C135.794 146.181 132.499 145.527 128.913 145.702C121.748 146.052 113.286 149.719 106.432 155.611C99.573 161.507 94.265 169.682 93.5016 179.098L94.4983 179.179C95.2348 170.095 100.364 162.145 107.084 156.37C113.807 150.59 122.064 147.038 128.962 146.701C132.407 146.532 135.479 147.167 137.857 148.686C140.222 150.198 141.945 152.614 142.658 156.106C144.096 163.14 141.432 174.53 131.568 191.386L132.431 191.891Z" fill="#3300FF"/>
<path id="B" d="M114.18 145.139V134.957H117.74C118.449 134.957 119.034 135.08 119.495 135.325C119.956 135.567 120.299 135.893 120.524 136.304C120.749 136.712 120.862 137.164 120.862 137.662C120.862 138.099 120.784 138.46 120.628 138.745C120.476 139.03 120.274 139.256 120.022 139.421C119.773 139.587 119.503 139.71 119.211 139.789V139.889C119.523 139.909 119.836 140.018 120.151 140.217C120.466 140.416 120.729 140.701 120.942 141.072C121.154 141.443 121.26 141.897 121.26 142.434C121.26 142.945 121.144 143.404 120.912 143.811C120.68 144.219 120.314 144.542 119.813 144.781C119.313 145.019 118.661 145.139 117.859 145.139H114.18ZM115.413 144.045H117.859C118.665 144.045 119.236 143.889 119.574 143.578C119.916 143.263 120.086 142.882 120.086 142.434C120.086 142.09 119.999 141.771 119.823 141.48C119.647 141.185 119.397 140.949 119.072 140.774C118.747 140.595 118.363 140.505 117.919 140.505H115.413V144.045ZM115.413 139.431H117.7C118.071 139.431 118.406 139.358 118.704 139.213C119.006 139.067 119.245 138.861 119.42 138.596C119.599 138.331 119.689 138.019 119.689 137.662C119.689 137.214 119.533 136.835 119.221 136.523C118.91 136.208 118.416 136.051 117.74 136.051H115.413V139.431Z" fill="black"/>
<path id="C" d="M351.833 135.139H350.6C350.527 134.784 350.4 134.473 350.218 134.204C350.039 133.936 349.82 133.71 349.561 133.528C349.306 133.342 349.023 133.203 348.711 133.11C348.4 133.018 348.075 132.971 347.737 132.971C347.12 132.971 346.562 133.127 346.061 133.439C345.564 133.75 345.168 134.209 344.873 134.816C344.581 135.422 344.436 136.166 344.436 137.048C344.436 137.93 344.581 138.674 344.873 139.28C345.168 139.887 345.564 140.346 346.061 140.657C346.562 140.969 347.12 141.125 347.737 141.125C348.075 141.125 348.4 141.078 348.711 140.985C349.023 140.893 349.306 140.755 349.561 140.573C349.82 140.387 350.039 140.16 350.218 139.892C350.4 139.62 350.527 139.308 350.6 138.957H351.833C351.741 139.477 351.572 139.943 351.326 140.354C351.081 140.765 350.776 141.115 350.411 141.403C350.047 141.688 349.638 141.905 349.184 142.054C348.733 142.203 348.251 142.278 347.737 142.278C346.868 142.278 346.096 142.066 345.42 141.642C344.744 141.217 344.212 140.614 343.824 139.832C343.436 139.05 343.242 138.122 343.242 137.048C343.242 135.974 343.436 135.046 343.824 134.264C344.212 133.482 344.744 132.878 345.42 132.454C346.096 132.03 346.868 131.818 347.737 131.818C348.251 131.818 348.733 131.892 349.184 132.041C349.638 132.191 350.047 132.409 350.411 132.698C350.776 132.983 351.081 133.331 351.326 133.742C351.572 134.149 351.741 134.615 351.833 135.139Z" fill="black"/>
<path id="C&#226;&#128;&#153;" d="M263.541 89.1388H262.308C262.236 88.7842 262.108 88.4726 261.926 88.2041C261.747 87.9357 261.528 87.7103 261.269 87.528C261.014 87.3424 260.731 87.2032 260.419 87.1104C260.108 87.0176 259.783 86.9712 259.445 86.9712C258.828 86.9712 258.27 87.127 257.769 87.4385C257.272 87.7501 256.876 88.2091 256.581 88.8156C256.289 89.4222 256.144 90.1663 256.144 91.0479C256.144 91.9295 256.289 92.6736 256.581 93.2801C256.876 93.8867 257.272 94.3457 257.769 94.6573C258.27 94.9688 258.828 95.1246 259.445 95.1246C259.783 95.1246 260.108 95.0782 260.419 94.9854C260.731 94.8926 261.014 94.755 261.269 94.5727C261.528 94.3871 261.747 94.1601 261.926 93.8916C262.108 93.6199 262.236 93.3083 262.308 92.957H263.541C263.449 93.4773 263.28 93.943 263.034 94.354C262.789 94.765 262.484 95.1146 262.119 95.403C261.755 95.688 261.346 95.9051 260.892 96.0543C260.441 96.2034 259.959 96.278 259.445 96.278C258.576 96.278 257.804 96.0659 257.128 95.6416C256.452 95.2174 255.92 94.6142 255.532 93.832C255.144 93.0498 254.95 92.1217 254.95 91.0479C254.95 89.974 255.144 89.046 255.532 88.2638C255.92 87.4816 256.452 86.8784 257.128 86.4541C257.804 86.0299 258.576 85.8178 259.445 85.8178C259.959 85.8178 260.441 85.8923 260.892 86.0415C261.346 86.1906 261.755 86.4094 262.119 86.6977C262.484 86.9828 262.789 87.3308 263.034 87.7418C263.28 88.1494 263.449 88.6151 263.541 89.1388ZM266.409 85.957V86.8519C266.409 87.1236 266.359 87.4137 266.26 87.7219C266.163 88.0268 266.021 88.3235 265.832 88.6118C265.646 88.8968 265.421 89.1454 265.156 89.3575L264.52 88.8405C264.728 88.5422 264.909 88.2323 265.061 87.9108C265.217 87.586 265.295 87.2396 265.295 86.8717V85.957H266.409Z" fill="black"/>
<path id="C&#226;&#128;&#153;_2" d="M166.541 73.1388H165.308C165.236 72.7842 165.108 72.4726 164.926 72.2041C164.747 71.9357 164.528 71.7103 164.269 71.528C164.014 71.3424 163.731 71.2032 163.419 71.1104C163.108 71.0176 162.783 70.9712 162.445 70.9712C161.828 70.9712 161.27 71.127 160.769 71.4385C160.272 71.7501 159.876 72.2091 159.581 72.8156C159.289 73.4222 159.144 74.1663 159.144 75.0479C159.144 75.9295 159.289 76.6736 159.581 77.2801C159.876 77.8867 160.272 78.3457 160.769 78.6573C161.27 78.9688 161.828 79.1246 162.445 79.1246C162.783 79.1246 163.108 79.0782 163.419 78.9854C163.731 78.8926 164.014 78.755 164.269 78.5727C164.528 78.3871 164.747 78.1601 164.926 77.8916C165.108 77.6199 165.236 77.3083 165.308 76.957H166.541C166.449 77.4773 166.28 77.943 166.034 78.354C165.789 78.765 165.484 79.1146 165.119 79.403C164.755 79.688 164.346 79.9051 163.892 80.0543C163.441 80.2034 162.959 80.278 162.445 80.278C161.576 80.278 160.804 80.0659 160.128 79.6416C159.452 79.2174 158.92 78.6142 158.532 77.832C158.144 77.0498 157.95 76.1217 157.95 75.0479C157.95 73.974 158.144 73.046 158.532 72.2638C158.92 71.4816 159.452 70.8784 160.128 70.4541C160.804 70.0299 161.576 69.8178 162.445 69.8178C162.959 69.8178 163.441 69.8923 163.892 70.0415C164.346 70.1906 164.755 70.4094 165.119 70.6977C165.484 70.9828 165.789 71.3308 166.034 71.7418C166.28 72.1494 166.449 72.6151 166.541 73.1388ZM169.409 69.957V70.8519C169.409 71.1236 169.359 71.4137 169.26 71.7219C169.163 72.0268 169.021 72.3235 168.832 72.6118C168.646 72.8968 168.421 73.1454 168.156 73.3575L167.52 72.8405C167.728 72.5422 167.909 72.2323 168.061 71.9108C168.217 71.586 168.295 71.2396 168.295 70.8717V69.957H169.409Z" fill="black"/>
<path id="B_2" d="M250.18 168.139V157.957H253.74C254.449 157.957 255.034 158.08 255.495 158.325C255.956 158.567 256.299 158.893 256.524 159.304C256.749 159.712 256.862 160.164 256.862 160.662C256.862 161.099 256.784 161.46 256.628 161.745C256.476 162.03 256.274 162.256 256.022 162.421C255.773 162.587 255.503 162.71 255.211 162.789V162.889C255.523 162.909 255.836 163.018 256.151 163.217C256.466 163.416 256.729 163.701 256.942 164.072C257.154 164.443 257.26 164.897 257.26 165.434C257.26 165.945 257.144 166.404 256.912 166.811C256.68 167.219 256.314 167.542 255.813 167.781C255.313 168.019 254.661 168.139 253.859 168.139H250.18ZM251.413 167.045H253.859C254.665 167.045 255.236 166.889 255.574 166.578C255.916 166.263 256.086 165.882 256.086 165.434C256.086 165.09 255.999 164.771 255.823 164.48C255.647 164.185 255.397 163.949 255.072 163.774C254.747 163.595 254.363 163.505 253.919 163.505H251.413V167.045ZM251.413 162.431H253.7C254.071 162.431 254.406 162.358 254.704 162.213C255.006 162.067 255.245 161.861 255.42 161.596C255.599 161.331 255.689 161.019 255.689 160.662C255.689 160.214 255.533 159.835 255.221 159.523C254.91 159.208 254.416 159.051 253.74 159.051H251.413V162.431Z" fill="black"/>
<path id="B_3" d="M346.18 221.139V210.957H349.74C350.449 210.957 351.034 211.08 351.495 211.325C351.956 211.567 352.299 211.893 352.524 212.304C352.749 212.712 352.862 213.164 352.862 213.662C352.862 214.099 352.784 214.46 352.628 214.745C352.476 215.03 352.274 215.256 352.022 215.421C351.773 215.587 351.503 215.71 351.211 215.789V215.889C351.523 215.909 351.836 216.018 352.151 216.217C352.466 216.416 352.729 216.701 352.942 217.072C353.154 217.443 353.26 217.897 353.26 218.434C353.26 218.945 353.144 219.404 352.912 219.811C352.68 220.219 352.314 220.542 351.813 220.781C351.313 221.019 350.661 221.139 349.859 221.139H346.18ZM347.413 220.045H349.859C350.665 220.045 351.236 219.889 351.574 219.578C351.916 219.263 352.086 218.882 352.086 218.434C352.086 218.09 351.999 217.771 351.823 217.48C351.647 217.185 351.397 216.949 351.072 216.774C350.747 216.595 350.363 216.505 349.919 216.505H347.413V220.045ZM347.413 215.431H349.7C350.071 215.431 350.406 215.358 350.704 215.213C351.006 215.067 351.245 214.861 351.42 214.596C351.599 214.331 351.689 214.019 351.689 213.662C351.689 213.214 351.533 212.835 351.221 212.523C350.91 212.208 350.416 212.051 349.74 212.051H347.413V215.431Z" fill="black"/>
<ellipse id="Ellipse 1" cx="209.5" cy="191.139" rx="18.5" ry="17" fill="#D9D9D9"/>
<path id="B&#226;&#128;&#153;_4" d="M204.888 197.139V186.957H208.448C209.157 186.957 209.742 187.08 210.203 187.325C210.664 187.567 211.007 187.893 211.232 188.304C211.457 188.712 211.57 189.164 211.57 189.662C211.57 190.099 211.492 190.46 211.336 190.745C211.184 191.03 210.982 191.256 210.73 191.421C210.481 191.587 210.211 191.71 209.919 191.789V191.889C210.231 191.909 210.544 192.018 210.859 192.217C211.174 192.416 211.437 192.701 211.65 193.072C211.862 193.443 211.968 193.897 211.968 194.434C211.968 194.945 211.852 195.404 211.62 195.811C211.388 196.219 211.022 196.542 210.521 196.781C210.021 197.019 209.369 197.139 208.567 197.139H204.888ZM206.121 196.045H208.567C209.373 196.045 209.944 195.889 210.282 195.578C210.624 195.263 210.794 194.882 210.794 194.434C210.794 194.09 210.707 193.771 210.531 193.48C210.355 193.185 210.105 192.949 209.78 192.774C209.455 192.595 209.071 192.505 208.627 192.505H206.121V196.045ZM206.121 191.431H208.408C208.779 191.431 209.114 191.358 209.412 191.213C209.714 191.067 209.953 190.861 210.128 190.596C210.307 190.331 210.397 190.019 210.397 189.662C210.397 189.214 210.241 188.835 209.929 188.523C209.618 188.208 209.124 188.051 208.448 188.051H206.121V191.431ZM214.869 186.957V187.852C214.869 188.124 214.819 188.414 214.72 188.722C214.623 189.027 214.481 189.323 214.292 189.612C214.106 189.897 213.881 190.145 213.616 190.358L212.979 189.84C213.188 189.542 213.369 189.232 213.521 188.911C213.677 188.586 213.755 188.24 213.755 187.872V186.957H214.869Z" fill="black"/>
<ellipse id="Ellipse 2" cx="301.5" cy="146.139" rx="18.5" ry="17" fill="#D9D9D9"/>
<path id="B&#226;&#128;&#153;B" d="M293.645 151.139V142.412H296.696C297.304 142.412 297.805 142.517 298.2 142.727C298.595 142.934 298.889 143.214 299.082 143.566C299.275 143.916 299.372 144.304 299.372 144.73C299.372 145.105 299.305 145.414 299.172 145.659C299.041 145.903 298.868 146.096 298.652 146.238C298.439 146.38 298.207 146.485 297.957 146.554V146.639C298.224 146.656 298.493 146.75 298.763 146.92C299.032 147.09 299.258 147.335 299.44 147.653C299.622 147.971 299.713 148.36 299.713 148.821C299.713 149.258 299.613 149.652 299.415 150.001C299.216 150.35 298.902 150.627 298.473 150.832C298.044 151.037 297.486 151.139 296.798 151.139H293.645ZM294.702 150.201H296.798C297.488 150.201 297.979 150.068 298.268 149.801C298.561 149.531 298.707 149.204 298.707 148.821C298.707 148.525 298.632 148.252 298.481 148.002C298.331 147.75 298.116 147.548 297.838 147.397C297.559 147.244 297.23 147.167 296.849 147.167H294.702V150.201ZM294.702 146.247H296.662C296.98 146.247 297.267 146.184 297.523 146.059C297.781 145.934 297.986 145.758 298.136 145.531C298.29 145.304 298.366 145.037 298.366 144.73C298.366 144.346 298.233 144.021 297.966 143.754C297.699 143.484 297.275 143.349 296.696 143.349H294.702V146.247ZM302.199 142.412V143.179C302.199 143.412 302.157 143.66 302.072 143.924C301.989 144.186 301.867 144.44 301.705 144.687C301.546 144.931 301.353 145.144 301.126 145.326L300.58 144.883C300.759 144.627 300.914 144.362 301.045 144.086C301.178 143.808 301.245 143.511 301.245 143.196V142.412H302.199ZM303.664 151.139V142.412H306.715C307.323 142.412 307.825 142.517 308.22 142.727C308.615 142.934 308.909 143.214 309.102 143.566C309.295 143.916 309.392 144.304 309.392 144.73C309.392 145.105 309.325 145.414 309.191 145.659C309.061 145.903 308.887 146.096 308.671 146.238C308.458 146.38 308.227 146.485 307.977 146.554V146.639C308.244 146.656 308.512 146.75 308.782 146.92C309.052 147.09 309.278 147.335 309.46 147.653C309.642 147.971 309.732 148.36 309.732 148.821C309.732 149.258 309.633 149.652 309.434 150.001C309.235 150.35 308.921 150.627 308.492 150.832C308.063 151.037 307.505 151.139 306.818 151.139H303.664ZM304.721 150.201H306.818C307.508 150.201 307.998 150.068 308.288 149.801C308.58 149.531 308.727 149.204 308.727 148.821C308.727 148.525 308.651 148.252 308.501 148.002C308.35 147.75 308.136 147.548 307.857 147.397C307.579 147.244 307.249 147.167 306.869 147.167H304.721V150.201ZM304.721 146.247H306.681C306.999 146.247 307.286 146.184 307.542 146.059C307.801 145.934 308.005 145.758 308.156 145.531C308.309 145.304 308.386 145.037 308.386 144.73C308.386 144.346 308.252 144.021 307.985 143.754C307.718 143.484 307.295 143.349 306.715 143.349H304.721V146.247Z" fill="black"/>
<ellipse id="Ellipse 3" cx="301.5" cy="225.139" rx="18.5" ry="17" fill="#D9D9D9"/>
<path id="B&#226;&#128;&#153;B&#226;&#128;&#153;" d="M292.537 230.139V221.412H295.588C296.196 221.412 296.698 221.517 297.093 221.727C297.488 221.934 297.782 222.214 297.975 222.566C298.168 222.916 298.265 223.304 298.265 223.73C298.265 224.105 298.198 224.414 298.064 224.659C297.934 224.903 297.76 225.096 297.544 225.238C297.331 225.38 297.1 225.485 296.85 225.554V225.639C297.117 225.656 297.385 225.75 297.655 225.92C297.925 226.09 298.151 226.335 298.333 226.653C298.515 226.971 298.605 227.36 298.605 227.821C298.605 228.258 298.506 228.652 298.307 229.001C298.108 229.35 297.794 229.627 297.365 229.832C296.936 230.037 296.378 230.139 295.691 230.139H292.537ZM293.594 229.201H295.691C296.381 229.201 296.871 229.068 297.161 228.801C297.453 228.531 297.6 228.204 297.6 227.821C297.6 227.525 297.525 227.252 297.374 227.002C297.223 226.75 297.009 226.548 296.73 226.397C296.452 226.244 296.123 226.167 295.742 226.167H293.594V229.201ZM293.594 225.247H295.554C295.873 225.247 296.159 225.184 296.415 225.059C296.674 224.934 296.878 224.758 297.029 224.531C297.182 224.304 297.259 224.037 297.259 223.73C297.259 223.346 297.125 223.021 296.858 222.754C296.591 222.484 296.168 222.349 295.588 222.349H293.594V225.247ZM301.092 221.412V222.179C301.092 222.412 301.049 222.66 300.964 222.924C300.882 223.186 300.76 223.44 300.598 223.687C300.439 223.931 300.245 224.144 300.018 224.326L299.473 223.883C299.652 223.627 299.806 223.362 299.937 223.086C300.071 222.808 300.137 222.511 300.137 222.196V221.412H301.092ZM302.557 230.139V221.412H305.608C306.216 221.412 306.717 221.517 307.112 221.727C307.507 221.934 307.801 222.214 307.994 222.566C308.188 222.916 308.284 223.304 308.284 223.73C308.284 224.105 308.217 224.414 308.084 224.659C307.953 224.903 307.78 225.096 307.564 225.238C307.351 225.38 307.119 225.485 306.869 225.554V225.639C307.136 225.656 307.405 225.75 307.675 225.92C307.945 226.09 308.17 226.335 308.352 226.653C308.534 226.971 308.625 227.36 308.625 227.821C308.625 228.258 308.526 228.652 308.327 229.001C308.128 229.35 307.814 229.627 307.385 229.832C306.956 230.037 306.398 230.139 305.71 230.139H302.557ZM303.614 229.201H305.71C306.401 229.201 306.891 229.068 307.18 228.801C307.473 228.531 307.619 228.204 307.619 227.821C307.619 227.525 307.544 227.252 307.393 227.002C307.243 226.75 307.028 226.548 306.75 226.397C306.472 226.244 306.142 226.167 305.761 226.167H303.614V229.201ZM303.614 225.247H305.574C305.892 225.247 306.179 225.184 306.435 225.059C306.693 224.934 306.898 224.758 307.048 224.531C307.202 224.304 307.278 224.037 307.278 223.73C307.278 223.346 307.145 223.021 306.878 222.754C306.611 222.484 306.188 222.349 305.608 222.349H303.614V225.247ZM311.112 221.412V222.179C311.112 222.412 311.069 222.66 310.984 222.924C310.901 223.186 310.779 223.44 310.617 223.687C310.458 223.931 310.265 224.144 310.038 224.326L309.492 223.883C309.671 223.627 309.826 223.362 309.957 223.086C310.09 222.808 310.157 222.511 310.157 222.196V221.412H311.112Z" fill="black"/>
<ellipse id="Ellipse 4" cx="404.5" cy="225.639" rx="22.5" ry="21.5" fill="#D9D9D9"/>
<path id="B&#226;&#128;&#153;B&#226;&#128;&#153;B" d="M390.135 229.139V220.412H393.186C393.794 220.412 394.295 220.517 394.69 220.727C395.085 220.934 395.379 221.214 395.572 221.566C395.766 221.916 395.862 222.304 395.862 222.73C395.862 223.105 395.795 223.414 395.662 223.659C395.531 223.903 395.358 224.096 395.142 224.238C394.929 224.38 394.697 224.485 394.447 224.554V224.639C394.714 224.656 394.983 224.75 395.253 224.92C395.523 225.09 395.749 225.335 395.93 225.653C396.112 225.971 396.203 226.36 396.203 226.821C396.203 227.258 396.104 227.652 395.905 228.001C395.706 228.35 395.392 228.627 394.963 228.832C394.534 229.037 393.976 229.139 393.288 229.139H390.135ZM391.192 228.201H393.288C393.979 228.201 394.469 228.068 394.759 227.801C395.051 227.531 395.197 227.204 395.197 226.821C395.197 226.525 395.122 226.252 394.972 226.002C394.821 225.75 394.607 225.548 394.328 225.397C394.05 225.244 393.72 225.167 393.339 225.167H391.192V228.201ZM391.192 224.247H393.152C393.47 224.247 393.757 224.184 394.013 224.059C394.271 223.934 394.476 223.758 394.626 223.531C394.78 223.304 394.857 223.037 394.857 222.73C394.857 222.346 394.723 222.021 394.456 221.754C394.189 221.484 393.766 221.349 393.186 221.349H391.192V224.247ZM398.69 220.412V221.179C398.69 221.412 398.647 221.66 398.562 221.924C398.479 222.186 398.357 222.44 398.195 222.687C398.036 222.931 397.843 223.144 397.616 223.326L397.07 222.883C397.249 222.627 397.404 222.362 397.535 222.086C397.668 221.808 397.735 221.511 397.735 221.196V220.412H398.69ZM400.154 229.139V220.412H403.206C403.814 220.412 404.315 220.517 404.71 220.727C405.105 220.934 405.399 221.214 405.592 221.566C405.785 221.916 405.882 222.304 405.882 222.73C405.882 223.105 405.815 223.414 405.681 223.659C405.551 223.903 405.377 224.096 405.162 224.238C404.949 224.38 404.717 224.485 404.467 224.554V224.639C404.734 224.656 405.002 224.75 405.272 224.92C405.542 225.09 405.768 225.335 405.95 225.653C406.132 225.971 406.223 226.36 406.223 226.821C406.223 227.258 406.123 227.652 405.924 228.001C405.725 228.35 405.412 228.627 404.983 228.832C404.554 229.037 403.995 229.139 403.308 229.139H400.154ZM401.211 228.201H403.308C403.998 228.201 404.488 228.068 404.778 227.801C405.071 227.531 405.217 227.204 405.217 226.821C405.217 226.525 405.142 226.252 404.991 226.002C404.841 225.75 404.626 225.548 404.348 225.397C404.069 225.244 403.74 225.167 403.359 225.167H401.211V228.201ZM401.211 224.247H403.172C403.49 224.247 403.777 224.184 404.032 224.059C404.291 223.934 404.495 223.758 404.646 223.531C404.799 223.304 404.876 223.037 404.876 222.73C404.876 222.346 404.743 222.021 404.475 221.754C404.208 221.484 403.785 221.349 403.206 221.349H401.211V224.247ZM408.709 220.412V221.179C408.709 221.412 408.667 221.66 408.581 221.924C408.499 222.186 408.377 222.44 408.215 222.687C408.056 222.931 407.863 223.144 407.635 223.326L407.09 222.883C407.269 222.627 407.424 222.362 407.554 222.086C407.688 221.808 407.755 221.511 407.755 221.196V220.412H408.709ZM410.174 229.139V220.412H413.225C413.833 220.412 414.335 220.517 414.729 220.727C415.124 220.934 415.418 221.214 415.612 221.566C415.805 221.916 415.901 222.304 415.901 222.73C415.901 223.105 415.835 223.414 415.701 223.659C415.57 223.903 415.397 224.096 415.181 224.238C414.968 224.38 414.737 224.485 414.487 224.554V224.639C414.754 224.656 415.022 224.75 415.292 224.92C415.562 225.09 415.788 225.335 415.969 225.653C416.151 225.971 416.242 226.36 416.242 226.821C416.242 227.258 416.143 227.652 415.944 228.001C415.745 228.35 415.431 228.627 415.002 228.832C414.573 229.037 414.015 229.139 413.327 229.139H410.174ZM411.231 228.201H413.327C414.018 228.201 414.508 228.068 414.798 227.801C415.09 227.531 415.237 227.204 415.237 226.821C415.237 226.525 415.161 226.252 415.011 226.002C414.86 225.75 414.646 225.548 414.367 225.397C414.089 225.244 413.759 225.167 413.379 225.167H411.231V228.201ZM411.231 224.247H413.191C413.509 224.247 413.796 224.184 414.052 224.059C414.31 223.934 414.515 223.758 414.665 223.531C414.819 223.304 414.896 223.037 414.896 222.73C414.896 222.346 414.762 222.021 414.495 221.754C414.228 221.484 413.805 221.349 413.225 221.349H411.231V224.247Z" fill="black"/>
<ellipse id="Ellipse 5" cx="403.5" cy="146.639" rx="22.5" ry="21.5" fill="#D9D9D9"/>
<path id="B&#226;&#128;&#153;BC" d="M390.779 150.139V141.412H393.831C394.439 141.412 394.94 141.517 395.335 141.727C395.73 141.934 396.024 142.214 396.217 142.566C396.41 142.916 396.507 143.304 396.507 143.73C396.507 144.105 396.44 144.414 396.306 144.659C396.176 144.903 396.002 145.096 395.787 145.238C395.574 145.38 395.342 145.485 395.092 145.554V145.639C395.359 145.656 395.627 145.75 395.897 145.92C396.167 146.09 396.393 146.335 396.575 146.653C396.757 146.971 396.848 147.36 396.848 147.821C396.848 148.258 396.748 148.652 396.549 149.001C396.35 149.35 396.037 149.627 395.608 149.832C395.179 150.037 394.62 150.139 393.933 150.139H390.779ZM391.836 149.201H393.933C394.623 149.201 395.113 149.068 395.403 148.801C395.696 148.531 395.842 148.204 395.842 147.821C395.842 147.525 395.767 147.252 395.616 147.002C395.466 146.75 395.251 146.548 394.973 146.397C394.694 146.244 394.365 146.167 393.984 146.167H391.836V149.201ZM391.836 145.247H393.797C394.115 145.247 394.402 145.184 394.657 145.059C394.916 144.934 395.12 144.758 395.271 144.531C395.424 144.304 395.501 144.037 395.501 143.73C395.501 143.346 395.368 143.021 395.1 142.754C394.833 142.484 394.41 142.349 393.831 142.349H391.836V145.247ZM399.334 141.412V142.179C399.334 142.412 399.292 142.66 399.206 142.924C399.124 143.186 399.002 143.44 398.84 143.687C398.681 143.931 398.488 144.144 398.26 144.326L397.715 143.883C397.894 143.627 398.049 143.362 398.179 143.086C398.313 142.808 398.38 142.511 398.38 142.196V141.412H399.334ZM400.799 150.139V141.412H403.85C404.458 141.412 404.96 141.517 405.354 141.727C405.749 141.934 406.043 142.214 406.237 142.566C406.43 142.916 406.526 143.304 406.526 143.73C406.526 144.105 406.46 144.414 406.326 144.659C406.195 144.903 406.022 145.096 405.806 145.238C405.593 145.38 405.362 145.485 405.112 145.554V145.639C405.379 145.656 405.647 145.75 405.917 145.92C406.187 146.09 406.413 146.335 406.594 146.653C406.776 146.971 406.867 147.36 406.867 147.821C406.867 148.258 406.768 148.652 406.569 149.001C406.37 149.35 406.056 149.627 405.627 149.832C405.198 150.037 404.64 150.139 403.952 150.139H400.799ZM401.856 149.201H403.952C404.643 149.201 405.133 149.068 405.423 148.801C405.715 148.531 405.862 148.204 405.862 147.821C405.862 147.525 405.786 147.252 405.636 147.002C405.485 146.75 405.271 146.548 404.992 146.397C404.714 146.244 404.384 146.167 404.004 146.167H401.856V149.201ZM401.856 145.247H403.816C404.134 145.247 404.421 145.184 404.677 145.059C404.935 144.934 405.14 144.758 405.29 144.531C405.444 144.304 405.521 144.037 405.521 143.73C405.521 143.346 405.387 143.021 405.12 142.754C404.853 142.484 404.43 142.349 403.85 142.349H401.856V145.247ZM415.626 144.139H414.57C414.507 143.835 414.398 143.568 414.241 143.338C414.088 143.108 413.901 142.914 413.679 142.758C413.46 142.599 413.217 142.48 412.95 142.4C412.683 142.321 412.405 142.281 412.115 142.281C411.587 142.281 411.108 142.414 410.679 142.681C410.253 142.948 409.913 143.342 409.661 143.862C409.411 144.382 409.286 145.019 409.286 145.775C409.286 146.531 409.411 147.169 409.661 147.689C409.913 148.208 410.253 148.602 410.679 148.869C411.108 149.136 411.587 149.269 412.115 149.269C412.405 149.269 412.683 149.23 412.95 149.15C413.217 149.071 413.46 148.953 413.679 148.796C413.901 148.637 414.088 148.443 414.241 148.213C414.398 147.98 414.507 147.713 414.57 147.412H415.626C415.547 147.858 415.402 148.257 415.192 148.609C414.982 148.961 414.72 149.261 414.408 149.508C414.095 149.752 413.744 149.939 413.355 150.066C412.969 150.194 412.555 150.258 412.115 150.258C411.371 150.258 410.709 150.076 410.129 149.713C409.55 149.349 409.094 148.832 408.761 148.162C408.429 147.491 408.263 146.696 408.263 145.775C408.263 144.855 408.429 144.059 408.761 143.389C409.094 142.718 409.55 142.201 410.129 141.838C410.709 141.474 411.371 141.292 412.115 141.292C412.555 141.292 412.969 141.356 413.355 141.484C413.744 141.612 414.095 141.799 414.408 142.046C414.72 142.291 414.982 142.589 415.192 142.941C415.402 143.291 415.547 143.69 415.626 144.139Z" fill="black"/>
<path id="Arrow 11" d="M300.231 244.074C300.017 243.9 299.702 243.932 299.527 244.146L296.681 247.631C296.507 247.845 296.538 248.16 296.752 248.335C296.966 248.51 297.281 248.478 297.456 248.264L299.985 245.165L303.084 247.695C303.298 247.869 303.613 247.838 303.788 247.624C303.962 247.41 303.93 247.095 303.716 246.92L300.231 244.074ZM319.289 230.579C328.883 241.208 332.903 252.052 333.451 261.154C334 270.275 331.066 277.606 326.809 281.286C324.688 283.12 322.249 284.042 319.735 283.865C317.22 283.689 314.56 282.408 312.012 279.705C306.898 274.282 302.313 263.212 300.412 244.411L299.417 244.512C301.325 263.385 305.943 274.726 311.284 280.391C313.963 283.233 316.844 284.665 319.665 284.863C322.486 285.061 325.177 284.019 327.463 282.042C332.022 278.101 335.011 270.426 334.449 261.094C333.886 251.743 329.761 240.688 320.032 229.909L319.289 230.579Z" fill="#FF0000"/>
<path id="B&#226;&#128;&#153;BC vs B&#226;&#128;&#153;B&#226;&#128;&#153;B" d="M195.77 37C195.444 37 195.281 36.821 195.281 36.4629V23.5332C195.281 23.1751 195.444 22.9961 195.77 22.9961H199.578C201.792 22.9961 203.283 23.3542 204.051 24.0703C204.819 24.7865 205.203 25.6491 205.203 26.6582C205.203 27.459 204.884 28.1393 204.246 28.6992C203.608 29.2526 202.99 29.5781 202.391 29.6758V29.7051C203.048 29.7637 203.781 30.0924 204.588 30.6914C205.402 31.2839 205.809 32.0911 205.809 33.1133C205.809 34.2201 205.398 35.1445 204.578 35.8867C203.764 36.6289 202.26 37 200.066 37H195.77ZM197.156 35.3984H199.754C201.154 35.3984 202.179 35.2259 202.83 34.8809C203.481 34.5358 203.807 33.9271 203.807 33.0547C203.807 32.2474 203.475 31.6224 202.811 31.1797C202.153 30.737 201.134 30.5156 199.754 30.5156H197.156V35.3984ZM197.156 29.1094H199.607C200.695 29.1094 201.58 28.8783 202.264 28.416C202.954 27.9473 203.299 27.3613 203.299 26.6582C203.299 25.9876 203.042 25.4766 202.527 25.125C202.013 24.7734 201.04 24.5977 199.607 24.5977H197.156V29.1094ZM208.768 24.7246C208.475 24.7246 208.328 24.5781 208.328 24.2852V23.0938C208.328 22.8008 208.475 22.6543 208.768 22.6543H209.9C210.193 22.6543 210.34 22.8008 210.34 23.0938V24.2852C210.34 24.9688 210.265 25.5677 210.115 26.082C209.972 26.5898 209.686 27.0358 209.256 27.4199C209.113 27.5436 208.992 27.5599 208.895 27.4688L208.455 27.0586C208.357 26.9674 208.38 26.8568 208.523 26.7266C208.745 26.5312 208.924 26.2513 209.061 25.8867C209.204 25.5156 209.275 25.1283 209.275 24.7246H208.768ZM213.895 37C213.569 37 213.406 36.821 213.406 36.4629V23.5332C213.406 23.1751 213.569 22.9961 213.895 22.9961H217.703C219.917 22.9961 221.408 23.3542 222.176 24.0703C222.944 24.7865 223.328 25.6491 223.328 26.6582C223.328 27.459 223.009 28.1393 222.371 28.6992C221.733 29.2526 221.115 29.5781 220.516 29.6758V29.7051C221.173 29.7637 221.906 30.0924 222.713 30.6914C223.527 31.2839 223.934 32.0911 223.934 33.1133C223.934 34.2201 223.523 35.1445 222.703 35.8867C221.889 36.6289 220.385 37 218.191 37H213.895ZM215.281 35.3984H217.879C219.279 35.3984 220.304 35.2259 220.955 34.8809C221.606 34.5358 221.932 33.9271 221.932 33.0547C221.932 32.2474 221.6 31.6224 220.936 31.1797C220.278 30.737 219.259 30.5156 217.879 30.5156H215.281V35.3984ZM215.281 29.1094H217.732C218.82 29.1094 219.705 28.8783 220.389 28.416C221.079 27.9473 221.424 27.3613 221.424 26.6582C221.424 25.9876 221.167 25.4766 220.652 25.125C220.138 24.7734 219.165 24.5977 217.732 24.5977H215.281V29.1094ZM225.906 29.998C225.906 27.7194 226.469 25.9355 227.596 24.6465C228.729 23.3509 230.353 22.7031 232.469 22.7031C233.706 22.7031 234.728 22.9147 235.535 23.3379C236.342 23.7546 236.922 24.3275 237.273 25.0566C237.456 25.4342 237.426 25.6947 237.186 25.8379L236.414 26.2871C236.154 26.4368 235.923 26.3132 235.721 25.916C235.506 25.5059 235.154 25.1217 234.666 24.7637C234.178 24.4056 233.478 24.2266 232.566 24.2266C230.939 24.2266 229.754 24.7344 229.012 25.75C228.276 26.7591 227.908 28.1751 227.908 29.998C227.908 31.821 228.276 33.2402 229.012 34.2559C229.754 35.265 230.939 35.7695 232.566 35.7695C233.504 35.7695 234.253 35.5547 234.812 35.125C235.379 34.6953 235.789 34.2461 236.043 33.7773C236.245 33.3997 236.479 33.2858 236.746 33.4355L237.557 33.8945C237.791 34.0312 237.811 34.2917 237.615 34.6758C237.231 35.4245 236.606 36.0495 235.74 36.5508C234.874 37.0456 233.784 37.293 232.469 37.293C230.353 37.293 228.729 36.6484 227.596 35.3594C226.469 34.0638 225.906 32.2767 225.906 29.998ZM245.965 27.2246C245.854 26.9056 245.942 26.7461 246.229 26.7461H247.293C247.501 26.7461 247.648 26.873 247.732 27.127L249.803 33.5723C249.972 34.0996 250.086 34.4642 250.145 34.666C250.21 34.8613 250.268 35.1055 250.32 35.3984H250.359C250.411 35.1055 250.467 34.8613 250.525 34.666C250.59 34.4642 250.708 34.0996 250.877 33.5723L252.947 27.127C253.032 26.873 253.178 26.7461 253.387 26.7461H254.451C254.738 26.7461 254.826 26.9056 254.715 27.2246L251.512 36.4043C251.375 36.8014 251.199 37 250.984 37H249.695C249.48 37 249.305 36.8014 249.168 36.4043L245.965 27.2246ZM255.975 36.043C255.773 35.8542 255.73 35.6784 255.848 35.5156L256.287 34.9004C256.43 34.7051 256.642 34.7148 256.922 34.9297C257.306 35.2227 257.732 35.457 258.201 35.6328C258.676 35.8086 259.217 35.8965 259.822 35.8965C260.18 35.8965 260.499 35.8542 260.779 35.7695C261.059 35.6784 261.303 35.5124 261.512 35.2715C261.727 35.0306 261.834 34.7083 261.834 34.3047C261.834 34.0703 261.782 33.849 261.678 33.6406C261.58 33.4323 261.424 33.2663 261.209 33.1426C261.001 33.0124 260.796 32.9115 260.594 32.8398C260.262 32.7161 259.93 32.6152 259.598 32.5371C259.272 32.4525 258.842 32.3255 258.309 32.1562C257.951 32.0456 257.612 31.8893 257.293 31.6875C256.974 31.4792 256.694 31.1992 256.453 30.8477C256.219 30.4961 256.102 30.0111 256.102 29.3926C256.102 28.7611 256.294 28.2174 256.678 27.7617C257.062 27.306 257.544 26.9967 258.123 26.834C258.702 26.6647 259.266 26.5801 259.812 26.5801C260.62 26.5801 261.268 26.6745 261.756 26.8633C262.251 27.0456 262.677 27.2637 263.035 27.5176C263.243 27.6673 263.273 27.8398 263.123 28.0352L262.684 28.6211C262.547 28.8099 262.335 28.8034 262.049 28.6016C261.808 28.4323 261.466 28.2728 261.023 28.123C260.581 27.9733 260.193 27.8984 259.861 27.8984C259.451 27.8984 259.1 27.944 258.807 28.0352C258.514 28.1263 258.276 28.2826 258.094 28.5039C257.911 28.7253 257.82 28.9857 257.82 29.2852C257.82 29.513 257.856 29.7181 257.928 29.9004C257.999 30.0762 258.133 30.2389 258.328 30.3887C258.523 30.5384 258.797 30.6589 259.148 30.75C259.695 30.8932 260.193 31.0234 260.643 31.1406C261.098 31.2578 261.508 31.401 261.873 31.5703C262.348 31.7917 262.713 32.0358 262.967 32.3027C263.227 32.5697 263.406 32.8594 263.504 33.1719C263.602 33.4779 263.65 33.8197 263.65 34.1973C263.65 34.8939 263.442 35.4831 263.025 35.9648C262.615 36.4466 262.156 36.7689 261.648 36.9316C261.141 37.0879 260.529 37.166 259.812 37.166C258.842 37.166 258.009 37.0293 257.312 36.7559C256.622 36.4759 256.176 36.2383 255.975 36.043ZM273.016 37C272.69 37 272.527 36.821 272.527 36.4629V23.5332C272.527 23.1751 272.69 22.9961 273.016 22.9961H276.824C279.038 22.9961 280.529 23.3542 281.297 24.0703C282.065 24.7865 282.449 25.6491 282.449 26.6582C282.449 27.459 282.13 28.1393 281.492 28.6992C280.854 29.2526 280.236 29.5781 279.637 29.6758V29.7051C280.294 29.7637 281.027 30.0924 281.834 30.6914C282.648 31.2839 283.055 32.0911 283.055 33.1133C283.055 34.2201 282.645 35.1445 281.824 35.8867C281.01 36.6289 279.507 37 277.312 37H273.016ZM274.402 35.3984H277C278.4 35.3984 279.425 35.2259 280.076 34.8809C280.727 34.5358 281.053 33.9271 281.053 33.0547C281.053 32.2474 280.721 31.6224 280.057 31.1797C279.399 30.737 278.38 30.5156 277 30.5156H274.402V35.3984ZM274.402 29.1094H276.854C277.941 29.1094 278.826 28.8783 279.51 28.416C280.2 27.9473 280.545 27.3613 280.545 26.6582C280.545 25.9876 280.288 25.4766 279.773 25.125C279.259 24.7734 278.286 24.5977 276.854 24.5977H274.402V29.1094ZM286.014 24.7246C285.721 24.7246 285.574 24.5781 285.574 24.2852V23.0938C285.574 22.8008 285.721 22.6543 286.014 22.6543H287.146C287.439 22.6543 287.586 22.8008 287.586 23.0938V24.2852C287.586 24.9688 287.511 25.5677 287.361 26.082C287.218 26.5898 286.932 27.0358 286.502 27.4199C286.359 27.5436 286.238 27.5599 286.141 27.4688L285.701 27.0586C285.604 26.9674 285.626 26.8568 285.77 26.7266C285.991 26.5312 286.17 26.2513 286.307 25.8867C286.45 25.5156 286.521 25.1283 286.521 24.7246H286.014ZM291.141 37C290.815 37 290.652 36.821 290.652 36.4629V23.5332C290.652 23.1751 290.815 22.9961 291.141 22.9961H294.949C297.163 22.9961 298.654 23.3542 299.422 24.0703C300.19 24.7865 300.574 25.6491 300.574 26.6582C300.574 27.459 300.255 28.1393 299.617 28.6992C298.979 29.2526 298.361 29.5781 297.762 29.6758V29.7051C298.419 29.7637 299.152 30.0924 299.959 30.6914C300.773 31.2839 301.18 32.0911 301.18 33.1133C301.18 34.2201 300.77 35.1445 299.949 35.8867C299.135 36.6289 297.632 37 295.438 37H291.141ZM292.527 35.3984H295.125C296.525 35.3984 297.55 35.2259 298.201 34.8809C298.852 34.5358 299.178 33.9271 299.178 33.0547C299.178 32.2474 298.846 31.6224 298.182 31.1797C297.524 30.737 296.505 30.5156 295.125 30.5156H292.527V35.3984ZM292.527 29.1094H294.979C296.066 29.1094 296.951 28.8783 297.635 28.416C298.325 27.9473 298.67 27.3613 298.67 26.6582C298.67 25.9876 298.413 25.4766 297.898 25.125C297.384 24.7734 296.411 24.5977 294.979 24.5977H292.527V29.1094ZM304.139 24.7246C303.846 24.7246 303.699 24.5781 303.699 24.2852V23.0938C303.699 22.8008 303.846 22.6543 304.139 22.6543H305.271C305.564 22.6543 305.711 22.8008 305.711 23.0938V24.2852C305.711 24.9688 305.636 25.5677 305.486 26.082C305.343 26.5898 305.057 27.0358 304.627 27.4199C304.484 27.5436 304.363 27.5599 304.266 27.4688L303.826 27.0586C303.729 26.9674 303.751 26.8568 303.895 26.7266C304.116 26.5312 304.295 26.2513 304.432 25.8867C304.575 25.5156 304.646 25.1283 304.646 24.7246H304.139ZM309.266 37C308.94 37 308.777 36.821 308.777 36.4629V23.5332C308.777 23.1751 308.94 22.9961 309.266 22.9961H313.074C315.288 22.9961 316.779 23.3542 317.547 24.0703C318.315 24.7865 318.699 25.6491 318.699 26.6582C318.699 27.459 318.38 28.1393 317.742 28.6992C317.104 29.2526 316.486 29.5781 315.887 29.6758V29.7051C316.544 29.7637 317.277 30.0924 318.084 30.6914C318.898 31.2839 319.305 32.0911 319.305 33.1133C319.305 34.2201 318.895 35.1445 318.074 35.8867C317.26 36.6289 315.757 37 313.562 37H309.266ZM310.652 35.3984H313.25C314.65 35.3984 315.675 35.2259 316.326 34.8809C316.977 34.5358 317.303 33.9271 317.303 33.0547C317.303 32.2474 316.971 31.6224 316.307 31.1797C315.649 30.737 314.63 30.5156 313.25 30.5156H310.652V35.3984ZM310.652 29.1094H313.104C314.191 29.1094 315.076 28.8783 315.76 28.416C316.45 27.9473 316.795 27.3613 316.795 26.6582C316.795 25.9876 316.538 25.4766 316.023 25.125C315.509 24.7734 314.536 24.5977 313.104 24.5977H310.652V29.1094Z" fill="black"/>
</g>
</svg>
