<svg width="297" height="96" viewBox="0 0 297 96" fill="none" xmlns="http://www.w3.org/2000/svg">
<rect x="20" y="19" width="20" height="19" fill="#D9D9D9"/>
<rect x="20.5" y="19.5" width="19" height="18" fill="#D9D9D9" stroke="black"/>
<rect x="40.5" y="57.5" width="19" height="18" fill="#D9D9D9" stroke="black"/>
<rect x="20" y="38" width="20" height="19" fill="#D9D9D9"/>
<rect x="20" y="38" width="20" height="19" fill="#D9D9D9"/>
<rect x="20.5" y="38.5" width="19" height="18" fill="#D9D9D9" stroke="black"/>
<rect x="20.5" y="57.5" width="19" height="18" fill="#D9D9D9" stroke="black"/>
<rect x="20.5" y="76.5" width="19" height="18" fill="#D9D9D9" stroke="black"/>
<rect x="0.5" y="57.5" width="19" height="18" fill="#D9D9D9" stroke="black"/>
<path d="M49.5902 70.06C49.0302 70.06 48.5262 69.94 48.0782 69.7C47.6382 69.452 47.2902 69.116 47.0342 68.692C46.7782 68.268 46.6502 67.788 46.6502 67.252C46.6502 67.116 46.6902 67 46.7702 66.904C46.8502 66.808 46.9582 66.76 47.0942 66.76C47.2302 66.76 47.3382 66.808 47.4182 66.904C47.4982 67 47.5382 67.116 47.5382 67.252C47.5382 67.62 47.6262 67.952 47.8022 68.248C47.9782 68.536 48.2182 68.768 48.5222 68.944C48.8342 69.112 49.1782 69.196 49.5542 69.196C50.1782 69.196 50.6662 69.024 51.0182 68.68C51.3702 68.328 51.5462 67.876 51.5462 67.324C51.5462 66.932 51.4622 66.592 51.2942 66.304C51.1262 66.008 50.8982 65.78 50.6102 65.62C50.3222 65.452 49.9982 65.368 49.6382 65.368C49.5102 65.368 49.4022 65.324 49.3142 65.236C49.2262 65.148 49.1822 65.036 49.1822 64.9C49.1822 64.772 49.2262 64.664 49.3142 64.576C49.4022 64.488 49.5102 64.444 49.6382 64.444C49.9182 64.444 50.1742 64.376 50.4062 64.24C50.6462 64.096 50.8382 63.908 50.9822 63.676C51.1262 63.444 51.1982 63.188 51.1982 62.908C51.1982 62.484 51.0542 62.132 50.7662 61.852C50.4782 61.564 50.0942 61.42 49.6142 61.42C49.2782 61.42 48.9782 61.488 48.7142 61.624C48.4502 61.752 48.2422 61.928 48.0902 62.152C47.9462 62.368 47.8742 62.616 47.8742 62.896C47.8742 63.032 47.8302 63.148 47.7422 63.244C47.6622 63.332 47.5582 63.376 47.4302 63.376C47.2942 63.376 47.1862 63.332 47.1062 63.244C47.0262 63.148 46.9862 63.036 46.9862 62.908C46.9862 62.468 47.0982 62.072 47.3222 61.72C47.5542 61.36 47.8662 61.08 48.2582 60.88C48.6502 60.672 49.1022 60.568 49.6142 60.568C50.0782 60.568 50.4942 60.672 50.8622 60.88C51.2382 61.08 51.5342 61.36 51.7502 61.72C51.9742 62.072 52.0862 62.468 52.0862 62.908C52.0862 63.18 52.0182 63.444 51.8822 63.7C51.7542 63.956 51.5822 64.188 51.3662 64.396C51.1502 64.596 50.9142 64.752 50.6582 64.864C51.0662 64.984 51.4062 65.168 51.6782 65.416C51.9502 65.664 52.1502 65.956 52.2782 66.292C52.4062 66.62 52.4702 66.964 52.4702 67.324C52.4702 67.852 52.3422 68.324 52.0862 68.74C51.8382 69.148 51.4942 69.472 51.0542 69.712C50.6142 69.944 50.1262 70.06 49.5902 70.06Z" fill="black"/>
<path d="M29.5902 89.06C29.0302 89.06 28.5262 88.94 28.0782 88.7C27.6382 88.452 27.2902 88.116 27.0342 87.692C26.7782 87.268 26.6502 86.788 26.6502 86.252C26.6502 86.116 26.6902 86 26.7702 85.904C26.8502 85.808 26.9582 85.76 27.0942 85.76C27.2302 85.76 27.3382 85.808 27.4182 85.904C27.4982 86 27.5382 86.116 27.5382 86.252C27.5382 86.62 27.6262 86.952 27.8022 87.248C27.9782 87.536 28.2182 87.768 28.5222 87.944C28.8342 88.112 29.1782 88.196 29.5542 88.196C30.1782 88.196 30.6662 88.024 31.0182 87.68C31.3702 87.328 31.5462 86.876 31.5462 86.324C31.5462 85.932 31.4622 85.592 31.2942 85.304C31.1262 85.008 30.8982 84.78 30.6102 84.62C30.3222 84.452 29.9982 84.368 29.6382 84.368C29.5102 84.368 29.4022 84.324 29.3142 84.236C29.2262 84.148 29.1822 84.036 29.1822 83.9C29.1822 83.772 29.2262 83.664 29.3142 83.576C29.4022 83.488 29.5102 83.444 29.6382 83.444C29.9182 83.444 30.1742 83.376 30.4062 83.24C30.6462 83.096 30.8382 82.908 30.9822 82.676C31.1262 82.444 31.1982 82.188 31.1982 81.908C31.1982 81.484 31.0542 81.132 30.7662 80.852C30.4782 80.564 30.0942 80.42 29.6142 80.42C29.2782 80.42 28.9782 80.488 28.7142 80.624C28.4502 80.752 28.2422 80.928 28.0902 81.152C27.9462 81.368 27.8742 81.616 27.8742 81.896C27.8742 82.032 27.8302 82.148 27.7422 82.244C27.6622 82.332 27.5582 82.376 27.4302 82.376C27.2942 82.376 27.1862 82.332 27.1062 82.244C27.0262 82.148 26.9862 82.036 26.9862 81.908C26.9862 81.468 27.0982 81.072 27.3222 80.72C27.5542 80.36 27.8662 80.08 28.2582 79.88C28.6502 79.672 29.1022 79.568 29.6142 79.568C30.0782 79.568 30.4942 79.672 30.8622 79.88C31.2382 80.08 31.5342 80.36 31.7502 80.72C31.9742 81.072 32.0862 81.468 32.0862 81.908C32.0862 82.18 32.0182 82.444 31.8822 82.7C31.7542 82.956 31.5822 83.188 31.3662 83.396C31.1502 83.596 30.9142 83.752 30.6582 83.864C31.0662 83.984 31.4062 84.168 31.6782 84.416C31.9502 84.664 32.1502 84.956 32.2782 85.292C32.4062 85.62 32.4702 85.964 32.4702 86.324C32.4702 86.852 32.3422 87.324 32.0862 87.74C31.8382 88.148 31.4942 88.472 31.0542 88.712C30.6142 88.944 30.1262 89.06 29.5902 89.06Z" fill="black"/>
<path d="M9.59023 71.06C9.03023 71.06 8.52623 70.94 8.07823 70.7C7.63823 70.452 7.29023 70.116 7.03423 69.692C6.77823 69.268 6.65023 68.788 6.65023 68.252C6.65023 68.116 6.69023 68 6.77023 67.904C6.85023 67.808 6.95823 67.76 7.09423 67.76C7.23023 67.76 7.33823 67.808 7.41823 67.904C7.49823 68 7.53823 68.116 7.53823 68.252C7.53823 68.62 7.62623 68.952 7.80223 69.248C7.97823 69.536 8.21823 69.768 8.52223 69.944C8.83423 70.112 9.17823 70.196 9.55423 70.196C10.1782 70.196 10.6662 70.024 11.0182 69.68C11.3702 69.328 11.5462 68.876 11.5462 68.324C11.5462 67.932 11.4622 67.592 11.2942 67.304C11.1262 67.008 10.8982 66.78 10.6102 66.62C10.3222 66.452 9.99823 66.368 9.63823 66.368C9.51023 66.368 9.40223 66.324 9.31423 66.236C9.22623 66.148 9.18223 66.036 9.18223 65.9C9.18223 65.772 9.22623 65.664 9.31423 65.576C9.40223 65.488 9.51023 65.444 9.63823 65.444C9.91823 65.444 10.1742 65.376 10.4062 65.24C10.6462 65.096 10.8382 64.908 10.9822 64.676C11.1262 64.444 11.1982 64.188 11.1982 63.908C11.1982 63.484 11.0542 63.132 10.7662 62.852C10.4782 62.564 10.0942 62.42 9.61423 62.42C9.27823 62.42 8.97823 62.488 8.71423 62.624C8.45023 62.752 8.24223 62.928 8.09023 63.152C7.94623 63.368 7.87423 63.616 7.87423 63.896C7.87423 64.032 7.83023 64.148 7.74223 64.244C7.66223 64.332 7.55823 64.376 7.43023 64.376C7.29423 64.376 7.18623 64.332 7.10623 64.244C7.02623 64.148 6.98623 64.036 6.98623 63.908C6.98623 63.468 7.09823 63.072 7.32223 62.72C7.55423 62.36 7.86623 62.08 8.25823 61.88C8.65023 61.672 9.10223 61.568 9.61423 61.568C10.0782 61.568 10.4942 61.672 10.8622 61.88C11.2382 62.08 11.5342 62.36 11.7502 62.72C11.9742 63.072 12.0862 63.468 12.0862 63.908C12.0862 64.18 12.0182 64.444 11.8822 64.7C11.7542 64.956 11.5822 65.188 11.3662 65.396C11.1502 65.596 10.9142 65.752 10.6582 65.864C11.0662 65.984 11.4062 66.168 11.6782 66.416C11.9502 66.664 12.1502 66.956 12.2782 67.292C12.4062 67.62 12.4702 67.964 12.4702 68.324C12.4702 68.852 12.3422 69.324 12.0862 69.74C11.8382 70.148 11.4942 70.472 11.0542 70.712C10.6142 70.944 10.1262 71.06 9.59023 71.06Z" fill="black"/>
<path d="M29.5902 70.06C29.0302 70.06 28.5262 69.94 28.0782 69.7C27.6382 69.452 27.2902 69.116 27.0342 68.692C26.7782 68.268 26.6502 67.788 26.6502 67.252C26.6502 67.116 26.6902 67 26.7702 66.904C26.8502 66.808 26.9582 66.76 27.0942 66.76C27.2302 66.76 27.3382 66.808 27.4182 66.904C27.4982 67 27.5382 67.116 27.5382 67.252C27.5382 67.62 27.6262 67.952 27.8022 68.248C27.9782 68.536 28.2182 68.768 28.5222 68.944C28.8342 69.112 29.1782 69.196 29.5542 69.196C30.1782 69.196 30.6662 69.024 31.0182 68.68C31.3702 68.328 31.5462 67.876 31.5462 67.324C31.5462 66.932 31.4622 66.592 31.2942 66.304C31.1262 66.008 30.8982 65.78 30.6102 65.62C30.3222 65.452 29.9982 65.368 29.6382 65.368C29.5102 65.368 29.4022 65.324 29.3142 65.236C29.2262 65.148 29.1822 65.036 29.1822 64.9C29.1822 64.772 29.2262 64.664 29.3142 64.576C29.4022 64.488 29.5102 64.444 29.6382 64.444C29.9182 64.444 30.1742 64.376 30.4062 64.24C30.6462 64.096 30.8382 63.908 30.9822 63.676C31.1262 63.444 31.1982 63.188 31.1982 62.908C31.1982 62.484 31.0542 62.132 30.7662 61.852C30.4782 61.564 30.0942 61.42 29.6142 61.42C29.2782 61.42 28.9782 61.488 28.7142 61.624C28.4502 61.752 28.2422 61.928 28.0902 62.152C27.9462 62.368 27.8742 62.616 27.8742 62.896C27.8742 63.032 27.8302 63.148 27.7422 63.244C27.6622 63.332 27.5582 63.376 27.4302 63.376C27.2942 63.376 27.1862 63.332 27.1062 63.244C27.0262 63.148 26.9862 63.036 26.9862 62.908C26.9862 62.468 27.0982 62.072 27.3222 61.72C27.5542 61.36 27.8662 61.08 28.2582 60.88C28.6502 60.672 29.1022 60.568 29.6142 60.568C30.0782 60.568 30.4942 60.672 30.8622 60.88C31.2382 61.08 31.5342 61.36 31.7502 61.72C31.9742 62.072 32.0862 62.468 32.0862 62.908C32.0862 63.18 32.0182 63.444 31.8822 63.7C31.7542 63.956 31.5822 64.188 31.3662 64.396C31.1502 64.596 30.9142 64.752 30.6582 64.864C31.0662 64.984 31.4062 65.168 31.6782 65.416C31.9502 65.664 32.1502 65.956 32.2782 66.292C32.4062 66.62 32.4702 66.964 32.4702 67.324C32.4702 67.852 32.3422 68.324 32.0862 68.74C31.8382 69.148 31.4942 69.472 31.0542 69.712C30.6142 69.944 30.1262 70.06 29.5902 70.06Z" fill="black"/>
<path d="M29.5902 34.06C29.0302 34.06 28.5262 33.94 28.0782 33.7C27.6382 33.452 27.2902 33.116 27.0342 32.692C26.7782 32.268 26.6502 31.788 26.6502 31.252C26.6502 31.116 26.6902 31 26.7702 30.904C26.8502 30.808 26.9582 30.76 27.0942 30.76C27.2302 30.76 27.3382 30.808 27.4182 30.904C27.4982 31 27.5382 31.116 27.5382 31.252C27.5382 31.62 27.6262 31.952 27.8022 32.248C27.9782 32.536 28.2182 32.768 28.5222 32.944C28.8342 33.112 29.1782 33.196 29.5542 33.196C30.1782 33.196 30.6662 33.024 31.0182 32.68C31.3702 32.328 31.5462 31.876 31.5462 31.324C31.5462 30.932 31.4622 30.592 31.2942 30.304C31.1262 30.008 30.8982 29.78 30.6102 29.62C30.3222 29.452 29.9982 29.368 29.6382 29.368C29.5102 29.368 29.4022 29.324 29.3142 29.236C29.2262 29.148 29.1822 29.036 29.1822 28.9C29.1822 28.772 29.2262 28.664 29.3142 28.576C29.4022 28.488 29.5102 28.444 29.6382 28.444C29.9182 28.444 30.1742 28.376 30.4062 28.24C30.6462 28.096 30.8382 27.908 30.9822 27.676C31.1262 27.444 31.1982 27.188 31.1982 26.908C31.1982 26.484 31.0542 26.132 30.7662 25.852C30.4782 25.564 30.0942 25.42 29.6142 25.42C29.2782 25.42 28.9782 25.488 28.7142 25.624C28.4502 25.752 28.2422 25.928 28.0902 26.152C27.9462 26.368 27.8742 26.616 27.8742 26.896C27.8742 27.032 27.8302 27.148 27.7422 27.244C27.6622 27.332 27.5582 27.376 27.4302 27.376C27.2942 27.376 27.1862 27.332 27.1062 27.244C27.0262 27.148 26.9862 27.036 26.9862 26.908C26.9862 26.468 27.0982 26.072 27.3222 25.72C27.5542 25.36 27.8662 25.08 28.2582 24.88C28.6502 24.672 29.1022 24.568 29.6142 24.568C30.0782 24.568 30.4942 24.672 30.8622 24.88C31.2382 25.08 31.5342 25.36 31.7502 25.72C31.9742 26.072 32.0862 26.468 32.0862 26.908C32.0862 27.18 32.0182 27.444 31.8822 27.7C31.7542 27.956 31.5822 28.188 31.3662 28.396C31.1502 28.596 30.9142 28.752 30.6582 28.864C31.0662 28.984 31.4062 29.168 31.6782 29.416C31.9502 29.664 32.1502 29.956 32.2782 30.292C32.4062 30.62 32.4702 30.964 32.4702 31.324C32.4702 31.852 32.3422 32.324 32.0862 32.74C31.8382 33.148 31.4942 33.472 31.0542 33.712C30.6142 33.944 30.1262 34.06 29.5902 34.06Z" fill="black"/>
<path d="M29.5902 53.06C29.0302 53.06 28.5262 52.94 28.0782 52.7C27.6382 52.452 27.2902 52.116 27.0342 51.692C26.7782 51.268 26.6502 50.788 26.6502 50.252C26.6502 50.116 26.6902 50 26.7702 49.904C26.8502 49.808 26.9582 49.76 27.0942 49.76C27.2302 49.76 27.3382 49.808 27.4182 49.904C27.4982 50 27.5382 50.116 27.5382 50.252C27.5382 50.62 27.6262 50.952 27.8022 51.248C27.9782 51.536 28.2182 51.768 28.5222 51.944C28.8342 52.112 29.1782 52.196 29.5542 52.196C30.1782 52.196 30.6662 52.024 31.0182 51.68C31.3702 51.328 31.5462 50.876 31.5462 50.324C31.5462 49.932 31.4622 49.592 31.2942 49.304C31.1262 49.008 30.8982 48.78 30.6102 48.62C30.3222 48.452 29.9982 48.368 29.6382 48.368C29.5102 48.368 29.4022 48.324 29.3142 48.236C29.2262 48.148 29.1822 48.036 29.1822 47.9C29.1822 47.772 29.2262 47.664 29.3142 47.576C29.4022 47.488 29.5102 47.444 29.6382 47.444C29.9182 47.444 30.1742 47.376 30.4062 47.24C30.6462 47.096 30.8382 46.908 30.9822 46.676C31.1262 46.444 31.1982 46.188 31.1982 45.908C31.1982 45.484 31.0542 45.132 30.7662 44.852C30.4782 44.564 30.0942 44.42 29.6142 44.42C29.2782 44.42 28.9782 44.488 28.7142 44.624C28.4502 44.752 28.2422 44.928 28.0902 45.152C27.9462 45.368 27.8742 45.616 27.8742 45.896C27.8742 46.032 27.8302 46.148 27.7422 46.244C27.6622 46.332 27.5582 46.376 27.4302 46.376C27.2942 46.376 27.1862 46.332 27.1062 46.244C27.0262 46.148 26.9862 46.036 26.9862 45.908C26.9862 45.468 27.0982 45.072 27.3222 44.72C27.5542 44.36 27.8662 44.08 28.2582 43.88C28.6502 43.672 29.1022 43.568 29.6142 43.568C30.0782 43.568 30.4942 43.672 30.8622 43.88C31.2382 44.08 31.5342 44.36 31.7502 44.72C31.9742 45.072 32.0862 45.468 32.0862 45.908C32.0862 46.18 32.0182 46.444 31.8822 46.7C31.7542 46.956 31.5822 47.188 31.3662 47.396C31.1502 47.596 30.9142 47.752 30.6582 47.864C31.0662 47.984 31.4062 48.168 31.6782 48.416C31.9502 48.664 32.1502 48.956 32.2782 49.292C32.4062 49.62 32.4702 49.964 32.4702 50.324C32.4702 50.852 32.3422 51.324 32.0862 51.74C31.8382 52.148 31.4942 52.472 31.0542 52.712C30.6142 52.944 30.1262 53.06 29.5902 53.06Z" fill="black"/>
<rect x="257" y="20" width="20" height="19" fill="#D9D9D9"/>
<rect x="257.5" y="20.5" width="19" height="18" fill="#D9D9D9" stroke="black"/>
<rect x="277.5" y="58.5" width="19" height="18" fill="#D9D9D9" stroke="black"/>
<rect x="257" y="39" width="20" height="19" fill="#D9D9D9"/>
<rect x="257" y="39" width="20" height="19" fill="#D9D9D9"/>
<rect x="257.5" y="39.5" width="19" height="18" fill="#D9D9D9" stroke="black"/>
<rect x="257.5" y="58.5" width="19" height="18" fill="#D9D9D9" stroke="black"/>
<rect x="257.5" y="77.5" width="19" height="18" fill="#D9D9D9" stroke="black"/>
<rect x="237.5" y="58.5" width="19" height="18" fill="#D9D9D9" stroke="black"/>
<path d="M284.334 71C284.206 71 284.094 70.956 283.998 70.868C283.91 70.78 283.866 70.668 283.866 70.532C283.866 70.412 283.91 70.304 283.998 70.208L287.634 65.912C287.834 65.696 287.994 65.456 288.114 65.192C288.234 64.92 288.294 64.668 288.294 64.436C288.294 64.06 288.218 63.728 288.066 63.44C287.922 63.152 287.714 62.928 287.442 62.768C287.178 62.6 286.874 62.516 286.53 62.516C286.194 62.516 285.886 62.604 285.606 62.78C285.334 62.948 285.118 63.176 284.958 63.464C284.806 63.752 284.73 64.076 284.73 64.436C284.73 64.564 284.686 64.672 284.598 64.76C284.51 64.848 284.398 64.892 284.262 64.892C284.134 64.892 284.022 64.848 283.926 64.76C283.838 64.672 283.794 64.564 283.794 64.436C283.794 63.9 283.914 63.42 284.154 62.996C284.394 62.572 284.718 62.236 285.126 61.988C285.542 61.74 286.01 61.616 286.53 61.616C287.05 61.616 287.51 61.736 287.91 61.976C288.318 62.216 288.634 62.548 288.858 62.972C289.09 63.396 289.206 63.884 289.206 64.436C289.206 64.7 289.162 64.952 289.074 65.192C288.994 65.432 288.882 65.664 288.738 65.888C288.594 66.104 288.438 66.308 288.27 66.5L285.198 70.064H288.954C289.082 70.064 289.19 70.112 289.278 70.208C289.374 70.304 289.422 70.412 289.422 70.532C289.422 70.668 289.374 70.78 289.278 70.868C289.19 70.956 289.082 71 288.954 71H284.334Z" fill="black"/>
<path d="M264.334 90C264.206 90 264.094 89.956 263.998 89.868C263.91 89.78 263.866 89.668 263.866 89.532C263.866 89.412 263.91 89.304 263.998 89.208L267.634 84.912C267.834 84.696 267.994 84.456 268.114 84.192C268.234 83.92 268.294 83.668 268.294 83.436C268.294 83.06 268.218 82.728 268.066 82.44C267.922 82.152 267.714 81.928 267.442 81.768C267.178 81.6 266.874 81.516 266.53 81.516C266.194 81.516 265.886 81.604 265.606 81.78C265.334 81.948 265.118 82.176 264.958 82.464C264.806 82.752 264.73 83.076 264.73 83.436C264.73 83.564 264.686 83.672 264.598 83.76C264.51 83.848 264.398 83.892 264.262 83.892C264.134 83.892 264.022 83.848 263.926 83.76C263.838 83.672 263.794 83.564 263.794 83.436C263.794 82.9 263.914 82.42 264.154 81.996C264.394 81.572 264.718 81.236 265.126 80.988C265.542 80.74 266.01 80.616 266.53 80.616C267.05 80.616 267.51 80.736 267.91 80.976C268.318 81.216 268.634 81.548 268.858 81.972C269.09 82.396 269.206 82.884 269.206 83.436C269.206 83.7 269.162 83.952 269.074 84.192C268.994 84.432 268.882 84.664 268.738 84.888C268.594 85.104 268.438 85.308 268.27 85.5L265.198 89.064H268.954C269.082 89.064 269.19 89.112 269.278 89.208C269.374 89.304 269.422 89.412 269.422 89.532C269.422 89.668 269.374 89.78 269.278 89.868C269.19 89.956 269.082 90 268.954 90H264.334Z" fill="black"/>
<path d="M246.625 72C246.081 72 245.597 71.88 245.173 71.64C244.749 71.392 244.413 71.056 244.165 70.632C243.925 70.208 243.805 69.724 243.805 69.18C243.805 68.644 243.925 68.164 244.165 67.74C244.413 67.308 244.749 66.972 245.173 66.732C245.597 66.484 246.081 66.36 246.625 66.36C247.161 66.36 247.641 66.484 248.065 66.732C248.489 66.972 248.821 67.308 249.061 67.74C249.309 68.164 249.433 68.644 249.433 69.18C249.433 69.724 249.309 70.208 249.061 70.632C248.821 71.056 248.489 71.392 248.065 71.64C247.641 71.88 247.161 72 246.625 72ZM246.613 71.136C246.981 71.136 247.309 71.052 247.597 70.884C247.893 70.716 248.125 70.484 248.293 70.188C248.461 69.892 248.545 69.556 248.545 69.18C248.545 68.804 248.461 68.468 248.293 68.172C248.125 67.876 247.893 67.644 247.597 67.476C247.309 67.3 246.981 67.212 246.613 67.212C246.245 67.212 245.917 67.3 245.629 67.476C245.341 67.644 245.113 67.876 244.945 68.172C244.777 68.468 244.693 68.804 244.693 69.18C244.693 69.556 244.777 69.892 244.945 70.188C245.113 70.484 245.341 70.716 245.629 70.884C245.917 71.052 246.245 71.136 246.613 71.136ZM244.153 67.752L247.117 62.88C247.221 62.712 247.361 62.628 247.537 62.628C247.657 62.628 247.761 62.664 247.849 62.736C247.937 62.808 247.989 62.9 248.005 63.012C248.029 63.124 248.009 63.232 247.945 63.336L245.965 66.564L244.153 67.752Z" fill="black"/>
<path d="M266.625 71C266.081 71 265.597 70.88 265.173 70.64C264.749 70.392 264.413 70.056 264.165 69.632C263.925 69.208 263.805 68.724 263.805 68.18C263.805 67.644 263.925 67.164 264.165 66.74C264.413 66.308 264.749 65.972 265.173 65.732C265.597 65.484 266.081 65.36 266.625 65.36C267.161 65.36 267.641 65.484 268.065 65.732C268.489 65.972 268.821 66.308 269.061 66.74C269.309 67.164 269.433 67.644 269.433 68.18C269.433 68.724 269.309 69.208 269.061 69.632C268.821 70.056 268.489 70.392 268.065 70.64C267.641 70.88 267.161 71 266.625 71ZM266.613 70.136C266.981 70.136 267.309 70.052 267.597 69.884C267.893 69.716 268.125 69.484 268.293 69.188C268.461 68.892 268.545 68.556 268.545 68.18C268.545 67.804 268.461 67.468 268.293 67.172C268.125 66.876 267.893 66.644 267.597 66.476C267.309 66.3 266.981 66.212 266.613 66.212C266.245 66.212 265.917 66.3 265.629 66.476C265.341 66.644 265.113 66.876 264.945 67.172C264.777 67.468 264.693 67.804 264.693 68.18C264.693 68.556 264.777 68.892 264.945 69.188C265.113 69.484 265.341 69.716 265.629 69.884C265.917 70.052 266.245 70.136 266.613 70.136ZM264.153 66.752L267.117 61.88C267.221 61.712 267.361 61.628 267.537 61.628C267.657 61.628 267.761 61.664 267.849 61.736C267.937 61.808 267.989 61.9 268.005 62.012C268.029 62.124 268.009 62.232 267.945 62.336L265.965 65.564L264.153 66.752Z" fill="black"/>
<path d="M264.334 54C264.206 54 264.094 53.956 263.998 53.868C263.91 53.78 263.866 53.668 263.866 53.532C263.866 53.412 263.91 53.304 263.998 53.208L267.634 48.912C267.834 48.696 267.994 48.456 268.114 48.192C268.234 47.92 268.294 47.668 268.294 47.436C268.294 47.06 268.218 46.728 268.066 46.44C267.922 46.152 267.714 45.928 267.442 45.768C267.178 45.6 266.874 45.516 266.53 45.516C266.194 45.516 265.886 45.604 265.606 45.78C265.334 45.948 265.118 46.176 264.958 46.464C264.806 46.752 264.73 47.076 264.73 47.436C264.73 47.564 264.686 47.672 264.598 47.76C264.51 47.848 264.398 47.892 264.262 47.892C264.134 47.892 264.022 47.848 263.926 47.76C263.838 47.672 263.794 47.564 263.794 47.436C263.794 46.9 263.914 46.42 264.154 45.996C264.394 45.572 264.718 45.236 265.126 44.988C265.542 44.74 266.01 44.616 266.53 44.616C267.05 44.616 267.51 44.736 267.91 44.976C268.318 45.216 268.634 45.548 268.858 45.972C269.09 46.396 269.206 46.884 269.206 47.436C269.206 47.7 269.162 47.952 269.074 48.192C268.994 48.432 268.882 48.664 268.738 48.888C268.594 49.104 268.438 49.308 268.27 49.5L265.198 53.064H268.954C269.082 53.064 269.19 53.112 269.278 53.208C269.374 53.304 269.422 53.412 269.422 53.532C269.422 53.668 269.374 53.78 269.278 53.868C269.19 53.956 269.082 54 268.954 54H264.334Z" fill="black"/>
<path d="M264.334 35C264.206 35 264.094 34.956 263.998 34.868C263.91 34.78 263.866 34.668 263.866 34.532C263.866 34.412 263.91 34.304 263.998 34.208L267.634 29.912C267.834 29.696 267.994 29.456 268.114 29.192C268.234 28.92 268.294 28.668 268.294 28.436C268.294 28.06 268.218 27.728 268.066 27.44C267.922 27.152 267.714 26.928 267.442 26.768C267.178 26.6 266.874 26.516 266.53 26.516C266.194 26.516 265.886 26.604 265.606 26.78C265.334 26.948 265.118 27.176 264.958 27.464C264.806 27.752 264.73 28.076 264.73 28.436C264.73 28.564 264.686 28.672 264.598 28.76C264.51 28.848 264.398 28.892 264.262 28.892C264.134 28.892 264.022 28.848 263.926 28.76C263.838 28.672 263.794 28.564 263.794 28.436C263.794 27.9 263.914 27.42 264.154 26.996C264.394 26.572 264.718 26.236 265.126 25.988C265.542 25.74 266.01 25.616 266.53 25.616C267.05 25.616 267.51 25.736 267.91 25.976C268.318 26.216 268.634 26.548 268.858 26.972C269.09 27.396 269.206 27.884 269.206 28.436C269.206 28.7 269.162 28.952 269.074 29.192C268.994 29.432 268.882 29.664 268.738 29.888C268.594 30.104 268.438 30.308 268.27 30.5L265.198 34.064H268.954C269.082 34.064 269.19 34.112 269.278 34.208C269.374 34.304 269.422 34.412 269.422 34.532C269.422 34.668 269.374 34.78 269.278 34.868C269.19 34.956 269.082 35 268.954 35H264.334Z" fill="black"/>
<path d="M263.674 10C263.546 10 263.434 9.956 263.338 9.868C263.25 9.772 263.206 9.66 263.206 9.532V1.096C263.206 0.959999 263.25 0.847999 263.338 0.76C263.426 0.672 263.538 0.628 263.674 0.628H269.302C269.438 0.628 269.55 0.672 269.638 0.76C269.726 0.839999 269.77 0.947999 269.77 1.084C269.77 1.204 269.726 1.308 269.638 1.396C269.55 1.484 269.438 1.528 269.302 1.528H264.142V4.84H267.898C268.034 4.84 268.146 4.884 268.234 4.972C268.322 5.06 268.366 5.168 268.366 5.296C268.366 5.424 268.322 5.532 268.234 5.62C268.146 5.708 268.034 5.752 267.898 5.752H264.142V9.532C264.142 9.66 264.098 9.772 264.01 9.868C263.922 9.956 263.81 10 263.674 10Z" fill="black"/>
<path d="M187.014 11C186.878 11 186.766 10.956 186.678 10.868C186.59 10.78 186.546 10.668 186.546 10.532V2.096C186.546 1.96 186.59 1.848 186.678 1.76C186.766 1.672 186.878 1.628 187.014 1.628H192.642C192.77 1.628 192.878 1.672 192.966 1.76C193.062 1.84 193.11 1.948 193.11 2.084C193.11 2.204 193.062 2.308 192.966 2.396C192.878 2.484 192.77 2.528 192.642 2.528H187.482V5.84H191.238C191.374 5.84 191.486 5.884 191.574 5.972C191.662 6.06 191.706 6.168 191.706 6.296C191.706 6.424 191.662 6.532 191.574 6.62C191.486 6.708 191.374 6.752 191.238 6.752H187.482V10.1H192.642C192.77 10.1 192.878 10.144 192.966 10.232C193.062 10.32 193.11 10.424 193.11 10.544C193.11 10.68 193.062 10.792 192.966 10.88C192.878 10.96 192.77 11 192.642 11H187.014Z" fill="black"/>
<path d="M31.3065 10.12C30.6585 10.12 30.0505 9.996 29.4825 9.748C28.9225 9.5 28.4265 9.156 27.9945 8.716C27.5705 8.268 27.2385 7.756 26.9985 7.18C26.7585 6.596 26.6385 5.972 26.6385 5.308C26.6385 4.652 26.7545 4.036 26.9865 3.46C27.2265 2.876 27.5585 2.364 27.9825 1.924C28.4145 1.484 28.9105 1.14 29.4705 0.891999C30.0385 0.636 30.6505 0.508 31.3065 0.508C31.8825 0.508 32.4065 0.592 32.8785 0.76C33.3505 0.928 33.8065 1.196 34.2465 1.564C34.3185 1.62 34.3585 1.688 34.3665 1.768C34.3825 1.84 34.3745 1.912 34.3425 1.984C34.3105 2.048 34.2625 2.096 34.1985 2.128C34.1825 2.192 34.1425 2.24 34.0785 2.272C34.0145 2.304 33.9385 2.316 33.8505 2.308C33.7705 2.3 33.6905 2.264 33.6105 2.2C33.2985 1.928 32.9585 1.728 32.5905 1.6C32.2225 1.464 31.7945 1.396 31.3065 1.396C30.7865 1.396 30.2985 1.5 29.8425 1.708C29.3945 1.916 28.9985 2.2 28.6545 2.56C28.3105 2.92 28.0385 3.336 27.8385 3.808C27.6465 4.28 27.5505 4.78 27.5505 5.308C27.5505 5.852 27.6465 6.36 27.8385 6.832C28.0385 7.304 28.3105 7.72 28.6545 8.08C28.9985 8.44 29.3945 8.724 29.8425 8.932C30.2985 9.132 30.7865 9.232 31.3065 9.232C31.7465 9.232 32.1625 9.16 32.5545 9.016C32.9465 8.872 33.3185 8.664 33.6705 8.392C33.7665 8.312 33.8665 8.28 33.9705 8.296C34.0825 8.312 34.1785 8.36 34.2585 8.44C34.3385 8.52 34.3785 8.624 34.3785 8.752C34.3785 8.816 34.3665 8.876 34.3425 8.932C34.3265 8.98 34.2945 9.032 34.2465 9.088C33.8385 9.464 33.3825 9.732 32.8785 9.892C32.3745 10.044 31.8505 10.12 31.3065 10.12Z" fill="black"/>
<rect x="179" y="19" width="20" height="19" fill="#D9D9D9"/>
<rect x="179.5" y="19.5" width="19" height="18" fill="#D9D9D9" stroke="black"/>
<rect x="199.5" y="57.5" width="19" height="18" fill="#D9D9D9" stroke="black"/>
<rect x="179" y="38" width="20" height="19" fill="#D9D9D9"/>
<rect x="179" y="38" width="20" height="19" fill="#D9D9D9"/>
<rect x="179.5" y="38.5" width="19" height="18" fill="#D9D9D9" stroke="black"/>
<rect x="179.5" y="57.5" width="19" height="18" fill="#D9D9D9" stroke="black"/>
<rect x="179.5" y="76.5" width="19" height="18" fill="#D9D9D9" stroke="black"/>
<rect x="159.5" y="57.5" width="19" height="18" fill="#D9D9D9" stroke="black"/>
<path d="M209.1 70C208.972 70 208.86 69.956 208.764 69.868C208.676 69.78 208.632 69.668 208.632 69.532V61.732L207.432 62.152C207.344 62.192 207.264 62.212 207.192 62.212C207.056 62.212 206.944 62.168 206.856 62.08C206.768 61.992 206.724 61.884 206.724 61.756C206.724 61.66 206.744 61.572 206.784 61.492C206.832 61.412 206.912 61.352 207.024 61.312L208.872 60.676C208.912 60.66 208.952 60.648 208.992 60.64C209.04 60.624 209.08 60.616 209.112 60.616C209.248 60.616 209.356 60.664 209.436 60.76C209.524 60.848 209.568 60.956 209.568 61.084V69.532C209.568 69.668 209.524 69.78 209.436 69.868C209.348 69.956 209.236 70 209.1 70Z" fill="black"/>
<path d="M189.1 89C188.972 89 188.86 88.956 188.764 88.868C188.676 88.78 188.632 88.668 188.632 88.532V80.732L187.432 81.152C187.344 81.192 187.264 81.212 187.192 81.212C187.056 81.212 186.944 81.168 186.856 81.08C186.768 80.992 186.724 80.884 186.724 80.756C186.724 80.66 186.744 80.572 186.784 80.492C186.832 80.412 186.912 80.352 187.024 80.312L188.872 79.676C188.912 79.66 188.952 79.648 188.992 79.64C189.04 79.624 189.08 79.616 189.112 79.616C189.248 79.616 189.356 79.664 189.436 79.76C189.524 79.848 189.568 79.956 189.568 80.084V88.532C189.568 88.668 189.524 88.78 189.436 88.868C189.348 88.956 189.236 89 189.1 89Z" fill="black"/>
<path d="M168.554 71C167.978 71 167.462 70.868 167.006 70.604C166.55 70.332 166.186 69.968 165.914 69.512C165.65 69.048 165.518 68.528 165.518 67.952C165.518 67.816 165.562 67.704 165.65 67.616C165.738 67.528 165.846 67.484 165.974 67.484C166.11 67.484 166.222 67.528 166.31 67.616C166.406 67.704 166.454 67.816 166.454 67.952C166.454 68.352 166.546 68.712 166.73 69.032C166.914 69.352 167.162 69.604 167.474 69.788C167.794 69.972 168.154 70.064 168.554 70.064C168.954 70.064 169.314 69.972 169.634 69.788C169.954 69.604 170.206 69.352 170.39 69.032C170.574 68.712 170.666 68.352 170.666 67.952C170.666 67.552 170.574 67.192 170.39 66.872C170.206 66.552 169.954 66.3 169.634 66.116C169.314 65.932 168.954 65.84 168.554 65.84H166.454C166.318 65.84 166.206 65.796 166.118 65.708C166.03 65.612 165.986 65.5 165.986 65.372V62.084C165.986 61.956 166.03 61.848 166.118 61.76C166.206 61.664 166.318 61.616 166.454 61.616H170.666C170.794 61.616 170.902 61.664 170.99 61.76C171.086 61.848 171.134 61.956 171.134 62.084C171.134 62.212 171.09 62.324 171.002 62.42C170.914 62.508 170.802 62.552 170.666 62.552H166.91V64.904H168.554C169.138 64.904 169.658 65.04 170.114 65.312C170.57 65.576 170.93 65.94 171.194 66.404C171.466 66.86 171.602 67.376 171.602 67.952C171.602 68.528 171.466 69.048 171.194 69.512C170.93 69.968 170.57 70.332 170.114 70.604C169.658 70.868 169.138 71 168.554 71Z" fill="black"/>
<path d="M188.554 70C187.978 70 187.462 69.868 187.006 69.604C186.55 69.332 186.186 68.968 185.914 68.512C185.65 68.048 185.518 67.528 185.518 66.952C185.518 66.816 185.562 66.704 185.65 66.616C185.738 66.528 185.846 66.484 185.974 66.484C186.11 66.484 186.222 66.528 186.31 66.616C186.406 66.704 186.454 66.816 186.454 66.952C186.454 67.352 186.546 67.712 186.73 68.032C186.914 68.352 187.162 68.604 187.474 68.788C187.794 68.972 188.154 69.064 188.554 69.064C188.954 69.064 189.314 68.972 189.634 68.788C189.954 68.604 190.206 68.352 190.39 68.032C190.574 67.712 190.666 67.352 190.666 66.952C190.666 66.552 190.574 66.192 190.39 65.872C190.206 65.552 189.954 65.3 189.634 65.116C189.314 64.932 188.954 64.84 188.554 64.84H186.454C186.318 64.84 186.206 64.796 186.118 64.708C186.03 64.612 185.986 64.5 185.986 64.372V61.084C185.986 60.956 186.03 60.848 186.118 60.76C186.206 60.664 186.318 60.616 186.454 60.616H190.666C190.794 60.616 190.902 60.664 190.99 60.76C191.086 60.848 191.134 60.956 191.134 61.084C191.134 61.212 191.09 61.324 191.002 61.42C190.914 61.508 190.802 61.552 190.666 61.552H186.91V63.904H188.554C189.138 63.904 189.658 64.04 190.114 64.312C190.57 64.576 190.93 64.94 191.194 65.404C191.466 65.86 191.602 66.376 191.602 66.952C191.602 67.528 191.466 68.048 191.194 68.512C190.93 68.968 190.57 69.332 190.114 69.604C189.658 69.868 189.138 70 188.554 70Z" fill="black"/>
<path d="M188.554 34C187.978 34 187.462 33.868 187.006 33.604C186.55 33.332 186.186 32.968 185.914 32.512C185.65 32.048 185.518 31.528 185.518 30.952C185.518 30.816 185.562 30.704 185.65 30.616C185.738 30.528 185.846 30.484 185.974 30.484C186.11 30.484 186.222 30.528 186.31 30.616C186.406 30.704 186.454 30.816 186.454 30.952C186.454 31.352 186.546 31.712 186.73 32.032C186.914 32.352 187.162 32.604 187.474 32.788C187.794 32.972 188.154 33.064 188.554 33.064C188.954 33.064 189.314 32.972 189.634 32.788C189.954 32.604 190.206 32.352 190.39 32.032C190.574 31.712 190.666 31.352 190.666 30.952C190.666 30.552 190.574 30.192 190.39 29.872C190.206 29.552 189.954 29.3 189.634 29.116C189.314 28.932 188.954 28.84 188.554 28.84H186.454C186.318 28.84 186.206 28.796 186.118 28.708C186.03 28.612 185.986 28.5 185.986 28.372V25.084C185.986 24.956 186.03 24.848 186.118 24.76C186.206 24.664 186.318 24.616 186.454 24.616H190.666C190.794 24.616 190.902 24.664 190.99 24.76C191.086 24.848 191.134 24.956 191.134 25.084C191.134 25.212 191.09 25.324 191.002 25.42C190.914 25.508 190.802 25.552 190.666 25.552H186.91V27.904H188.554C189.138 27.904 189.658 28.04 190.114 28.312C190.57 28.576 190.93 28.94 191.194 29.404C191.466 29.86 191.602 30.376 191.602 30.952C191.602 31.528 191.466 32.048 191.194 32.512C190.93 32.968 190.57 33.332 190.114 33.604C189.658 33.868 189.138 34 188.554 34Z" fill="black"/>
<path d="M189.1 53C188.972 53 188.86 52.956 188.764 52.868C188.676 52.78 188.632 52.668 188.632 52.532V44.732L187.432 45.152C187.344 45.192 187.264 45.212 187.192 45.212C187.056 45.212 186.944 45.168 186.856 45.08C186.768 44.992 186.724 44.884 186.724 44.756C186.724 44.66 186.744 44.572 186.784 44.492C186.832 44.412 186.912 44.352 187.024 44.312L188.872 43.676C188.912 43.66 188.952 43.648 188.992 43.64C189.04 43.624 189.08 43.616 189.112 43.616C189.248 43.616 189.356 43.664 189.436 43.76C189.524 43.848 189.568 43.956 189.568 44.084V52.532C189.568 52.668 189.524 52.78 189.436 52.868C189.348 52.956 189.236 53 189.1 53Z" fill="black"/>
<rect x="20" y="19" width="20" height="19" fill="#D9D9D9"/>
<rect x="20.5" y="19.5" width="19" height="18" fill="#D9D9D9" stroke="black"/>
<rect x="40.5" y="57.5" width="19" height="18" fill="#D9D9D9" stroke="black"/>
<rect x="20" y="38" width="20" height="19" fill="#D9D9D9"/>
<rect x="20" y="38" width="20" height="19" fill="#D9D9D9"/>
<rect x="20.5" y="38.5" width="19" height="18" fill="#D9D9D9" stroke="black"/>
<rect x="20.5" y="57.5" width="19" height="18" fill="#D9D9D9" stroke="black"/>
<rect x="20.5" y="76.5" width="19" height="18" fill="#D9D9D9" stroke="black"/>
<rect x="0.5" y="57.5" width="19" height="18" fill="#D9D9D9" stroke="black"/>
<path d="M49.5902 70.06C49.0302 70.06 48.5262 69.94 48.0782 69.7C47.6382 69.452 47.2902 69.116 47.0342 68.692C46.7782 68.268 46.6502 67.788 46.6502 67.252C46.6502 67.116 46.6902 67 46.7702 66.904C46.8502 66.808 46.9582 66.76 47.0942 66.76C47.2302 66.76 47.3382 66.808 47.4182 66.904C47.4982 67 47.5382 67.116 47.5382 67.252C47.5382 67.62 47.6262 67.952 47.8022 68.248C47.9782 68.536 48.2182 68.768 48.5222 68.944C48.8342 69.112 49.1782 69.196 49.5542 69.196C50.1782 69.196 50.6662 69.024 51.0182 68.68C51.3702 68.328 51.5462 67.876 51.5462 67.324C51.5462 66.932 51.4622 66.592 51.2942 66.304C51.1262 66.008 50.8982 65.78 50.6102 65.62C50.3222 65.452 49.9982 65.368 49.6382 65.368C49.5102 65.368 49.4022 65.324 49.3142 65.236C49.2262 65.148 49.1822 65.036 49.1822 64.9C49.1822 64.772 49.2262 64.664 49.3142 64.576C49.4022 64.488 49.5102 64.444 49.6382 64.444C49.9182 64.444 50.1742 64.376 50.4062 64.24C50.6462 64.096 50.8382 63.908 50.9822 63.676C51.1262 63.444 51.1982 63.188 51.1982 62.908C51.1982 62.484 51.0542 62.132 50.7662 61.852C50.4782 61.564 50.0942 61.42 49.6142 61.42C49.2782 61.42 48.9782 61.488 48.7142 61.624C48.4502 61.752 48.2422 61.928 48.0902 62.152C47.9462 62.368 47.8742 62.616 47.8742 62.896C47.8742 63.032 47.8302 63.148 47.7422 63.244C47.6622 63.332 47.5582 63.376 47.4302 63.376C47.2942 63.376 47.1862 63.332 47.1062 63.244C47.0262 63.148 46.9862 63.036 46.9862 62.908C46.9862 62.468 47.0982 62.072 47.3222 61.72C47.5542 61.36 47.8662 61.08 48.2582 60.88C48.6502 60.672 49.1022 60.568 49.6142 60.568C50.0782 60.568 50.4942 60.672 50.8622 60.88C51.2382 61.08 51.5342 61.36 51.7502 61.72C51.9742 62.072 52.0862 62.468 52.0862 62.908C52.0862 63.18 52.0182 63.444 51.8822 63.7C51.7542 63.956 51.5822 64.188 51.3662 64.396C51.1502 64.596 50.9142 64.752 50.6582 64.864C51.0662 64.984 51.4062 65.168 51.6782 65.416C51.9502 65.664 52.1502 65.956 52.2782 66.292C52.4062 66.62 52.4702 66.964 52.4702 67.324C52.4702 67.852 52.3422 68.324 52.0862 68.74C51.8382 69.148 51.4942 69.472 51.0542 69.712C50.6142 69.944 50.1262 70.06 49.5902 70.06Z" fill="black"/>
<path d="M29.5902 89.06C29.0302 89.06 28.5262 88.94 28.0782 88.7C27.6382 88.452 27.2902 88.116 27.0342 87.692C26.7782 87.268 26.6502 86.788 26.6502 86.252C26.6502 86.116 26.6902 86 26.7702 85.904C26.8502 85.808 26.9582 85.76 27.0942 85.76C27.2302 85.76 27.3382 85.808 27.4182 85.904C27.4982 86 27.5382 86.116 27.5382 86.252C27.5382 86.62 27.6262 86.952 27.8022 87.248C27.9782 87.536 28.2182 87.768 28.5222 87.944C28.8342 88.112 29.1782 88.196 29.5542 88.196C30.1782 88.196 30.6662 88.024 31.0182 87.68C31.3702 87.328 31.5462 86.876 31.5462 86.324C31.5462 85.932 31.4622 85.592 31.2942 85.304C31.1262 85.008 30.8982 84.78 30.6102 84.62C30.3222 84.452 29.9982 84.368 29.6382 84.368C29.5102 84.368 29.4022 84.324 29.3142 84.236C29.2262 84.148 29.1822 84.036 29.1822 83.9C29.1822 83.772 29.2262 83.664 29.3142 83.576C29.4022 83.488 29.5102 83.444 29.6382 83.444C29.9182 83.444 30.1742 83.376 30.4062 83.24C30.6462 83.096 30.8382 82.908 30.9822 82.676C31.1262 82.444 31.1982 82.188 31.1982 81.908C31.1982 81.484 31.0542 81.132 30.7662 80.852C30.4782 80.564 30.0942 80.42 29.6142 80.42C29.2782 80.42 28.9782 80.488 28.7142 80.624C28.4502 80.752 28.2422 80.928 28.0902 81.152C27.9462 81.368 27.8742 81.616 27.8742 81.896C27.8742 82.032 27.8302 82.148 27.7422 82.244C27.6622 82.332 27.5582 82.376 27.4302 82.376C27.2942 82.376 27.1862 82.332 27.1062 82.244C27.0262 82.148 26.9862 82.036 26.9862 81.908C26.9862 81.468 27.0982 81.072 27.3222 80.72C27.5542 80.36 27.8662 80.08 28.2582 79.88C28.6502 79.672 29.1022 79.568 29.6142 79.568C30.0782 79.568 30.4942 79.672 30.8622 79.88C31.2382 80.08 31.5342 80.36 31.7502 80.72C31.9742 81.072 32.0862 81.468 32.0862 81.908C32.0862 82.18 32.0182 82.444 31.8822 82.7C31.7542 82.956 31.5822 83.188 31.3662 83.396C31.1502 83.596 30.9142 83.752 30.6582 83.864C31.0662 83.984 31.4062 84.168 31.6782 84.416C31.9502 84.664 32.1502 84.956 32.2782 85.292C32.4062 85.62 32.4702 85.964 32.4702 86.324C32.4702 86.852 32.3422 87.324 32.0862 87.74C31.8382 88.148 31.4942 88.472 31.0542 88.712C30.6142 88.944 30.1262 89.06 29.5902 89.06Z" fill="black"/>
<path d="M9.59023 71.06C9.03023 71.06 8.52623 70.94 8.07823 70.7C7.63823 70.452 7.29023 70.116 7.03423 69.692C6.77823 69.268 6.65023 68.788 6.65023 68.252C6.65023 68.116 6.69023 68 6.77023 67.904C6.85023 67.808 6.95823 67.76 7.09423 67.76C7.23023 67.76 7.33823 67.808 7.41823 67.904C7.49823 68 7.53823 68.116 7.53823 68.252C7.53823 68.62 7.62623 68.952 7.80223 69.248C7.97823 69.536 8.21823 69.768 8.52223 69.944C8.83423 70.112 9.17823 70.196 9.55423 70.196C10.1782 70.196 10.6662 70.024 11.0182 69.68C11.3702 69.328 11.5462 68.876 11.5462 68.324C11.5462 67.932 11.4622 67.592 11.2942 67.304C11.1262 67.008 10.8982 66.78 10.6102 66.62C10.3222 66.452 9.99823 66.368 9.63823 66.368C9.51023 66.368 9.40223 66.324 9.31423 66.236C9.22623 66.148 9.18223 66.036 9.18223 65.9C9.18223 65.772 9.22623 65.664 9.31423 65.576C9.40223 65.488 9.51023 65.444 9.63823 65.444C9.91823 65.444 10.1742 65.376 10.4062 65.24C10.6462 65.096 10.8382 64.908 10.9822 64.676C11.1262 64.444 11.1982 64.188 11.1982 63.908C11.1982 63.484 11.0542 63.132 10.7662 62.852C10.4782 62.564 10.0942 62.42 9.61423 62.42C9.27823 62.42 8.97823 62.488 8.71423 62.624C8.45023 62.752 8.24223 62.928 8.09023 63.152C7.94623 63.368 7.87423 63.616 7.87423 63.896C7.87423 64.032 7.83023 64.148 7.74223 64.244C7.66223 64.332 7.55823 64.376 7.43023 64.376C7.29423 64.376 7.18623 64.332 7.10623 64.244C7.02623 64.148 6.98623 64.036 6.98623 63.908C6.98623 63.468 7.09823 63.072 7.32223 62.72C7.55423 62.36 7.86623 62.08 8.25823 61.88C8.65023 61.672 9.10223 61.568 9.61423 61.568C10.0782 61.568 10.4942 61.672 10.8622 61.88C11.2382 62.08 11.5342 62.36 11.7502 62.72C11.9742 63.072 12.0862 63.468 12.0862 63.908C12.0862 64.18 12.0182 64.444 11.8822 64.7C11.7542 64.956 11.5822 65.188 11.3662 65.396C11.1502 65.596 10.9142 65.752 10.6582 65.864C11.0662 65.984 11.4062 66.168 11.6782 66.416C11.9502 66.664 12.1502 66.956 12.2782 67.292C12.4062 67.62 12.4702 67.964 12.4702 68.324C12.4702 68.852 12.3422 69.324 12.0862 69.74C11.8382 70.148 11.4942 70.472 11.0542 70.712C10.6142 70.944 10.1262 71.06 9.59023 71.06Z" fill="black"/>
<path d="M29.5902 70.06C29.0302 70.06 28.5262 69.94 28.0782 69.7C27.6382 69.452 27.2902 69.116 27.0342 68.692C26.7782 68.268 26.6502 67.788 26.6502 67.252C26.6502 67.116 26.6902 67 26.7702 66.904C26.8502 66.808 26.9582 66.76 27.0942 66.76C27.2302 66.76 27.3382 66.808 27.4182 66.904C27.4982 67 27.5382 67.116 27.5382 67.252C27.5382 67.62 27.6262 67.952 27.8022 68.248C27.9782 68.536 28.2182 68.768 28.5222 68.944C28.8342 69.112 29.1782 69.196 29.5542 69.196C30.1782 69.196 30.6662 69.024 31.0182 68.68C31.3702 68.328 31.5462 67.876 31.5462 67.324C31.5462 66.932 31.4622 66.592 31.2942 66.304C31.1262 66.008 30.8982 65.78 30.6102 65.62C30.3222 65.452 29.9982 65.368 29.6382 65.368C29.5102 65.368 29.4022 65.324 29.3142 65.236C29.2262 65.148 29.1822 65.036 29.1822 64.9C29.1822 64.772 29.2262 64.664 29.3142 64.576C29.4022 64.488 29.5102 64.444 29.6382 64.444C29.9182 64.444 30.1742 64.376 30.4062 64.24C30.6462 64.096 30.8382 63.908 30.9822 63.676C31.1262 63.444 31.1982 63.188 31.1982 62.908C31.1982 62.484 31.0542 62.132 30.7662 61.852C30.4782 61.564 30.0942 61.42 29.6142 61.42C29.2782 61.42 28.9782 61.488 28.7142 61.624C28.4502 61.752 28.2422 61.928 28.0902 62.152C27.9462 62.368 27.8742 62.616 27.8742 62.896C27.8742 63.032 27.8302 63.148 27.7422 63.244C27.6622 63.332 27.5582 63.376 27.4302 63.376C27.2942 63.376 27.1862 63.332 27.1062 63.244C27.0262 63.148 26.9862 63.036 26.9862 62.908C26.9862 62.468 27.0982 62.072 27.3222 61.72C27.5542 61.36 27.8662 61.08 28.2582 60.88C28.6502 60.672 29.1022 60.568 29.6142 60.568C30.0782 60.568 30.4942 60.672 30.8622 60.88C31.2382 61.08 31.5342 61.36 31.7502 61.72C31.9742 62.072 32.0862 62.468 32.0862 62.908C32.0862 63.18 32.0182 63.444 31.8822 63.7C31.7542 63.956 31.5822 64.188 31.3662 64.396C31.1502 64.596 30.9142 64.752 30.6582 64.864C31.0662 64.984 31.4062 65.168 31.6782 65.416C31.9502 65.664 32.1502 65.956 32.2782 66.292C32.4062 66.62 32.4702 66.964 32.4702 67.324C32.4702 67.852 32.3422 68.324 32.0862 68.74C31.8382 69.148 31.4942 69.472 31.0542 69.712C30.6142 69.944 30.1262 70.06 29.5902 70.06Z" fill="black"/>
<path d="M29.5902 34.06C29.0302 34.06 28.5262 33.94 28.0782 33.7C27.6382 33.452 27.2902 33.116 27.0342 32.692C26.7782 32.268 26.6502 31.788 26.6502 31.252C26.6502 31.116 26.6902 31 26.7702 30.904C26.8502 30.808 26.9582 30.76 27.0942 30.76C27.2302 30.76 27.3382 30.808 27.4182 30.904C27.4982 31 27.5382 31.116 27.5382 31.252C27.5382 31.62 27.6262 31.952 27.8022 32.248C27.9782 32.536 28.2182 32.768 28.5222 32.944C28.8342 33.112 29.1782 33.196 29.5542 33.196C30.1782 33.196 30.6662 33.024 31.0182 32.68C31.3702 32.328 31.5462 31.876 31.5462 31.324C31.5462 30.932 31.4622 30.592 31.2942 30.304C31.1262 30.008 30.8982 29.78 30.6102 29.62C30.3222 29.452 29.9982 29.368 29.6382 29.368C29.5102 29.368 29.4022 29.324 29.3142 29.236C29.2262 29.148 29.1822 29.036 29.1822 28.9C29.1822 28.772 29.2262 28.664 29.3142 28.576C29.4022 28.488 29.5102 28.444 29.6382 28.444C29.9182 28.444 30.1742 28.376 30.4062 28.24C30.6462 28.096 30.8382 27.908 30.9822 27.676C31.1262 27.444 31.1982 27.188 31.1982 26.908C31.1982 26.484 31.0542 26.132 30.7662 25.852C30.4782 25.564 30.0942 25.42 29.6142 25.42C29.2782 25.42 28.9782 25.488 28.7142 25.624C28.4502 25.752 28.2422 25.928 28.0902 26.152C27.9462 26.368 27.8742 26.616 27.8742 26.896C27.8742 27.032 27.8302 27.148 27.7422 27.244C27.6622 27.332 27.5582 27.376 27.4302 27.376C27.2942 27.376 27.1862 27.332 27.1062 27.244C27.0262 27.148 26.9862 27.036 26.9862 26.908C26.9862 26.468 27.0982 26.072 27.3222 25.72C27.5542 25.36 27.8662 25.08 28.2582 24.88C28.6502 24.672 29.1022 24.568 29.6142 24.568C30.0782 24.568 30.4942 24.672 30.8622 24.88C31.2382 25.08 31.5342 25.36 31.7502 25.72C31.9742 26.072 32.0862 26.468 32.0862 26.908C32.0862 27.18 32.0182 27.444 31.8822 27.7C31.7542 27.956 31.5822 28.188 31.3662 28.396C31.1502 28.596 30.9142 28.752 30.6582 28.864C31.0662 28.984 31.4062 29.168 31.6782 29.416C31.9502 29.664 32.1502 29.956 32.2782 30.292C32.4062 30.62 32.4702 30.964 32.4702 31.324C32.4702 31.852 32.3422 32.324 32.0862 32.74C31.8382 33.148 31.4942 33.472 31.0542 33.712C30.6142 33.944 30.1262 34.06 29.5902 34.06Z" fill="black"/>
<path d="M29.5902 53.06C29.0302 53.06 28.5262 52.94 28.0782 52.7C27.6382 52.452 27.2902 52.116 27.0342 51.692C26.7782 51.268 26.6502 50.788 26.6502 50.252C26.6502 50.116 26.6902 50 26.7702 49.904C26.8502 49.808 26.9582 49.76 27.0942 49.76C27.2302 49.76 27.3382 49.808 27.4182 49.904C27.4982 50 27.5382 50.116 27.5382 50.252C27.5382 50.62 27.6262 50.952 27.8022 51.248C27.9782 51.536 28.2182 51.768 28.5222 51.944C28.8342 52.112 29.1782 52.196 29.5542 52.196C30.1782 52.196 30.6662 52.024 31.0182 51.68C31.3702 51.328 31.5462 50.876 31.5462 50.324C31.5462 49.932 31.4622 49.592 31.2942 49.304C31.1262 49.008 30.8982 48.78 30.6102 48.62C30.3222 48.452 29.9982 48.368 29.6382 48.368C29.5102 48.368 29.4022 48.324 29.3142 48.236C29.2262 48.148 29.1822 48.036 29.1822 47.9C29.1822 47.772 29.2262 47.664 29.3142 47.576C29.4022 47.488 29.5102 47.444 29.6382 47.444C29.9182 47.444 30.1742 47.376 30.4062 47.24C30.6462 47.096 30.8382 46.908 30.9822 46.676C31.1262 46.444 31.1982 46.188 31.1982 45.908C31.1982 45.484 31.0542 45.132 30.7662 44.852C30.4782 44.564 30.0942 44.42 29.6142 44.42C29.2782 44.42 28.9782 44.488 28.7142 44.624C28.4502 44.752 28.2422 44.928 28.0902 45.152C27.9462 45.368 27.8742 45.616 27.8742 45.896C27.8742 46.032 27.8302 46.148 27.7422 46.244C27.6622 46.332 27.5582 46.376 27.4302 46.376C27.2942 46.376 27.1862 46.332 27.1062 46.244C27.0262 46.148 26.9862 46.036 26.9862 45.908C26.9862 45.468 27.0982 45.072 27.3222 44.72C27.5542 44.36 27.8662 44.08 28.2582 43.88C28.6502 43.672 29.1022 43.568 29.6142 43.568C30.0782 43.568 30.4942 43.672 30.8622 43.88C31.2382 44.08 31.5342 44.36 31.7502 44.72C31.9742 45.072 32.0862 45.468 32.0862 45.908C32.0862 46.18 32.0182 46.444 31.8822 46.7C31.7542 46.956 31.5822 47.188 31.3662 47.396C31.1502 47.596 30.9142 47.752 30.6582 47.864C31.0662 47.984 31.4062 48.168 31.6782 48.416C31.9502 48.664 32.1502 48.956 32.2782 49.292C32.4062 49.62 32.4702 49.964 32.4702 50.324C32.4702 50.852 32.3422 51.324 32.0862 51.74C31.8382 52.148 31.4942 52.472 31.0542 52.712C30.6142 52.944 30.1262 53.06 29.5902 53.06Z" fill="black"/>
<rect x="257" y="20" width="20" height="19" fill="#D9D9D9"/>
<rect x="257.5" y="20.5" width="19" height="18" fill="#D9D9D9" stroke="black"/>
<rect x="277.5" y="58.5" width="19" height="18" fill="#D9D9D9" stroke="black"/>
<rect x="257" y="39" width="20" height="19" fill="#D9D9D9"/>
<rect x="257" y="39" width="20" height="19" fill="#D9D9D9"/>
<rect x="257.5" y="39.5" width="19" height="18" fill="#D9D9D9" stroke="black"/>
<rect x="257.5" y="58.5" width="19" height="18" fill="#D9D9D9" stroke="black"/>
<rect x="257.5" y="77.5" width="19" height="18" fill="#D9D9D9" stroke="black"/>
<rect x="237.5" y="58.5" width="19" height="18" fill="#D9D9D9" stroke="black"/>
<path d="M284.334 71C284.206 71 284.094 70.956 283.998 70.868C283.91 70.78 283.866 70.668 283.866 70.532C283.866 70.412 283.91 70.304 283.998 70.208L287.634 65.912C287.834 65.696 287.994 65.456 288.114 65.192C288.234 64.92 288.294 64.668 288.294 64.436C288.294 64.06 288.218 63.728 288.066 63.44C287.922 63.152 287.714 62.928 287.442 62.768C287.178 62.6 286.874 62.516 286.53 62.516C286.194 62.516 285.886 62.604 285.606 62.78C285.334 62.948 285.118 63.176 284.958 63.464C284.806 63.752 284.73 64.076 284.73 64.436C284.73 64.564 284.686 64.672 284.598 64.76C284.51 64.848 284.398 64.892 284.262 64.892C284.134 64.892 284.022 64.848 283.926 64.76C283.838 64.672 283.794 64.564 283.794 64.436C283.794 63.9 283.914 63.42 284.154 62.996C284.394 62.572 284.718 62.236 285.126 61.988C285.542 61.74 286.01 61.616 286.53 61.616C287.05 61.616 287.51 61.736 287.91 61.976C288.318 62.216 288.634 62.548 288.858 62.972C289.09 63.396 289.206 63.884 289.206 64.436C289.206 64.7 289.162 64.952 289.074 65.192C288.994 65.432 288.882 65.664 288.738 65.888C288.594 66.104 288.438 66.308 288.27 66.5L285.198 70.064H288.954C289.082 70.064 289.19 70.112 289.278 70.208C289.374 70.304 289.422 70.412 289.422 70.532C289.422 70.668 289.374 70.78 289.278 70.868C289.19 70.956 289.082 71 288.954 71H284.334Z" fill="black"/>
<path d="M264.334 90C264.206 90 264.094 89.956 263.998 89.868C263.91 89.78 263.866 89.668 263.866 89.532C263.866 89.412 263.91 89.304 263.998 89.208L267.634 84.912C267.834 84.696 267.994 84.456 268.114 84.192C268.234 83.92 268.294 83.668 268.294 83.436C268.294 83.06 268.218 82.728 268.066 82.44C267.922 82.152 267.714 81.928 267.442 81.768C267.178 81.6 266.874 81.516 266.53 81.516C266.194 81.516 265.886 81.604 265.606 81.78C265.334 81.948 265.118 82.176 264.958 82.464C264.806 82.752 264.73 83.076 264.73 83.436C264.73 83.564 264.686 83.672 264.598 83.76C264.51 83.848 264.398 83.892 264.262 83.892C264.134 83.892 264.022 83.848 263.926 83.76C263.838 83.672 263.794 83.564 263.794 83.436C263.794 82.9 263.914 82.42 264.154 81.996C264.394 81.572 264.718 81.236 265.126 80.988C265.542 80.74 266.01 80.616 266.53 80.616C267.05 80.616 267.51 80.736 267.91 80.976C268.318 81.216 268.634 81.548 268.858 81.972C269.09 82.396 269.206 82.884 269.206 83.436C269.206 83.7 269.162 83.952 269.074 84.192C268.994 84.432 268.882 84.664 268.738 84.888C268.594 85.104 268.438 85.308 268.27 85.5L265.198 89.064H268.954C269.082 89.064 269.19 89.112 269.278 89.208C269.374 89.304 269.422 89.412 269.422 89.532C269.422 89.668 269.374 89.78 269.278 89.868C269.19 89.956 269.082 90 268.954 90H264.334Z" fill="black"/>
<path d="M246.625 72C246.081 72 245.597 71.88 245.173 71.64C244.749 71.392 244.413 71.056 244.165 70.632C243.925 70.208 243.805 69.724 243.805 69.18C243.805 68.644 243.925 68.164 244.165 67.74C244.413 67.308 244.749 66.972 245.173 66.732C245.597 66.484 246.081 66.36 246.625 66.36C247.161 66.36 247.641 66.484 248.065 66.732C248.489 66.972 248.821 67.308 249.061 67.74C249.309 68.164 249.433 68.644 249.433 69.18C249.433 69.724 249.309 70.208 249.061 70.632C248.821 71.056 248.489 71.392 248.065 71.64C247.641 71.88 247.161 72 246.625 72ZM246.613 71.136C246.981 71.136 247.309 71.052 247.597 70.884C247.893 70.716 248.125 70.484 248.293 70.188C248.461 69.892 248.545 69.556 248.545 69.18C248.545 68.804 248.461 68.468 248.293 68.172C248.125 67.876 247.893 67.644 247.597 67.476C247.309 67.3 246.981 67.212 246.613 67.212C246.245 67.212 245.917 67.3 245.629 67.476C245.341 67.644 245.113 67.876 244.945 68.172C244.777 68.468 244.693 68.804 244.693 69.18C244.693 69.556 244.777 69.892 244.945 70.188C245.113 70.484 245.341 70.716 245.629 70.884C245.917 71.052 246.245 71.136 246.613 71.136ZM244.153 67.752L247.117 62.88C247.221 62.712 247.361 62.628 247.537 62.628C247.657 62.628 247.761 62.664 247.849 62.736C247.937 62.808 247.989 62.9 248.005 63.012C248.029 63.124 248.009 63.232 247.945 63.336L245.965 66.564L244.153 67.752Z" fill="black"/>
<path d="M266.625 71C266.081 71 265.597 70.88 265.173 70.64C264.749 70.392 264.413 70.056 264.165 69.632C263.925 69.208 263.805 68.724 263.805 68.18C263.805 67.644 263.925 67.164 264.165 66.74C264.413 66.308 264.749 65.972 265.173 65.732C265.597 65.484 266.081 65.36 266.625 65.36C267.161 65.36 267.641 65.484 268.065 65.732C268.489 65.972 268.821 66.308 269.061 66.74C269.309 67.164 269.433 67.644 269.433 68.18C269.433 68.724 269.309 69.208 269.061 69.632C268.821 70.056 268.489 70.392 268.065 70.64C267.641 70.88 267.161 71 266.625 71ZM266.613 70.136C266.981 70.136 267.309 70.052 267.597 69.884C267.893 69.716 268.125 69.484 268.293 69.188C268.461 68.892 268.545 68.556 268.545 68.18C268.545 67.804 268.461 67.468 268.293 67.172C268.125 66.876 267.893 66.644 267.597 66.476C267.309 66.3 266.981 66.212 266.613 66.212C266.245 66.212 265.917 66.3 265.629 66.476C265.341 66.644 265.113 66.876 264.945 67.172C264.777 67.468 264.693 67.804 264.693 68.18C264.693 68.556 264.777 68.892 264.945 69.188C265.113 69.484 265.341 69.716 265.629 69.884C265.917 70.052 266.245 70.136 266.613 70.136ZM264.153 66.752L267.117 61.88C267.221 61.712 267.361 61.628 267.537 61.628C267.657 61.628 267.761 61.664 267.849 61.736C267.937 61.808 267.989 61.9 268.005 62.012C268.029 62.124 268.009 62.232 267.945 62.336L265.965 65.564L264.153 66.752Z" fill="black"/>
<path d="M264.334 54C264.206 54 264.094 53.956 263.998 53.868C263.91 53.78 263.866 53.668 263.866 53.532C263.866 53.412 263.91 53.304 263.998 53.208L267.634 48.912C267.834 48.696 267.994 48.456 268.114 48.192C268.234 47.92 268.294 47.668 268.294 47.436C268.294 47.06 268.218 46.728 268.066 46.44C267.922 46.152 267.714 45.928 267.442 45.768C267.178 45.6 266.874 45.516 266.53 45.516C266.194 45.516 265.886 45.604 265.606 45.78C265.334 45.948 265.118 46.176 264.958 46.464C264.806 46.752 264.73 47.076 264.73 47.436C264.73 47.564 264.686 47.672 264.598 47.76C264.51 47.848 264.398 47.892 264.262 47.892C264.134 47.892 264.022 47.848 263.926 47.76C263.838 47.672 263.794 47.564 263.794 47.436C263.794 46.9 263.914 46.42 264.154 45.996C264.394 45.572 264.718 45.236 265.126 44.988C265.542 44.74 266.01 44.616 266.53 44.616C267.05 44.616 267.51 44.736 267.91 44.976C268.318 45.216 268.634 45.548 268.858 45.972C269.09 46.396 269.206 46.884 269.206 47.436C269.206 47.7 269.162 47.952 269.074 48.192C268.994 48.432 268.882 48.664 268.738 48.888C268.594 49.104 268.438 49.308 268.27 49.5L265.198 53.064H268.954C269.082 53.064 269.19 53.112 269.278 53.208C269.374 53.304 269.422 53.412 269.422 53.532C269.422 53.668 269.374 53.78 269.278 53.868C269.19 53.956 269.082 54 268.954 54H264.334Z" fill="black"/>
<path d="M264.334 35C264.206 35 264.094 34.956 263.998 34.868C263.91 34.78 263.866 34.668 263.866 34.532C263.866 34.412 263.91 34.304 263.998 34.208L267.634 29.912C267.834 29.696 267.994 29.456 268.114 29.192C268.234 28.92 268.294 28.668 268.294 28.436C268.294 28.06 268.218 27.728 268.066 27.44C267.922 27.152 267.714 26.928 267.442 26.768C267.178 26.6 266.874 26.516 266.53 26.516C266.194 26.516 265.886 26.604 265.606 26.78C265.334 26.948 265.118 27.176 264.958 27.464C264.806 27.752 264.73 28.076 264.73 28.436C264.73 28.564 264.686 28.672 264.598 28.76C264.51 28.848 264.398 28.892 264.262 28.892C264.134 28.892 264.022 28.848 263.926 28.76C263.838 28.672 263.794 28.564 263.794 28.436C263.794 27.9 263.914 27.42 264.154 26.996C264.394 26.572 264.718 26.236 265.126 25.988C265.542 25.74 266.01 25.616 266.53 25.616C267.05 25.616 267.51 25.736 267.91 25.976C268.318 26.216 268.634 26.548 268.858 26.972C269.09 27.396 269.206 27.884 269.206 28.436C269.206 28.7 269.162 28.952 269.074 29.192C268.994 29.432 268.882 29.664 268.738 29.888C268.594 30.104 268.438 30.308 268.27 30.5L265.198 34.064H268.954C269.082 34.064 269.19 34.112 269.278 34.208C269.374 34.304 269.422 34.412 269.422 34.532C269.422 34.668 269.374 34.78 269.278 34.868C269.19 34.956 269.082 35 268.954 35H264.334Z" fill="black"/>
<path d="M263.674 10C263.546 10 263.434 9.956 263.338 9.868C263.25 9.772 263.206 9.66 263.206 9.532V1.096C263.206 0.959999 263.25 0.847999 263.338 0.76C263.426 0.672 263.538 0.628 263.674 0.628H269.302C269.438 0.628 269.55 0.672 269.638 0.76C269.726 0.839999 269.77 0.947999 269.77 1.084C269.77 1.204 269.726 1.308 269.638 1.396C269.55 1.484 269.438 1.528 269.302 1.528H264.142V4.84H267.898C268.034 4.84 268.146 4.884 268.234 4.972C268.322 5.06 268.366 5.168 268.366 5.296C268.366 5.424 268.322 5.532 268.234 5.62C268.146 5.708 268.034 5.752 267.898 5.752H264.142V9.532C264.142 9.66 264.098 9.772 264.01 9.868C263.922 9.956 263.81 10 263.674 10Z" fill="black"/>
<path d="M187.014 11C186.878 11 186.766 10.956 186.678 10.868C186.59 10.78 186.546 10.668 186.546 10.532V2.096C186.546 1.96 186.59 1.848 186.678 1.76C186.766 1.672 186.878 1.628 187.014 1.628H192.642C192.77 1.628 192.878 1.672 192.966 1.76C193.062 1.84 193.11 1.948 193.11 2.084C193.11 2.204 193.062 2.308 192.966 2.396C192.878 2.484 192.77 2.528 192.642 2.528H187.482V5.84H191.238C191.374 5.84 191.486 5.884 191.574 5.972C191.662 6.06 191.706 6.168 191.706 6.296C191.706 6.424 191.662 6.532 191.574 6.62C191.486 6.708 191.374 6.752 191.238 6.752H187.482V10.1H192.642C192.77 10.1 192.878 10.144 192.966 10.232C193.062 10.32 193.11 10.424 193.11 10.544C193.11 10.68 193.062 10.792 192.966 10.88C192.878 10.96 192.77 11 192.642 11H187.014Z" fill="black"/>
<path d="M31.3065 10.12C30.6585 10.12 30.0505 9.996 29.4825 9.748C28.9225 9.5 28.4265 9.156 27.9945 8.716C27.5705 8.268 27.2385 7.756 26.9985 7.18C26.7585 6.596 26.6385 5.972 26.6385 5.308C26.6385 4.652 26.7545 4.036 26.9865 3.46C27.2265 2.876 27.5585 2.364 27.9825 1.924C28.4145 1.484 28.9105 1.14 29.4705 0.891999C30.0385 0.636 30.6505 0.508 31.3065 0.508C31.8825 0.508 32.4065 0.592 32.8785 0.76C33.3505 0.928 33.8065 1.196 34.2465 1.564C34.3185 1.62 34.3585 1.688 34.3665 1.768C34.3825 1.84 34.3745 1.912 34.3425 1.984C34.3105 2.048 34.2625 2.096 34.1985 2.128C34.1825 2.192 34.1425 2.24 34.0785 2.272C34.0145 2.304 33.9385 2.316 33.8505 2.308C33.7705 2.3 33.6905 2.264 33.6105 2.2C33.2985 1.928 32.9585 1.728 32.5905 1.6C32.2225 1.464 31.7945 1.396 31.3065 1.396C30.7865 1.396 30.2985 1.5 29.8425 1.708C29.3945 1.916 28.9985 2.2 28.6545 2.56C28.3105 2.92 28.0385 3.336 27.8385 3.808C27.6465 4.28 27.5505 4.78 27.5505 5.308C27.5505 5.852 27.6465 6.36 27.8385 6.832C28.0385 7.304 28.3105 7.72 28.6545 8.08C28.9985 8.44 29.3945 8.724 29.8425 8.932C30.2985 9.132 30.7865 9.232 31.3065 9.232C31.7465 9.232 32.1625 9.16 32.5545 9.016C32.9465 8.872 33.3185 8.664 33.6705 8.392C33.7665 8.312 33.8665 8.28 33.9705 8.296C34.0825 8.312 34.1785 8.36 34.2585 8.44C34.3385 8.52 34.3785 8.624 34.3785 8.752C34.3785 8.816 34.3665 8.876 34.3425 8.932C34.3265 8.98 34.2945 9.032 34.2465 9.088C33.8385 9.464 33.3825 9.732 32.8785 9.892C32.3745 10.044 31.8505 10.12 31.3065 10.12Z" fill="black"/>
<rect x="179" y="19" width="20" height="19" fill="#D9D9D9"/>
<rect x="179.5" y="19.5" width="19" height="18" fill="#D9D9D9" stroke="black"/>
<rect x="199.5" y="57.5" width="19" height="18" fill="#D9D9D9" stroke="black"/>
<rect x="179" y="38" width="20" height="19" fill="#D9D9D9"/>
<rect x="179" y="38" width="20" height="19" fill="#D9D9D9"/>
<rect x="179.5" y="38.5" width="19" height="18" fill="#D9D9D9" stroke="black"/>
<rect x="179.5" y="57.5" width="19" height="18" fill="#D9D9D9" stroke="black"/>
<rect x="179.5" y="76.5" width="19" height="18" fill="#D9D9D9" stroke="black"/>
<rect x="159.5" y="57.5" width="19" height="18" fill="#D9D9D9" stroke="black"/>
<path d="M209.1 70C208.972 70 208.86 69.956 208.764 69.868C208.676 69.78 208.632 69.668 208.632 69.532V61.732L207.432 62.152C207.344 62.192 207.264 62.212 207.192 62.212C207.056 62.212 206.944 62.168 206.856 62.08C206.768 61.992 206.724 61.884 206.724 61.756C206.724 61.66 206.744 61.572 206.784 61.492C206.832 61.412 206.912 61.352 207.024 61.312L208.872 60.676C208.912 60.66 208.952 60.648 208.992 60.64C209.04 60.624 209.08 60.616 209.112 60.616C209.248 60.616 209.356 60.664 209.436 60.76C209.524 60.848 209.568 60.956 209.568 61.084V69.532C209.568 69.668 209.524 69.78 209.436 69.868C209.348 69.956 209.236 70 209.1 70Z" fill="black"/>
<path d="M189.1 89C188.972 89 188.86 88.956 188.764 88.868C188.676 88.78 188.632 88.668 188.632 88.532V80.732L187.432 81.152C187.344 81.192 187.264 81.212 187.192 81.212C187.056 81.212 186.944 81.168 186.856 81.08C186.768 80.992 186.724 80.884 186.724 80.756C186.724 80.66 186.744 80.572 186.784 80.492C186.832 80.412 186.912 80.352 187.024 80.312L188.872 79.676C188.912 79.66 188.952 79.648 188.992 79.64C189.04 79.624 189.08 79.616 189.112 79.616C189.248 79.616 189.356 79.664 189.436 79.76C189.524 79.848 189.568 79.956 189.568 80.084V88.532C189.568 88.668 189.524 88.78 189.436 88.868C189.348 88.956 189.236 89 189.1 89Z" fill="black"/>
<path d="M168.554 71C167.978 71 167.462 70.868 167.006 70.604C166.55 70.332 166.186 69.968 165.914 69.512C165.65 69.048 165.518 68.528 165.518 67.952C165.518 67.816 165.562 67.704 165.65 67.616C165.738 67.528 165.846 67.484 165.974 67.484C166.11 67.484 166.222 67.528 166.31 67.616C166.406 67.704 166.454 67.816 166.454 67.952C166.454 68.352 166.546 68.712 166.73 69.032C166.914 69.352 167.162 69.604 167.474 69.788C167.794 69.972 168.154 70.064 168.554 70.064C168.954 70.064 169.314 69.972 169.634 69.788C169.954 69.604 170.206 69.352 170.39 69.032C170.574 68.712 170.666 68.352 170.666 67.952C170.666 67.552 170.574 67.192 170.39 66.872C170.206 66.552 169.954 66.3 169.634 66.116C169.314 65.932 168.954 65.84 168.554 65.84H166.454C166.318 65.84 166.206 65.796 166.118 65.708C166.03 65.612 165.986 65.5 165.986 65.372V62.084C165.986 61.956 166.03 61.848 166.118 61.76C166.206 61.664 166.318 61.616 166.454 61.616H170.666C170.794 61.616 170.902 61.664 170.99 61.76C171.086 61.848 171.134 61.956 171.134 62.084C171.134 62.212 171.09 62.324 171.002 62.42C170.914 62.508 170.802 62.552 170.666 62.552H166.91V64.904H168.554C169.138 64.904 169.658 65.04 170.114 65.312C170.57 65.576 170.93 65.94 171.194 66.404C171.466 66.86 171.602 67.376 171.602 67.952C171.602 68.528 171.466 69.048 171.194 69.512C170.93 69.968 170.57 70.332 170.114 70.604C169.658 70.868 169.138 71 168.554 71Z" fill="black"/>
<path d="M188.554 70C187.978 70 187.462 69.868 187.006 69.604C186.55 69.332 186.186 68.968 185.914 68.512C185.65 68.048 185.518 67.528 185.518 66.952C185.518 66.816 185.562 66.704 185.65 66.616C185.738 66.528 185.846 66.484 185.974 66.484C186.11 66.484 186.222 66.528 186.31 66.616C186.406 66.704 186.454 66.816 186.454 66.952C186.454 67.352 186.546 67.712 186.73 68.032C186.914 68.352 187.162 68.604 187.474 68.788C187.794 68.972 188.154 69.064 188.554 69.064C188.954 69.064 189.314 68.972 189.634 68.788C189.954 68.604 190.206 68.352 190.39 68.032C190.574 67.712 190.666 67.352 190.666 66.952C190.666 66.552 190.574 66.192 190.39 65.872C190.206 65.552 189.954 65.3 189.634 65.116C189.314 64.932 188.954 64.84 188.554 64.84H186.454C186.318 64.84 186.206 64.796 186.118 64.708C186.03 64.612 185.986 64.5 185.986 64.372V61.084C185.986 60.956 186.03 60.848 186.118 60.76C186.206 60.664 186.318 60.616 186.454 60.616H190.666C190.794 60.616 190.902 60.664 190.99 60.76C191.086 60.848 191.134 60.956 191.134 61.084C191.134 61.212 191.09 61.324 191.002 61.42C190.914 61.508 190.802 61.552 190.666 61.552H186.91V63.904H188.554C189.138 63.904 189.658 64.04 190.114 64.312C190.57 64.576 190.93 64.94 191.194 65.404C191.466 65.86 191.602 66.376 191.602 66.952C191.602 67.528 191.466 68.048 191.194 68.512C190.93 68.968 190.57 69.332 190.114 69.604C189.658 69.868 189.138 70 188.554 70Z" fill="black"/>
<path d="M188.554 34C187.978 34 187.462 33.868 187.006 33.604C186.55 33.332 186.186 32.968 185.914 32.512C185.65 32.048 185.518 31.528 185.518 30.952C185.518 30.816 185.562 30.704 185.65 30.616C185.738 30.528 185.846 30.484 185.974 30.484C186.11 30.484 186.222 30.528 186.31 30.616C186.406 30.704 186.454 30.816 186.454 30.952C186.454 31.352 186.546 31.712 186.73 32.032C186.914 32.352 187.162 32.604 187.474 32.788C187.794 32.972 188.154 33.064 188.554 33.064C188.954 33.064 189.314 32.972 189.634 32.788C189.954 32.604 190.206 32.352 190.39 32.032C190.574 31.712 190.666 31.352 190.666 30.952C190.666 30.552 190.574 30.192 190.39 29.872C190.206 29.552 189.954 29.3 189.634 29.116C189.314 28.932 188.954 28.84 188.554 28.84H186.454C186.318 28.84 186.206 28.796 186.118 28.708C186.03 28.612 185.986 28.5 185.986 28.372V25.084C185.986 24.956 186.03 24.848 186.118 24.76C186.206 24.664 186.318 24.616 186.454 24.616H190.666C190.794 24.616 190.902 24.664 190.99 24.76C191.086 24.848 191.134 24.956 191.134 25.084C191.134 25.212 191.09 25.324 191.002 25.42C190.914 25.508 190.802 25.552 190.666 25.552H186.91V27.904H188.554C189.138 27.904 189.658 28.04 190.114 28.312C190.57 28.576 190.93 28.94 191.194 29.404C191.466 29.86 191.602 30.376 191.602 30.952C191.602 31.528 191.466 32.048 191.194 32.512C190.93 32.968 190.57 33.332 190.114 33.604C189.658 33.868 189.138 34 188.554 34Z" fill="black"/>
<path d="M189.1 53C188.972 53 188.86 52.956 188.764 52.868C188.676 52.78 188.632 52.668 188.632 52.532V44.732L187.432 45.152C187.344 45.192 187.264 45.212 187.192 45.212C187.056 45.212 186.944 45.168 186.856 45.08C186.768 44.992 186.724 44.884 186.724 44.756C186.724 44.66 186.744 44.572 186.784 44.492C186.832 44.412 186.912 44.352 187.024 44.312L188.872 43.676C188.912 43.66 188.952 43.648 188.992 43.64C189.04 43.624 189.08 43.616 189.112 43.616C189.248 43.616 189.356 43.664 189.436 43.76C189.524 43.848 189.568 43.956 189.568 44.084V52.532C189.568 52.668 189.524 52.78 189.436 52.868C189.348 52.956 189.236 53 189.1 53Z" fill="black"/>
<path d="M110.551 10.01C110.415 10.01 110.303 9.96601 110.215 9.87801C110.127 9.79001 110.083 9.67801 110.083 9.54201V1.10601C110.083 0.970009 110.127 0.858009 110.215 0.770009C110.303 0.682009 110.415 0.63801 110.551 0.63801H112.711C113.399 0.63801 114.027 0.754009 114.595 0.986009C115.171 1.21001 115.667 1.53401 116.083 1.95801C116.499 2.37401 116.819 2.86601 117.043 3.43401C117.275 4.00201 117.391 4.63001 117.391 5.31801C117.391 6.00601 117.275 6.63801 117.043 7.21401C116.819 7.78201 116.499 8.27801 116.083 8.70201C115.667 9.11801 115.171 9.44201 114.595 9.67401C114.027 9.89801 113.399 10.01 112.711 10.01H110.551ZM111.019 9.17001H112.711C113.447 9.17001 114.095 9.00601 114.655 8.67801C115.223 8.34201 115.667 7.88601 115.987 7.31001C116.307 6.72601 116.467 6.06201 116.467 5.31801C116.467 4.57401 116.307 3.91401 115.987 3.33801C115.667 2.75401 115.223 2.29801 114.655 1.97001C114.095 1.64201 113.447 1.47801 112.711 1.47801H111.019V9.17001Z" fill="black"/>
<rect x="104" y="19.01" width="20" height="19" fill="#D9D9D9"/>
<rect x="104.5" y="19.51" width="19" height="18" fill="#D9D9D9" stroke="black"/>
<rect x="124.5" y="57.51" width="19" height="18" fill="#D9D9D9" stroke="black"/>
<rect x="104" y="38.01" width="20" height="19" fill="#D9D9D9"/>
<rect x="104" y="38.01" width="20" height="19" fill="#D9D9D9"/>
<rect x="104.5" y="38.51" width="19" height="18" fill="#D9D9D9" stroke="black"/>
<rect x="104.5" y="57.51" width="19" height="18" fill="#D9D9D9" stroke="black"/>
<rect x="104.5" y="76.51" width="19" height="18" fill="#D9D9D9" stroke="black"/>
<rect x="84.5" y="57.51" width="19" height="18" fill="#D9D9D9" stroke="black"/>
<path d="M133.492 70.01C132.9 70.01 132.392 69.822 131.968 69.446C131.544 69.07 131.22 68.534 130.996 67.838C130.78 67.134 130.672 66.29 130.672 65.306C130.672 64.338 130.78 63.502 130.996 62.798C131.22 62.094 131.544 61.554 131.968 61.178C132.392 60.802 132.9 60.614 133.492 60.614C134.1 60.614 134.612 60.806 135.028 61.19C135.452 61.566 135.772 62.106 135.988 62.81C136.212 63.514 136.324 64.346 136.324 65.306C136.324 66.282 136.212 67.122 135.988 67.826C135.772 68.522 135.452 69.062 135.028 69.446C134.612 69.822 134.1 70.01 133.492 70.01ZM133.492 69.074C133.924 69.074 134.28 68.914 134.56 68.594C134.84 68.266 135.048 67.818 135.184 67.25C135.32 66.682 135.388 66.034 135.388 65.306C135.388 64.586 135.316 63.946 135.172 63.386C135.036 62.818 134.828 62.37 134.548 62.042C134.268 61.714 133.916 61.55 133.492 61.55C133.068 61.55 132.716 61.714 132.436 62.042C132.164 62.362 131.956 62.806 131.812 63.374C131.676 63.942 131.608 64.586 131.608 65.306C131.608 66.042 131.676 66.694 131.812 67.262C131.956 67.822 132.164 68.266 132.436 68.594C132.716 68.914 133.068 69.074 133.492 69.074Z" fill="black"/>
<path d="M114.991 89.01C114.871 89.01 114.767 88.966 114.679 88.878C114.591 88.79 114.547 88.678 114.547 88.542V86.766H110.251C110.123 86.766 110.015 86.726 109.927 86.646C109.847 86.558 109.799 86.458 109.783 86.346C109.775 86.234 109.807 86.13 109.879 86.034L114.631 79.818C114.671 79.762 114.719 79.718 114.775 79.686C114.839 79.646 114.919 79.626 115.015 79.626C115.143 79.626 115.247 79.674 115.327 79.77C115.415 79.858 115.459 79.97 115.459 80.106V85.926H116.407C116.535 85.926 116.643 85.958 116.731 86.022C116.819 86.086 116.863 86.198 116.863 86.358C116.863 86.462 116.819 86.558 116.731 86.646C116.643 86.726 116.535 86.766 116.407 86.766H115.459V88.542C115.459 88.678 115.415 88.79 115.327 88.878C115.239 88.966 115.127 89.01 114.991 89.01ZM110.755 86.286L110.587 85.926H114.547V80.778L114.787 81.03L110.755 86.286Z" fill="black"/>
<path d="M94.9912 71.01C94.8712 71.01 94.7672 70.966 94.6792 70.878C94.5912 70.79 94.5472 70.678 94.5472 70.542V68.766H90.2512C90.1232 68.766 90.0152 68.726 89.9272 68.646C89.8472 68.558 89.7992 68.458 89.7832 68.346C89.7752 68.234 89.8072 68.13 89.8792 68.034L94.6312 61.818C94.6712 61.762 94.7192 61.718 94.7752 61.686C94.8392 61.646 94.9192 61.626 95.0152 61.626C95.1432 61.626 95.2472 61.674 95.3272 61.77C95.4152 61.858 95.4592 61.97 95.4592 62.106V67.926H96.4072C96.5352 67.926 96.6432 67.958 96.7312 68.022C96.8192 68.086 96.8632 68.198 96.8632 68.358C96.8632 68.462 96.8192 68.558 96.7312 68.646C96.6432 68.726 96.5352 68.766 96.4072 68.766H95.4592V70.542C95.4592 70.678 95.4152 70.79 95.3272 70.878C95.2392 70.966 95.1272 71.01 94.9912 71.01ZM90.7552 68.286L90.5872 67.926H94.5472V62.778L94.7872 63.03L90.7552 68.286Z" fill="black"/>
<path d="M114.991 70.01C114.871 70.01 114.767 69.966 114.679 69.878C114.591 69.79 114.547 69.678 114.547 69.542V67.766H110.251C110.123 67.766 110.015 67.726 109.927 67.646C109.847 67.558 109.799 67.458 109.783 67.346C109.775 67.234 109.807 67.13 109.879 67.034L114.631 60.818C114.671 60.762 114.719 60.718 114.775 60.686C114.839 60.646 114.919 60.626 115.015 60.626C115.143 60.626 115.247 60.674 115.327 60.77C115.415 60.858 115.459 60.97 115.459 61.106V66.926H116.407C116.535 66.926 116.643 66.958 116.731 67.022C116.819 67.086 116.863 67.198 116.863 67.358C116.863 67.462 116.819 67.558 116.731 67.646C116.643 67.726 116.535 67.766 116.407 67.766H115.459V69.542C115.459 69.678 115.415 69.79 115.327 69.878C115.239 69.966 115.127 70.01 114.991 70.01ZM110.755 67.286L110.587 66.926H114.547V61.778L114.787 62.03L110.755 67.286Z" fill="black"/>
<path d="M114.991 34.01C114.871 34.01 114.767 33.966 114.679 33.878C114.591 33.79 114.547 33.678 114.547 33.542V31.766H110.251C110.123 31.766 110.015 31.726 109.927 31.646C109.847 31.558 109.799 31.458 109.783 31.346C109.775 31.234 109.807 31.13 109.879 31.034L114.631 24.818C114.671 24.762 114.719 24.718 114.775 24.686C114.839 24.646 114.919 24.626 115.015 24.626C115.143 24.626 115.247 24.674 115.327 24.77C115.415 24.858 115.459 24.97 115.459 25.106V30.926H116.407C116.535 30.926 116.643 30.958 116.731 31.022C116.819 31.086 116.863 31.198 116.863 31.358C116.863 31.462 116.819 31.558 116.731 31.646C116.643 31.726 116.535 31.766 116.407 31.766H115.459V33.542C115.459 33.678 115.415 33.79 115.327 33.878C115.239 33.966 115.127 34.01 114.991 34.01ZM110.755 31.286L110.587 30.926H114.547V25.778L114.787 26.03L110.755 31.286Z" fill="black"/>
<path d="M113.492 53.01C112.9 53.01 112.392 52.822 111.968 52.446C111.544 52.07 111.22 51.534 110.996 50.838C110.78 50.134 110.672 49.29 110.672 48.306C110.672 47.338 110.78 46.502 110.996 45.798C111.22 45.094 111.544 44.554 111.968 44.178C112.392 43.802 112.9 43.614 113.492 43.614C114.1 43.614 114.612 43.806 115.028 44.19C115.452 44.566 115.772 45.106 115.988 45.81C116.212 46.514 116.324 47.346 116.324 48.306C116.324 49.282 116.212 50.122 115.988 50.826C115.772 51.522 115.452 52.062 115.028 52.446C114.612 52.822 114.1 53.01 113.492 53.01ZM113.492 52.074C113.924 52.074 114.28 51.914 114.56 51.594C114.84 51.266 115.048 50.818 115.184 50.25C115.32 49.682 115.388 49.034 115.388 48.306C115.388 47.586 115.316 46.946 115.172 46.386C115.036 45.818 114.828 45.37 114.548 45.042C114.268 44.714 113.916 44.55 113.492 44.55C113.068 44.55 112.716 44.714 112.436 45.042C112.164 45.362 111.956 45.806 111.812 46.374C111.676 46.942 111.608 47.586 111.608 48.306C111.608 49.042 111.676 49.694 111.812 50.262C111.956 50.822 112.164 51.266 112.436 51.594C112.716 51.914 113.068 52.074 113.492 52.074Z" fill="black"/>
<path d="M110.551 10.01C110.415 10.01 110.303 9.96601 110.215 9.87801C110.127 9.79001 110.083 9.67801 110.083 9.54201V1.10601C110.083 0.970009 110.127 0.858009 110.215 0.770009C110.303 0.682009 110.415 0.63801 110.551 0.63801H112.711C113.399 0.63801 114.027 0.754009 114.595 0.986009C115.171 1.21001 115.667 1.53401 116.083 1.95801C116.499 2.37401 116.819 2.86601 117.043 3.43401C117.275 4.00201 117.391 4.63001 117.391 5.31801C117.391 6.00601 117.275 6.63801 117.043 7.21401C116.819 7.78201 116.499 8.27801 116.083 8.70201C115.667 9.11801 115.171 9.44201 114.595 9.67401C114.027 9.89801 113.399 10.01 112.711 10.01H110.551ZM111.019 9.17001H112.711C113.447 9.17001 114.095 9.00601 114.655 8.67801C115.223 8.34201 115.667 7.88601 115.987 7.31001C116.307 6.72601 116.467 6.06201 116.467 5.31801C116.467 4.57401 116.307 3.91401 115.987 3.33801C115.667 2.75401 115.223 2.29801 114.655 1.97001C114.095 1.64201 113.447 1.47801 112.711 1.47801H111.019V9.17001Z" fill="black"/>
<rect x="104" y="19.01" width="20" height="19" fill="#D9D9D9"/>
<rect x="104.5" y="19.51" width="19" height="18" fill="#D9D9D9" stroke="black"/>
<rect x="124.5" y="57.51" width="19" height="18" fill="#D9D9D9" stroke="black"/>
<rect x="104" y="38.01" width="20" height="19" fill="#D9D9D9"/>
<rect x="104" y="38.01" width="20" height="19" fill="#D9D9D9"/>
<rect x="104.5" y="38.51" width="19" height="18" fill="#D9D9D9" stroke="black"/>
<rect x="104.5" y="57.51" width="19" height="18" fill="#D9D9D9" stroke="black"/>
<rect x="104.5" y="76.51" width="19" height="18" fill="#D9D9D9" stroke="black"/>
<rect x="84.5" y="57.51" width="19" height="18" fill="#D9D9D9" stroke="black"/>
<path d="M133.492 70.01C132.9 70.01 132.392 69.822 131.968 69.446C131.544 69.07 131.22 68.534 130.996 67.838C130.78 67.134 130.672 66.29 130.672 65.306C130.672 64.338 130.78 63.502 130.996 62.798C131.22 62.094 131.544 61.554 131.968 61.178C132.392 60.802 132.9 60.614 133.492 60.614C134.1 60.614 134.612 60.806 135.028 61.19C135.452 61.566 135.772 62.106 135.988 62.81C136.212 63.514 136.324 64.346 136.324 65.306C136.324 66.282 136.212 67.122 135.988 67.826C135.772 68.522 135.452 69.062 135.028 69.446C134.612 69.822 134.1 70.01 133.492 70.01ZM133.492 69.074C133.924 69.074 134.28 68.914 134.56 68.594C134.84 68.266 135.048 67.818 135.184 67.25C135.32 66.682 135.388 66.034 135.388 65.306C135.388 64.586 135.316 63.946 135.172 63.386C135.036 62.818 134.828 62.37 134.548 62.042C134.268 61.714 133.916 61.55 133.492 61.55C133.068 61.55 132.716 61.714 132.436 62.042C132.164 62.362 131.956 62.806 131.812 63.374C131.676 63.942 131.608 64.586 131.608 65.306C131.608 66.042 131.676 66.694 131.812 67.262C131.956 67.822 132.164 68.266 132.436 68.594C132.716 68.914 133.068 69.074 133.492 69.074Z" fill="black"/>
<path d="M114.991 89.01C114.871 89.01 114.767 88.966 114.679 88.878C114.591 88.79 114.547 88.678 114.547 88.542V86.766H110.251C110.123 86.766 110.015 86.726 109.927 86.646C109.847 86.558 109.799 86.458 109.783 86.346C109.775 86.234 109.807 86.13 109.879 86.034L114.631 79.818C114.671 79.762 114.719 79.718 114.775 79.686C114.839 79.646 114.919 79.626 115.015 79.626C115.143 79.626 115.247 79.674 115.327 79.77C115.415 79.858 115.459 79.97 115.459 80.106V85.926H116.407C116.535 85.926 116.643 85.958 116.731 86.022C116.819 86.086 116.863 86.198 116.863 86.358C116.863 86.462 116.819 86.558 116.731 86.646C116.643 86.726 116.535 86.766 116.407 86.766H115.459V88.542C115.459 88.678 115.415 88.79 115.327 88.878C115.239 88.966 115.127 89.01 114.991 89.01ZM110.755 86.286L110.587 85.926H114.547V80.778L114.787 81.03L110.755 86.286Z" fill="black"/>
<path d="M94.9912 71.01C94.8712 71.01 94.7672 70.966 94.6792 70.878C94.5912 70.79 94.5472 70.678 94.5472 70.542V68.766H90.2512C90.1232 68.766 90.0152 68.726 89.9272 68.646C89.8472 68.558 89.7992 68.458 89.7832 68.346C89.7752 68.234 89.8072 68.13 89.8792 68.034L94.6312 61.818C94.6712 61.762 94.7192 61.718 94.7752 61.686C94.8392 61.646 94.9192 61.626 95.0152 61.626C95.1432 61.626 95.2472 61.674 95.3272 61.77C95.4152 61.858 95.4592 61.97 95.4592 62.106V67.926H96.4072C96.5352 67.926 96.6432 67.958 96.7312 68.022C96.8192 68.086 96.8632 68.198 96.8632 68.358C96.8632 68.462 96.8192 68.558 96.7312 68.646C96.6432 68.726 96.5352 68.766 96.4072 68.766H95.4592V70.542C95.4592 70.678 95.4152 70.79 95.3272 70.878C95.2392 70.966 95.1272 71.01 94.9912 71.01ZM90.7552 68.286L90.5872 67.926H94.5472V62.778L94.7872 63.03L90.7552 68.286Z" fill="black"/>
<path d="M114.991 70.01C114.871 70.01 114.767 69.966 114.679 69.878C114.591 69.79 114.547 69.678 114.547 69.542V67.766H110.251C110.123 67.766 110.015 67.726 109.927 67.646C109.847 67.558 109.799 67.458 109.783 67.346C109.775 67.234 109.807 67.13 109.879 67.034L114.631 60.818C114.671 60.762 114.719 60.718 114.775 60.686C114.839 60.646 114.919 60.626 115.015 60.626C115.143 60.626 115.247 60.674 115.327 60.77C115.415 60.858 115.459 60.97 115.459 61.106V66.926H116.407C116.535 66.926 116.643 66.958 116.731 67.022C116.819 67.086 116.863 67.198 116.863 67.358C116.863 67.462 116.819 67.558 116.731 67.646C116.643 67.726 116.535 67.766 116.407 67.766H115.459V69.542C115.459 69.678 115.415 69.79 115.327 69.878C115.239 69.966 115.127 70.01 114.991 70.01ZM110.755 67.286L110.587 66.926H114.547V61.778L114.787 62.03L110.755 67.286Z" fill="black"/>
<path d="M114.991 34.01C114.871 34.01 114.767 33.966 114.679 33.878C114.591 33.79 114.547 33.678 114.547 33.542V31.766H110.251C110.123 31.766 110.015 31.726 109.927 31.646C109.847 31.558 109.799 31.458 109.783 31.346C109.775 31.234 109.807 31.13 109.879 31.034L114.631 24.818C114.671 24.762 114.719 24.718 114.775 24.686C114.839 24.646 114.919 24.626 115.015 24.626C115.143 24.626 115.247 24.674 115.327 24.77C115.415 24.858 115.459 24.97 115.459 25.106V30.926H116.407C116.535 30.926 116.643 30.958 116.731 31.022C116.819 31.086 116.863 31.198 116.863 31.358C116.863 31.462 116.819 31.558 116.731 31.646C116.643 31.726 116.535 31.766 116.407 31.766H115.459V33.542C115.459 33.678 115.415 33.79 115.327 33.878C115.239 33.966 115.127 34.01 114.991 34.01ZM110.755 31.286L110.587 30.926H114.547V25.778L114.787 26.03L110.755 31.286Z" fill="black"/>
<path d="M113.492 53.01C112.9 53.01 112.392 52.822 111.968 52.446C111.544 52.07 111.22 51.534 110.996 50.838C110.78 50.134 110.672 49.29 110.672 48.306C110.672 47.338 110.78 46.502 110.996 45.798C111.22 45.094 111.544 44.554 111.968 44.178C112.392 43.802 112.9 43.614 113.492 43.614C114.1 43.614 114.612 43.806 115.028 44.19C115.452 44.566 115.772 45.106 115.988 45.81C116.212 46.514 116.324 47.346 116.324 48.306C116.324 49.282 116.212 50.122 115.988 50.826C115.772 51.522 115.452 52.062 115.028 52.446C114.612 52.822 114.1 53.01 113.492 53.01ZM113.492 52.074C113.924 52.074 114.28 51.914 114.56 51.594C114.84 51.266 115.048 50.818 115.184 50.25C115.32 49.682 115.388 49.034 115.388 48.306C115.388 47.586 115.316 46.946 115.172 46.386C115.036 45.818 114.828 45.37 114.548 45.042C114.268 44.714 113.916 44.55 113.492 44.55C113.068 44.55 112.716 44.714 112.436 45.042C112.164 45.362 111.956 45.806 111.812 46.374C111.676 46.942 111.608 47.586 111.608 48.306C111.608 49.042 111.676 49.694 111.812 50.262C111.956 50.822 112.164 51.266 112.436 51.594C112.716 51.914 113.068 52.074 113.492 52.074Z" fill="black"/>
</svg>
