<svg width="480" height="250" viewBox="0 0 480 250" fill="none" xmlns="http://www.w3.org/2000/svg">
<g id="penney-intrasitive">
<rect width="480" height="250" fill="white"/>
<rect id="Rectangle 1" x="187.5" y="63.5" width="131" height="64" fill="white" stroke="black"/>
<rect id="Rectangle 2" x="26.5" y="63.5" width="131" height="64" fill="white" stroke="black"/>
<rect id="Rectangle 3" x="351.5" y="63.5" width="89" height="64" fill="white" stroke="#E14646"/>
<path id="arrow1" d="M72.3536 77.3536C72.5488 77.1583 72.5488 76.8417 72.3536 76.6464L69.1716 73.4645C68.9763 73.2692 68.6597 73.2692 68.4645 73.4645C68.2692 73.6597 68.2692 73.9763 68.4645 74.1716L71.2929 77L68.4645 79.8284C68.2692 80.0237 68.2692 80.3403 68.4645 80.5355C68.6597 80.7308 68.9763 80.7308 69.1716 80.5355L72.3536 77.3536ZM58 77.5H72V76.5H58V77.5Z" fill="black"/>
<path id="arrow1_2" d="M120.354 77.3536C120.549 77.1583 120.549 76.8417 120.354 76.6464L117.172 73.4645C116.976 73.2692 116.66 73.2692 116.464 73.4645C116.269 73.6597 116.269 73.9763 116.464 74.1716L119.293 77L116.464 79.8284C116.269 80.0237 116.269 80.3403 116.464 80.5355C116.66 80.7308 116.976 80.7308 117.172 80.5355L120.354 77.3536ZM106 77.5H120V76.5H106V77.5Z" fill="black"/>
<path id="arrow1_3" d="M138.646 102.354C138.842 102.549 139.158 102.549 139.354 102.354L142.536 99.1716C142.731 98.9763 142.731 98.6597 142.536 98.4645C142.34 98.2692 142.024 98.2692 141.828 98.4645L139 101.293L136.172 98.4645C135.976 98.2692 135.66 98.2692 135.464 98.4645C135.269 98.6597 135.269 98.9763 135.464 99.1716L138.646 102.354ZM138.5 88V102H139.5V88H138.5Z" fill="black"/>
<path id="arrow1_4" d="M91.3536 87.6464C91.1583 87.4512 90.8417 87.4512 90.6464 87.6464L87.4645 90.8284C87.2692 91.0237 87.2692 91.3403 87.4645 91.5355C87.6597 91.7308 87.9763 91.7308 88.1716 91.5355L91 88.7071L93.8284 91.5355C94.0237 91.7308 94.3403 91.7308 94.5355 91.5355C94.7308 91.3403 94.7308 91.0237 94.5355 90.8284L91.3536 87.6464ZM91.5 102V88H90.5V102H91.5Z" fill="black"/>
<path id="arrow1_5" d="M105.646 112.646C105.451 112.842 105.451 113.158 105.646 113.354L108.828 116.536C109.024 116.731 109.34 116.731 109.536 116.536C109.731 116.34 109.731 116.024 109.536 115.828L106.707 113L109.536 110.172C109.731 109.976 109.731 109.66 109.536 109.464C109.34 109.269 109.024 109.269 108.828 109.464L105.646 112.646ZM120 112.5H106V113.5H120V112.5Z" fill="black"/>
<path id="HHH" d="M32.2772 81V73.7273H33.1578V76.9659H37.0357V73.7273H37.9164V81H37.0357V77.7472H33.1578V81H32.2772ZM39.6795 81V73.7273H40.5602V76.9659H44.438V73.7273H45.3187V81H44.438V77.7472H40.5602V81H39.6795ZM47.0819 81V73.7273H47.9625V76.9659H51.8404V73.7273H52.7211V81H51.8404V77.7472H47.9625V81H47.0819Z" fill="#5200FF"/>
<path id="TTT" d="M193.359 74.5085V73.7273H198.813V74.5085H196.527V81H195.646V74.5085H193.359ZM199.775 74.5085V73.7273H205.229V74.5085H202.943V81H202.062V74.5085H199.775ZM206.191 74.5085V73.7273H211.646V74.5085H209.359V81H208.478V74.5085H206.191Z" fill="#5200FF"/>
<path id="THH" d="M80.3726 74.5085V73.7273H85.8271V74.5085H83.5402V81H82.6595V74.5085H80.3726ZM87.1863 81V73.7273H88.067V76.9659H91.9449V73.7273H92.8256V81H91.9449V77.7472H88.067V81H87.1863ZM94.5887 81V73.7273H95.4694V76.9659H99.3472V73.7273H100.228V81H99.3472V77.7472H95.4694V81H94.5887Z" fill="black"/>
<path id="TTH" d="M128.866 74.5085V73.7273H134.32V74.5085H132.033V81H131.153V74.5085H128.866ZM135.282 74.5085V73.7273H140.736V74.5085H138.449V81H137.569V74.5085H135.282ZM142.096 81V73.7273H142.976V76.9659H146.854V73.7273H147.735V81H146.854V77.7472H142.976V81H142.096Z" fill="black"/>
<path id="HTT" d="M129.263 117V109.727H130.144V112.966H134.022V109.727H134.903V117H134.022V113.747H130.144V117H129.263ZM136.268 110.509V109.727H141.723V110.509H139.436V117H138.555V110.509H136.268ZM142.684 110.509V109.727H148.139V110.509H145.852V117H144.971V110.509H142.684Z" fill="black"/>
<path id="HHT" d="M80.7703 117V109.727H81.651V112.966H85.5289V109.727H86.4095V117H85.5289V113.747H81.651V117H80.7703ZM88.1727 117V109.727H89.0534V112.966H92.9312V109.727H93.8119V117H92.9312V113.747H89.0534V117H88.1727ZM95.1773 110.509V109.727H100.632V110.509H98.3449V117H97.4642V110.509H95.1773Z" fill="black"/>
<rect id="Rectangle 4" x="187.5" y="159.5" width="131" height="58" fill="white" stroke="black"/>
<rect id="Rectangle 5" x="26.5" y="159.5" width="131" height="58" fill="white" stroke="black"/>
<path id="arrow1_6" d="M72.3536 170.354C72.5488 170.158 72.5488 169.842 72.3536 169.646L69.1716 166.464C68.9763 166.269 68.6597 166.269 68.4645 166.464C68.2692 166.66 68.2692 166.976 68.4645 167.172L71.2929 170L68.4645 172.828C68.2692 173.024 68.2692 173.34 68.4645 173.536C68.6597 173.731 68.9763 173.731 69.1716 173.536L72.3536 170.354ZM58 170.5H72V169.5H58V170.5Z" fill="black"/>
<path id="arrow1_7" d="M120.354 170.354C120.549 170.158 120.549 169.842 120.354 169.646L117.172 166.464C116.976 166.269 116.66 166.269 116.464 166.464C116.269 166.66 116.269 166.976 116.464 167.172L119.293 170L116.464 172.828C116.269 173.024 116.269 173.34 116.464 173.536C116.66 173.731 116.976 173.731 117.172 173.536L120.354 170.354ZM106 170.5H120V169.5H106V170.5Z" fill="black"/>
<path id="arrow1_8" d="M138.646 195.354C138.842 195.549 139.158 195.549 139.354 195.354L142.536 192.172C142.731 191.976 142.731 191.66 142.536 191.464C142.34 191.269 142.024 191.269 141.828 191.464L139 194.293L136.172 191.464C135.976 191.269 135.66 191.269 135.464 191.464C135.269 191.66 135.269 191.976 135.464 192.172L138.646 195.354ZM138.5 181V195H139.5V181H138.5Z" fill="black"/>
<path id="arrow1_9" d="M91.3536 180.646C91.1583 180.451 90.8417 180.451 90.6464 180.646L87.4645 183.828C87.2692 184.024 87.2692 184.34 87.4645 184.536C87.6597 184.731 87.9763 184.731 88.1716 184.536L91 181.707L93.8284 184.536C94.0237 184.731 94.3403 184.731 94.5355 184.536C94.7308 184.34 94.7308 184.024 94.5355 183.828L91.3536 180.646ZM91.5 195V181H90.5V195H91.5Z" fill="black"/>
<path id="arrow1_10" d="M105.646 205.646C105.451 205.842 105.451 206.158 105.646 206.354L108.828 209.536C109.024 209.731 109.34 209.731 109.536 209.536C109.731 209.34 109.731 209.024 109.536 208.828L106.707 206L109.536 203.172C109.731 202.976 109.731 202.66 109.536 202.464C109.34 202.269 109.024 202.269 108.828 202.464L105.646 205.646ZM120 205.5H106V206.5H120V205.5Z" fill="black"/>
<path id="HTH" d="M31.7703 174V166.727H32.651V169.966H36.5289V166.727H37.4095V174H36.5289V170.747H32.651V174H31.7703ZM38.7749 167.509V166.727H44.2295V167.509H41.9426V174H41.0619V167.509H38.7749ZM45.5887 174V166.727H46.4694V169.966H50.3472V166.727H51.2279V174H50.3472V170.747H46.4694V174H45.5887Z" fill="#5200FF"/>
<path id="HHT_2" d="M80.7703 174V166.727H81.651V169.966H85.5289V166.727H86.4095V174H85.5289V170.747H81.651V174H80.7703ZM88.1727 174V166.727H89.0534V169.966H92.9312V166.727H93.8119V174H92.9312V170.747H89.0534V174H88.1727ZM95.1773 167.509V166.727H100.632V167.509H98.3449V174H97.4642V167.509H95.1773Z" fill="black"/>
<path id="THH_2" d="M128.373 167.509V166.727H133.827V167.509H131.54V174H130.66V167.509H128.373ZM135.186 174V166.727H136.067V169.966H139.945V166.727H140.826V174H139.945V170.747H136.067V174H135.186ZM142.589 174V166.727H143.469V169.966H147.347V166.727H148.228V174H147.347V170.747H143.469V174H142.589Z" fill="black"/>
<path id="TTH_2" d="M128.866 203.509V202.727H134.32V203.509H132.033V210H131.153V203.509H128.866ZM135.282 203.509V202.727H140.736V203.509H138.449V210H137.569V203.509H135.282ZM142.096 210V202.727H142.976V205.966H146.854V202.727H147.735V210H146.854V206.747H142.976V210H142.096Z" fill="black"/>
<path id="HTT_2" d="M81.2635 210V202.727H82.1442V205.966H86.022V202.727H86.9027V210H86.022V206.747H82.1442V210H81.2635ZM88.2681 203.509V202.727H93.7227V203.509H91.4357V210H90.555V203.509H88.2681ZM94.6841 203.509V202.727H100.139V203.509H97.8517V210H96.9711V203.509H94.6841Z" fill="black"/>
<path id="arrow1_11" d="M237.354 170.354C237.549 170.158 237.549 169.842 237.354 169.646L234.172 166.464C233.976 166.269 233.66 166.269 233.464 166.464C233.269 166.66 233.269 166.976 233.464 167.172L236.293 170L233.464 172.828C233.269 173.024 233.269 173.34 233.464 173.536C233.66 173.731 233.976 173.731 234.172 173.536L237.354 170.354ZM223 170.5H237V169.5H223V170.5Z" fill="black"/>
<path id="arrow1_12" d="M285.354 170.354C285.549 170.158 285.549 169.842 285.354 169.646L282.172 166.464C281.976 166.269 281.66 166.269 281.464 166.464C281.269 166.66 281.269 166.976 281.464 167.172L284.293 170L281.464 172.828C281.269 173.024 281.269 173.34 281.464 173.536C281.66 173.731 281.976 173.731 282.172 173.536L285.354 170.354ZM271 170.5H285V169.5H271V170.5Z" fill="black"/>
<path id="arrow1_13" d="M303.646 195.354C303.842 195.549 304.158 195.549 304.354 195.354L307.536 192.172C307.731 191.976 307.731 191.66 307.536 191.464C307.34 191.269 307.024 191.269 306.828 191.464L304 194.293L301.172 191.464C300.976 191.269 300.66 191.269 300.464 191.464C300.269 191.66 300.269 191.976 300.464 192.172L303.646 195.354ZM303.5 181V195H304.5V181H303.5Z" fill="black"/>
<path id="arrow1_14" d="M256.354 180.646C256.158 180.451 255.842 180.451 255.646 180.646L252.464 183.828C252.269 184.024 252.269 184.34 252.464 184.536C252.66 184.731 252.976 184.731 253.172 184.536L256 181.707L258.828 184.536C259.024 184.731 259.34 184.731 259.536 184.536C259.731 184.34 259.731 184.024 259.536 183.828L256.354 180.646ZM256.5 195V181H255.5V195H256.5Z" fill="black"/>
<path id="arrow1_15" d="M270.646 205.646C270.451 205.842 270.451 206.158 270.646 206.354L273.828 209.536C274.024 209.731 274.34 209.731 274.536 209.536C274.731 209.34 274.731 209.024 274.536 208.828L271.707 206L274.536 203.172C274.731 202.976 274.731 202.66 274.536 202.464C274.34 202.269 274.024 202.269 273.828 202.464L270.646 205.646ZM285 205.5H271V206.5H285V205.5Z" fill="black"/>
<path id="THT" d="M192.866 167.509V166.727H198.32V167.509H196.033V174H195.153V167.509H192.866ZM199.68 174V166.727H200.56V169.966H204.438V166.727H205.319V174H204.438V170.747H200.56V174H199.68ZM206.684 167.509V166.727H212.139V167.509H209.852V174H208.971V167.509H206.684Z" fill="#5200FF"/>
<path id="TTH_3" d="M245.866 167.509V166.727H251.32V167.509H249.033V174H248.153V167.509H245.866ZM252.282 167.509V166.727H257.736V167.509H255.449V174H254.569V167.509H252.282ZM259.096 174V166.727H259.976V169.966H263.854V166.727H264.735V174H263.854V170.747H259.976V174H259.096Z" fill="black"/>
<path id="HTT_3" d="M294.263 174V166.727H295.144V169.966H299.022V166.727H299.903V174H299.022V170.747H295.144V174H294.263ZM301.268 167.509V166.727H306.723V167.509H304.436V174H303.555V167.509H301.268ZM307.684 167.509V166.727H313.139V167.509H310.852V174H309.971V167.509H307.684Z" fill="black"/>
<path id="HHT_3" d="M293.77 210V202.727H294.651V205.966H298.529V202.727H299.41V210H298.529V206.747H294.651V210H293.77ZM301.173 210V202.727H302.053V205.966H305.931V202.727H306.812V210H305.931V206.747H302.053V210H301.173ZM308.177 203.509V202.727H313.632V203.509H311.345V210H310.464V203.509H308.177Z" fill="black"/>
<path id="THH_3" d="M245.373 203.509V202.727H250.827V203.509H248.54V210H247.66V203.509H245.373ZM252.186 210V202.727H253.067V205.966H256.945V202.727H257.826V210H256.945V206.747H253.067V210H252.186ZM259.589 210V202.727H260.469V205.966H264.347V202.727H265.228V210H264.347V206.747H260.469V210H259.589Z" fill="black"/>
<path id="arrow1 (Stroke)" fill-rule="evenodd" clip-rule="evenodd" d="M229.172 73.4645L232.354 76.6465C232.549 76.8417 232.549 77.1583 232.354 77.3536L229.172 80.5355C228.976 80.7308 228.66 80.7308 228.464 80.5355C228.269 80.3403 228.269 80.0237 228.464 79.8284L230.793 77.5H218V76.5H230.793L228.464 74.1716C228.269 73.9763 228.269 73.6597 228.464 73.4645C228.66 73.2692 228.976 73.2692 229.172 73.4645Z" fill="black"/>
<path id="arrow1 (Stroke)_2" fill-rule="evenodd" clip-rule="evenodd" d="M277.172 73.4645L280.354 76.6465C280.549 76.8417 280.549 77.1583 280.354 77.3536L277.172 80.5355C276.976 80.7308 276.66 80.7308 276.464 80.5355C276.269 80.3403 276.269 80.0237 276.464 79.8284L278.793 77.5H266V76.5H278.793L276.464 74.1716C276.269 73.9763 276.269 73.6597 276.464 73.4645C276.66 73.2692 276.976 73.2692 277.172 73.4645Z" fill="black"/>
<path id="arrow1 (Stroke)_3" fill-rule="evenodd" clip-rule="evenodd" d="M302.536 99.1716L299.354 102.354C299.158 102.549 298.842 102.549 298.646 102.354L295.464 99.1716C295.269 98.9763 295.269 98.6597 295.464 98.4645C295.66 98.2692 295.976 98.2692 296.172 98.4645L298.5 100.793V88H299.5V100.793L301.828 98.4645C302.024 98.2692 302.34 98.2692 302.536 98.4645C302.731 98.6597 302.731 98.9763 302.536 99.1716Z" fill="black"/>
<path id="arrow1 (Stroke)_4" fill-rule="evenodd" clip-rule="evenodd" d="M247.464 90.8284L250.646 87.6464C250.842 87.4512 251.158 87.4512 251.354 87.6464L254.536 90.8284C254.731 91.0237 254.731 91.3403 254.536 91.5355C254.34 91.7308 254.024 91.7308 253.828 91.5355L251.5 89.2071V102H250.5V89.2071L248.172 91.5355C247.976 91.7308 247.66 91.7308 247.464 91.5355C247.269 91.3403 247.269 91.0237 247.464 90.8284Z" fill="black"/>
<path id="arrow1 (Stroke)_5" fill-rule="evenodd" clip-rule="evenodd" d="M268.828 116.536L265.646 113.354C265.451 113.158 265.451 112.842 265.646 112.646L268.828 109.464C269.024 109.269 269.34 109.269 269.536 109.464C269.731 109.66 269.731 109.976 269.536 110.172L267.207 112.5H280V113.5H267.207L269.536 115.828C269.731 116.024 269.731 116.34 269.536 116.536C269.34 116.731 269.024 116.731 268.828 116.536Z" fill="black"/>
<g id="HTT_4">
<path d="M241.263 81V73.7273H242.144V76.9659H246.022V73.7273H246.903V81H246.022V77.7472H242.144V81H241.263Z" fill="black"/>
<path d="M248.268 74.5085V73.7273H253.723V74.5085H251.436V81H250.555V74.5085H248.268Z" fill="black"/>
<path d="M254.684 74.5085V73.7273H260.139V74.5085H257.852V81H256.971V74.5085H254.684Z" fill="black"/>
</g>
<g id="HHT_4">
<path d="M288.77 81V73.7273H289.651V76.9659H293.529V73.7273H294.409V81H293.529V77.7472H289.651V81H288.77Z" fill="black"/>
<path d="M296.173 81V73.7273H297.053V76.9659H300.931V73.7273H301.812V81H300.931V77.7472H297.053V81H296.173Z" fill="black"/>
<path d="M303.177 74.5085V73.7273H308.632V74.5085H306.345V81H305.464V74.5085H303.177Z" fill="black"/>
</g>
<g id="THH_4">
<path d="M288.373 110.509V109.727H293.827V110.509H291.54V117H290.659V110.509H288.373Z" fill="black"/>
<path d="M295.186 117V109.727H296.067V112.966H299.945V109.727H300.826V117H299.945V113.747H296.067V117H295.186Z" fill="black"/>
<path d="M302.589 117V109.727H303.469V112.966H307.347V109.727H308.228V117H307.347V113.747H303.469V117H302.589Z" fill="black"/>
</g>
<g id="TTH_4">
<path d="M240.866 110.509V109.727H246.32V110.509H244.033V117H243.153V110.509H240.866Z" fill="black"/>
<path d="M247.282 110.509V109.727H252.736V110.509H250.449V117H249.569V110.509H247.282Z" fill="black"/>
<path d="M254.095 117V109.727H254.976V112.966H258.854V109.727H259.735V117H258.854V113.747H254.976V117H254.095Z" fill="black"/>
</g>
<path id="arrow1_16" d="M402.354 77.3536C402.549 77.1583 402.549 76.8417 402.354 76.6464L399.172 73.4645C398.976 73.2692 398.66 73.2692 398.464 73.4645C398.269 73.6597 398.269 73.9763 398.464 74.1716L401.293 77L398.464 79.8284C398.269 80.0237 398.269 80.3403 398.464 80.5355C398.66 80.7308 398.976 80.7308 399.172 80.5355L402.354 77.3536ZM388 77.5H402V76.5H388V77.5Z" fill="black"/>
<path id="arrow1_17" d="M420.646 102.354C420.842 102.549 421.158 102.549 421.354 102.354L424.536 99.1716C424.731 98.9763 424.731 98.6597 424.536 98.4645C424.34 98.2692 424.024 98.2692 423.828 98.4645L421 101.293L418.172 98.4645C417.976 98.2692 417.66 98.2692 417.464 98.4645C417.269 98.6597 417.269 98.9763 417.464 99.1716L420.646 102.354ZM420.5 88V102H421.5V88H420.5Z" fill="black"/>
<path id="arrow1_18" d="M373.354 87.6464C373.158 87.4512 372.842 87.4512 372.646 87.6464L369.464 90.8284C369.269 91.0237 369.269 91.3403 369.464 91.5355C369.66 91.7308 369.976 91.7308 370.172 91.5355L373 88.7071L375.828 91.5355C376.024 91.7308 376.34 91.7308 376.536 91.5355C376.731 91.3403 376.731 91.0237 376.536 90.8284L373.354 87.6464ZM373.5 102V88H372.5V102H373.5Z" fill="black"/>
<path id="arrow1_19" d="M387.646 112.646C387.451 112.842 387.451 113.158 387.646 113.354L390.828 116.536C391.024 116.731 391.34 116.731 391.536 116.536C391.731 116.34 391.731 116.024 391.536 115.828L388.707 113L391.536 110.172C391.731 109.976 391.731 109.66 391.536 109.464C391.34 109.269 391.024 109.269 390.828 109.464L387.646 112.646ZM402 112.5H388V113.5H402V112.5Z" fill="black"/>
<path id="HTT_5" d="M363.263 81V73.7273H364.144V76.9659H368.022V73.7273H368.903V81H368.022V77.7472H364.144V81H363.263ZM370.268 74.5085V73.7273H375.723V74.5085H373.436V81H372.555V74.5085H370.268ZM376.684 74.5085V73.7273H382.139V74.5085H379.852V81H378.971V74.5085H376.684Z" fill="black"/>
<path id="HHT_5" d="M410.77 81V73.7273H411.651V76.9659H415.529V73.7273H416.41V81H415.529V77.7472H411.651V81H410.77ZM418.173 81V73.7273H419.053V76.9659H422.931V73.7273H423.812V81H422.931V77.7472H419.053V81H418.173ZM425.177 74.5085V73.7273H430.632V74.5085H428.345V81H427.464V74.5085H425.177Z" fill="black"/>
<path id="THH_5" d="M410.373 110.509V109.727H415.827V110.509H413.54V117H412.66V110.509H410.373ZM417.186 117V109.727H418.067V112.966H421.945V109.727H422.826V117H421.945V113.747H418.067V117H417.186ZM424.589 117V109.727H425.469V112.966H429.347V109.727H430.228V117H429.347V113.747H425.469V117H424.589Z" fill="black"/>
<path id="TTH_5" d="M362.866 110.509V109.727H368.32V110.509H366.033V117H365.153V110.509H362.866ZM369.282 110.509V109.727H374.736V110.509H372.449V117H371.569V110.509H369.282ZM376.096 117V109.727H376.976V112.966H380.854V109.727H381.735V117H380.854V113.747H376.976V117H376.096Z" fill="black"/>
<g id="key">
<path id="destination beats origin" d="M26.5425 19.1136C26.088 19.1136 25.6867 18.9988 25.3387 18.7692C24.9907 18.5372 24.7184 18.2105 24.5219 17.7891C24.3254 17.3653 24.2272 16.8646 24.2272 16.2869C24.2272 15.714 24.3254 15.2169 24.5219 14.7955C24.7184 14.3741 24.9919 14.0485 25.3422 13.8189C25.6926 13.5893 26.0974 13.4744 26.5567 13.4744C26.9118 13.4744 27.1924 13.5336 27.3983 13.652C27.6067 13.768 27.7653 13.9006 27.8742 14.0497C27.9855 14.1965 28.0719 14.3172 28.1334 14.4119H28.2045V11.7273H29.0425V19H28.2329V18.1619H28.1334C28.0719 18.2614 27.9843 18.3868 27.8706 18.5384C27.757 18.6875 27.5948 18.8213 27.3841 18.9396C27.1734 19.0556 26.8929 19.1136 26.5425 19.1136ZM26.6562 18.3608C26.9923 18.3608 27.2764 18.2732 27.5084 18.098C27.7404 17.9205 27.9168 17.6754 28.0376 17.3629C28.1583 17.0481 28.2187 16.6847 28.2187 16.2727C28.2187 15.8655 28.1595 15.5092 28.0411 15.2038C27.9227 14.8961 27.7475 14.657 27.5155 14.4865C27.2835 14.3137 26.9971 14.2273 26.6562 14.2273C26.301 14.2273 26.0051 14.3184 25.7684 14.5007C25.534 14.6806 25.3576 14.9257 25.2393 15.2358C25.1233 15.5436 25.0653 15.8892 25.0653 16.2727C25.0653 16.661 25.1244 17.0137 25.2428 17.331C25.3635 17.6458 25.5411 17.8968 25.7755 18.0838C26.0122 18.2685 26.3058 18.3608 26.6562 18.3608ZM32.9807 19.1136C32.4552 19.1136 32.0018 18.9976 31.6206 18.7656C31.2419 18.5312 30.9495 18.2045 30.7435 17.7855C30.5399 17.3641 30.4381 16.8741 30.4381 16.3153C30.4381 15.7566 30.5399 15.2642 30.7435 14.8381C30.9495 14.4096 31.2359 14.0758 31.6029 13.8366C31.9722 13.5952 32.4031 13.4744 32.8955 13.4744C33.1796 13.4744 33.4601 13.5218 33.7371 13.6165C34.0141 13.7112 34.2662 13.8651 34.4935 14.0781C34.7208 14.2888 34.9019 14.5682 35.0368 14.9162C35.1718 15.2642 35.2393 15.6927 35.2393 16.2017V16.5568H31.0347V15.8324H34.387C34.387 15.5246 34.3254 15.25 34.2023 15.0085C34.0816 14.767 33.9088 14.5765 33.6839 14.4368C33.4613 14.2971 33.1985 14.2273 32.8955 14.2273C32.5617 14.2273 32.2729 14.3101 32.029 14.4759C31.7876 14.6392 31.6017 14.8523 31.4715 15.1151C31.3413 15.3778 31.2762 15.6596 31.2762 15.9602V16.4432C31.2762 16.8551 31.3472 17.2043 31.4893 17.4908C31.6337 17.7749 31.8337 17.9915 32.0894 18.1406C32.3451 18.2874 32.6422 18.3608 32.9807 18.3608C33.2009 18.3608 33.3998 18.33 33.5773 18.2685C33.7573 18.2045 33.9123 18.1098 34.0425 17.9844C34.1727 17.8565 34.2733 17.6979 34.3444 17.5085L35.154 17.7358C35.0688 18.0104 34.9256 18.2519 34.7243 18.4602C34.5231 18.6662 34.2745 18.8272 33.9786 18.9432C33.6827 19.0568 33.3501 19.1136 32.9807 19.1136ZM40.3778 14.767L39.6249 14.9801C39.5776 14.8546 39.5077 14.7327 39.4154 14.6143C39.3254 14.4936 39.2023 14.3942 39.0461 14.3161C38.8898 14.2379 38.6898 14.1989 38.4459 14.1989C38.1121 14.1989 37.834 14.2758 37.6114 14.4297C37.3912 14.5812 37.2812 14.7741 37.2812 15.0085C37.2812 15.2169 37.3569 15.3814 37.5084 15.5021C37.6599 15.6229 37.8967 15.7235 38.2187 15.804L39.0283 16.0028C39.516 16.1212 39.8794 16.3023 40.1185 16.5462C40.3576 16.7876 40.4772 17.099 40.4772 17.4801C40.4772 17.7926 40.3872 18.072 40.2073 18.3182C40.0297 18.5644 39.7812 18.7585 39.4616 18.9006C39.142 19.0426 38.7703 19.1136 38.3465 19.1136C37.7902 19.1136 37.3297 18.9929 36.9651 18.7514C36.6005 18.5099 36.3697 18.1572 36.2726 17.6932L37.0681 17.4943C37.1439 17.7879 37.2871 18.008 37.4978 18.1548C37.7108 18.3016 37.989 18.375 38.3323 18.375C38.7229 18.375 39.0331 18.2921 39.2627 18.1264C39.4947 17.9583 39.6107 17.7571 39.6107 17.5227C39.6107 17.3333 39.5444 17.1747 39.4118 17.0469C39.2793 16.9167 39.0757 16.8196 38.801 16.7557L37.892 16.5426C37.3924 16.4242 37.0255 16.2408 36.7911 15.9922C36.5591 15.7412 36.4431 15.4276 36.4431 15.0511C36.4431 14.7434 36.5295 14.4711 36.7023 14.2344C36.8775 13.9976 37.1154 13.8118 37.4161 13.6768C37.7191 13.5419 38.0624 13.4744 38.4459 13.4744C38.9857 13.4744 39.4095 13.5928 39.7172 13.8295C40.0274 14.0663 40.2475 14.3788 40.3778 14.767ZM44.1109 13.5455V14.2557H41.2842V13.5455H44.1109ZM42.108 12.2386H42.9461V17.4375C42.9461 17.6742 42.9804 17.8518 43.0491 17.9702C43.1201 18.0862 43.2101 18.1643 43.319 18.2045C43.4302 18.2424 43.5474 18.2614 43.6705 18.2614C43.7629 18.2614 43.8386 18.2566 43.8978 18.2472C43.957 18.2353 44.0044 18.2259 44.0399 18.2188L44.2103 18.9716C44.1535 18.9929 44.0742 19.0142 43.9724 19.0355C43.8706 19.0592 43.7416 19.071 43.5853 19.071C43.3486 19.071 43.1166 19.0201 42.8893 18.9183C42.6644 18.8165 42.4774 18.6615 42.3282 18.4531C42.1814 18.2448 42.108 17.982 42.108 17.6648V12.2386ZM45.3715 19V13.5455H46.2096V19H45.3715ZM45.7977 12.6364C45.6343 12.6364 45.4935 12.5807 45.3751 12.4695C45.2591 12.3582 45.2011 12.2244 45.2011 12.0682C45.2011 11.9119 45.2591 11.7782 45.3751 11.6669C45.4935 11.5556 45.6343 11.5 45.7977 11.5C45.961 11.5 46.1007 11.5556 46.2167 11.6669C46.3351 11.7782 46.3943 11.9119 46.3943 12.0682C46.3943 12.2244 46.3351 12.3582 46.2167 12.4695C46.1007 12.5807 45.961 12.6364 45.7977 12.6364ZM48.5827 15.7188V19H47.7446V13.5455H48.5542V14.3977H48.6253C48.7531 14.1207 48.9472 13.8982 49.2077 13.7301C49.4681 13.5597 49.8042 13.4744 50.2162 13.4744C50.5855 13.4744 50.9086 13.5502 51.1856 13.7017C51.4626 13.8509 51.6781 14.0781 51.8319 14.3835C51.9858 14.6866 52.0628 15.0701 52.0628 15.5341V19H51.2247V15.5909C51.2247 15.1624 51.1134 14.8286 50.8909 14.5895C50.6684 14.348 50.363 14.2273 49.9747 14.2273C49.7072 14.2273 49.4681 14.2853 49.2574 14.4013C49.049 14.5173 48.8845 14.6866 48.7638 14.9091C48.643 15.1316 48.5827 15.4015 48.5827 15.7188ZM55.1993 19.1278C54.8537 19.1278 54.54 19.0627 54.2583 18.9325C53.9765 18.8 53.7528 18.6094 53.5871 18.3608C53.4214 18.1098 53.3385 17.8068 53.3385 17.4517C53.3385 17.1392 53.4001 16.8859 53.5232 16.6918C53.6463 16.4953 53.8108 16.3414 54.0168 16.2301C54.2227 16.1188 54.45 16.036 54.6986 15.9815C54.9495 15.9247 55.2017 15.8797 55.455 15.8466C55.7864 15.804 56.0551 15.772 56.2611 15.7507C56.4694 15.727 56.6209 15.688 56.7156 15.6335C56.8127 15.5791 56.8612 15.4844 56.8612 15.3494V15.321C56.8612 14.9706 56.7654 14.6984 56.5736 14.5043C56.3842 14.3101 56.0966 14.2131 55.7107 14.2131C55.3106 14.2131 54.9969 14.3007 54.7696 14.4759C54.5423 14.651 54.3825 14.8381 54.2902 15.0369L53.4948 14.7528C53.6368 14.4214 53.8262 14.1634 54.0629 13.9787C54.3021 13.7917 54.5625 13.6615 54.8442 13.5881C55.1283 13.5123 55.4076 13.4744 55.6823 13.4744C55.8575 13.4744 56.0587 13.4957 56.286 13.5384C56.5156 13.5786 56.7369 13.6626 56.95 13.7905C57.1655 13.9183 57.3442 14.1113 57.4862 14.3693C57.6283 14.6274 57.6993 14.973 57.6993 15.4062V19H56.8612V18.2614H56.8186C56.7618 18.3797 56.6671 18.5064 56.5345 18.6413C56.402 18.7763 56.2256 18.8911 56.0054 18.9858C55.7852 19.0805 55.5165 19.1278 55.1993 19.1278ZM55.3271 18.375C55.6586 18.375 55.9379 18.3099 56.1652 18.1797C56.3949 18.0495 56.5677 17.8814 56.6837 17.6754C56.8021 17.4695 56.8612 17.2528 56.8612 17.0256V16.2585C56.8257 16.3011 56.7476 16.3402 56.6269 16.3757C56.5085 16.4089 56.3712 16.4384 56.2149 16.4645C56.061 16.4882 55.9107 16.5095 55.7639 16.5284C55.6195 16.545 55.5023 16.5592 55.4124 16.571C55.1946 16.5994 54.991 16.6456 54.8016 16.7095C54.6146 16.7711 54.463 16.8646 54.347 16.9901C54.2334 17.1132 54.1766 17.2812 54.1766 17.4943C54.1766 17.7855 54.2843 18.0057 54.4997 18.1548C54.7175 18.3016 54.9933 18.375 55.3271 18.375ZM61.6011 13.5455V14.2557H58.7744V13.5455H61.6011ZM59.5983 12.2386H60.4363V17.4375C60.4363 17.6742 60.4707 17.8518 60.5393 17.9702C60.6104 18.0862 60.7003 18.1643 60.8092 18.2045C60.9205 18.2424 61.0377 18.2614 61.1608 18.2614C61.2531 18.2614 61.3289 18.2566 61.3881 18.2472C61.4472 18.2353 61.4946 18.2259 61.5301 18.2188L61.7006 18.9716C61.6437 18.9929 61.5644 19.0142 61.4626 19.0355C61.3608 19.0592 61.2318 19.071 61.0756 19.071C60.8388 19.071 60.6068 19.0201 60.3795 18.9183C60.1546 18.8165 59.9676 18.6615 59.8184 18.4531C59.6717 18.2448 59.5983 17.982 59.5983 17.6648V12.2386ZM62.8618 19V13.5455H63.6998V19H62.8618ZM63.2879 12.6364C63.1246 12.6364 62.9837 12.5807 62.8653 12.4695C62.7493 12.3582 62.6913 12.2244 62.6913 12.0682C62.6913 11.9119 62.7493 11.7782 62.8653 11.6669C62.9837 11.5556 63.1246 11.5 63.2879 11.5C63.4513 11.5 63.5909 11.5556 63.7069 11.6669C63.8253 11.7782 63.8845 11.9119 63.8845 12.0682C63.8845 12.2244 63.8253 12.3582 63.7069 12.4695C63.5909 12.5807 63.4513 12.6364 63.2879 12.6364ZM67.4507 19.1136C66.9583 19.1136 66.5262 18.9964 66.1546 18.7621C65.7852 18.5277 65.4964 18.1998 65.2881 17.7784C65.0821 17.357 64.9791 16.8646 64.9791 16.3011C64.9791 15.733 65.0821 15.237 65.2881 14.8132C65.4964 14.3894 65.7852 14.0604 66.1546 13.826C66.5262 13.5916 66.9583 13.4744 67.4507 13.4744C67.9432 13.4744 68.374 13.5916 68.7433 13.826C69.115 14.0604 69.4039 14.3894 69.6098 14.8132C69.8182 15.237 69.9223 15.733 69.9223 16.3011C69.9223 16.8646 69.8182 17.357 69.6098 17.7784C69.4039 18.1998 69.115 18.5277 68.7433 18.7621C68.374 18.9964 67.9432 19.1136 67.4507 19.1136ZM67.4507 18.3608C67.8248 18.3608 68.1325 18.2649 68.374 18.0732C68.6155 17.8814 68.7942 17.6293 68.9102 17.3168C69.0262 17.0043 69.0843 16.6657 69.0843 16.3011C69.0843 15.9366 69.0262 15.5968 68.9102 15.282C68.7942 14.9671 68.6155 14.7126 68.374 14.5185C68.1325 14.3243 67.8248 14.2273 67.4507 14.2273C67.0767 14.2273 66.7689 14.3243 66.5274 14.5185C66.286 14.7126 66.1072 14.9671 65.9912 15.282C65.8752 15.5968 65.8172 15.9366 65.8172 16.3011C65.8172 16.6657 65.8752 17.0043 65.9912 17.3168C66.1072 17.6293 66.286 17.8814 66.5274 18.0732C66.7689 18.2649 67.0767 18.3608 67.4507 18.3608ZM72.0397 15.7188V19H71.2016V13.5455H72.0113V14.3977H72.0823C72.2101 14.1207 72.4043 13.8982 72.6647 13.7301C72.9251 13.5597 73.2613 13.4744 73.6732 13.4744C74.0425 13.4744 74.3657 13.5502 74.6427 13.7017C74.9197 13.8509 75.1351 14.0781 75.289 14.3835C75.4429 14.6866 75.5198 15.0701 75.5198 15.5341V19H74.6817V15.5909C74.6817 15.1624 74.5705 14.8286 74.3479 14.5895C74.1254 14.348 73.82 14.2273 73.4317 14.2273C73.1642 14.2273 72.9251 14.2853 72.7144 14.4013C72.5061 14.5173 72.3415 14.6866 72.2208 14.9091C72.1001 15.1316 72.0397 15.4015 72.0397 15.7188ZM23.0731 31V23.7273H23.9111V26.4119H23.9822C24.0437 26.3172 24.1289 26.1965 24.2378 26.0497C24.3491 25.9006 24.5077 25.768 24.7137 25.652C24.922 25.5336 25.2037 25.4744 25.5589 25.4744C26.0181 25.4744 26.423 25.5893 26.7733 25.8189C27.1237 26.0485 27.3972 26.3741 27.5937 26.7955C27.7902 27.2169 27.8884 27.714 27.8884 28.2869C27.8884 28.8646 27.7902 29.3653 27.5937 29.7891C27.3972 30.2105 27.1249 30.5372 26.7769 30.7692C26.4289 30.9988 26.0276 31.1136 25.5731 31.1136C25.2227 31.1136 24.9421 31.0556 24.7314 30.9396C24.5207 30.8213 24.3586 30.6875 24.2449 30.5384C24.1313 30.3868 24.0437 30.2614 23.9822 30.1619H23.8827V31H23.0731ZM23.8969 28.2727C23.8969 28.6847 23.9573 29.0481 24.078 29.3629C24.1988 29.6754 24.3751 29.9205 24.6072 30.098C24.8392 30.2732 25.1233 30.3608 25.4594 30.3608C25.8098 30.3608 26.1022 30.2685 26.3366 30.0838C26.5733 29.8968 26.7509 29.6458 26.8692 29.331C26.99 29.0137 27.0503 28.661 27.0503 28.2727C27.0503 27.8892 26.9912 27.5436 26.8728 27.2358C26.7568 26.9257 26.5804 26.6806 26.3437 26.5007C26.1093 26.3184 25.8145 26.2273 25.4594 26.2273C25.1185 26.2273 24.8321 26.3137 24.6001 26.4865C24.368 26.657 24.1929 26.8961 24.0745 27.2038C23.9561 27.5092 23.8969 27.8655 23.8969 28.2727ZM31.4573 31.1136C30.9317 31.1136 30.4784 30.9976 30.0972 30.7656C29.7184 30.5312 29.426 30.2045 29.2201 29.7855C29.0165 29.3641 28.9147 28.8741 28.9147 28.3153C28.9147 27.7566 29.0165 27.2642 29.2201 26.8381C29.426 26.4096 29.7125 26.0758 30.0795 25.8366C30.4488 25.5952 30.8796 25.4744 31.3721 25.4744C31.6562 25.4744 31.9367 25.5218 32.2137 25.6165C32.4907 25.7112 32.7428 25.8651 32.9701 26.0781C33.1974 26.2888 33.3785 26.5682 33.5134 26.9162C33.6483 27.2642 33.7158 27.6927 33.7158 28.2017V28.5568H29.5113V27.8324H32.8635C32.8635 27.5246 32.802 27.25 32.6789 27.0085C32.5581 26.767 32.3853 26.5765 32.1604 26.4368C31.9379 26.2971 31.6751 26.2273 31.3721 26.2273C31.0383 26.2273 30.7494 26.3101 30.5056 26.4759C30.2641 26.6392 30.0783 26.8523 29.9481 27.1151C29.8179 27.3778 29.7528 27.6596 29.7528 27.9602V28.4432C29.7528 28.8551 29.8238 29.2043 29.9658 29.4908C30.1102 29.7749 30.3103 29.9915 30.566 30.1406C30.8216 30.2874 31.1188 30.3608 31.4573 30.3608C31.6775 30.3608 31.8763 30.33 32.0539 30.2685C32.2338 30.2045 32.3889 30.1098 32.5191 29.9844C32.6493 29.8565 32.7499 29.6979 32.8209 29.5085L33.6306 29.7358C33.5454 30.0104 33.4021 30.2519 33.2009 30.4602C32.9997 30.6662 32.7511 30.8272 32.4552 30.9432C32.1592 31.0568 31.8266 31.1136 31.4573 31.1136ZM36.5958 31.1278C36.2501 31.1278 35.9365 31.0627 35.6547 30.9325C35.373 30.8 35.1493 30.6094 34.9836 30.3608C34.8179 30.1098 34.735 29.8068 34.735 29.4517C34.735 29.1392 34.7965 28.8859 34.9197 28.6918C35.0428 28.4953 35.2073 28.3414 35.4133 28.2301C35.6192 28.1188 35.8465 28.036 36.0951 27.9815C36.346 27.9247 36.5982 27.8797 36.8515 27.8466C37.1829 27.804 37.4516 27.772 37.6576 27.7507C37.8659 27.727 38.0174 27.688 38.1121 27.6335C38.2092 27.5791 38.2577 27.4844 38.2577 27.3494V27.321C38.2577 26.9706 38.1618 26.6984 37.9701 26.5043C37.7807 26.3101 37.493 26.2131 37.1072 26.2131C36.7071 26.2131 36.3934 26.3007 36.1661 26.4759C35.9388 26.651 35.779 26.8381 35.6867 27.0369L34.8912 26.7528C35.0333 26.4214 35.2227 26.1634 35.4594 25.9787C35.6985 25.7917 35.959 25.6615 36.2407 25.5881C36.5248 25.5123 36.8041 25.4744 37.0787 25.4744C37.2539 25.4744 37.4552 25.4957 37.6824 25.5384C37.9121 25.5786 38.1334 25.6626 38.3465 25.7905C38.5619 25.9183 38.7407 26.1113 38.8827 26.3693C39.0248 26.6274 39.0958 26.973 39.0958 27.4062V31H38.2577V30.2614H38.2151C38.1583 30.3797 38.0636 30.5064 37.931 30.6413C37.7984 30.7763 37.6221 30.8911 37.4019 30.9858C37.1817 31.0805 36.913 31.1278 36.5958 31.1278ZM36.7236 30.375C37.0551 30.375 37.3344 30.3099 37.5617 30.1797C37.7913 30.0495 37.9642 29.8814 38.0802 29.6754C38.1985 29.4695 38.2577 29.2528 38.2577 29.0256V28.2585C38.2222 28.3011 38.1441 28.3402 38.0233 28.3757C37.905 28.4089 37.7677 28.4384 37.6114 28.4645C37.4575 28.4882 37.3072 28.5095 37.1604 28.5284C37.016 28.545 36.8988 28.5592 36.8089 28.571C36.5911 28.5994 36.3875 28.6456 36.1981 28.7095C36.011 28.7711 35.8595 28.8646 35.7435 28.9901C35.6299 29.1132 35.5731 29.2812 35.5731 29.4943C35.5731 29.7855 35.6808 30.0057 35.8962 30.1548C36.114 30.3016 36.3898 30.375 36.7236 30.375ZM42.9976 25.5455V26.2557H40.1709V25.5455H42.9976ZM40.9948 24.2386H41.8328V29.4375C41.8328 29.6742 41.8672 29.8518 41.9358 29.9702C42.0068 30.0862 42.0968 30.1643 42.2057 30.2045C42.317 30.2424 42.4342 30.2614 42.5573 30.2614C42.6496 30.2614 42.7253 30.2566 42.7845 30.2472C42.8437 30.2353 42.8911 30.2259 42.9266 30.2188L43.097 30.9716C43.0402 30.9929 42.9609 31.0142 42.8591 31.0355C42.7573 31.0592 42.6283 31.071 42.472 31.071C42.2353 31.071 42.0033 31.0201 41.776 30.9183C41.5511 30.8165 41.3641 30.6615 41.2149 30.4531C41.0682 30.2448 40.9948 29.982 40.9948 29.6648V24.2386ZM48.0242 26.767L47.2714 26.9801C47.224 26.8546 47.1542 26.7327 47.0619 26.6143C46.9719 26.4936 46.8488 26.3942 46.6926 26.3161C46.5363 26.2379 46.3363 26.1989 46.0924 26.1989C45.7586 26.1989 45.4804 26.2758 45.2579 26.4297C45.0377 26.5812 44.9276 26.7741 44.9276 27.0085C44.9276 27.2169 45.0034 27.3814 45.1549 27.5021C45.3064 27.6229 45.5432 27.7235 45.8651 27.804L46.6748 28.0028C47.1625 28.1212 47.5259 28.3023 47.765 28.5462C48.0041 28.7876 48.1237 29.099 48.1237 29.4801C48.1237 29.7926 48.0337 30.072 47.8538 30.3182C47.6762 30.5644 47.4276 30.7585 47.108 30.9006C46.7884 31.0426 46.4168 31.1136 45.993 31.1136C45.4366 31.1136 44.9762 30.9929 44.6116 30.7514C44.247 30.5099 44.0162 30.1572 43.9191 29.6932L44.7146 29.4943C44.7903 29.7879 44.9336 30.008 45.1443 30.1548C45.3573 30.3016 45.6355 30.375 45.9788 30.375C46.3694 30.375 46.6795 30.2921 46.9092 30.1264C47.1412 29.9583 47.2572 29.7571 47.2572 29.5227C47.2572 29.3333 47.1909 29.1747 47.0583 29.0469C46.9258 28.9167 46.7222 28.8196 46.4475 28.7557L45.5384 28.5426C45.0389 28.4242 44.672 28.2408 44.4376 27.9922C44.2056 27.7412 44.0896 27.4276 44.0896 27.0511C44.0896 26.7434 44.176 26.4711 44.3488 26.2344C44.524 25.9976 44.7619 25.8118 45.0626 25.6768C45.3656 25.5419 45.7089 25.4744 46.0924 25.4744C46.6322 25.4744 47.056 25.5928 47.3637 25.8295C47.6739 26.0663 47.894 26.3788 48.0242 26.767ZM54.4136 31.1136C53.9212 31.1136 53.4891 30.9964 53.1175 30.7621C52.7481 30.5277 52.4593 30.1998 52.251 29.7784C52.045 29.357 51.942 28.8646 51.942 28.3011C51.942 27.733 52.045 27.237 52.251 26.8132C52.4593 26.3894 52.7481 26.0604 53.1175 25.826C53.4891 25.5916 53.9212 25.4744 54.4136 25.4744C54.906 25.4744 55.3369 25.5916 55.7062 25.826C56.0779 26.0604 56.3667 26.3894 56.5727 26.8132C56.781 27.237 56.8852 27.733 56.8852 28.3011C56.8852 28.8646 56.781 29.357 56.5727 29.7784C56.3667 30.1998 56.0779 30.5277 55.7062 30.7621C55.3369 30.9964 54.906 31.1136 54.4136 31.1136ZM54.4136 30.3608C54.7877 30.3608 55.0954 30.2649 55.3369 30.0732C55.5784 29.8814 55.7571 29.6293 55.8731 29.3168C55.9891 29.0043 56.0471 28.6657 56.0471 28.3011C56.0471 27.9366 55.9891 27.5968 55.8731 27.282C55.7571 26.9671 55.5784 26.7126 55.3369 26.5185C55.0954 26.3243 54.7877 26.2273 54.4136 26.2273C54.0396 26.2273 53.7318 26.3243 53.4903 26.5185C53.2488 26.7126 53.0701 26.9671 52.9541 27.282C52.8381 27.5968 52.7801 27.9366 52.7801 28.3011C52.7801 28.6657 52.8381 29.0043 52.9541 29.3168C53.0701 29.6293 53.2488 29.8814 53.4903 30.0732C53.7318 30.2649 54.0396 30.3608 54.4136 30.3608ZM58.1645 31V25.5455H58.9742V26.3693H59.031C59.1304 26.0994 59.3103 25.8804 59.5708 25.7124C59.8312 25.5443 60.1247 25.4602 60.4514 25.4602C60.513 25.4602 60.5899 25.4614 60.6823 25.4638C60.7746 25.4661 60.8444 25.4697 60.8918 25.4744V26.3267C60.8634 26.3196 60.7983 26.3089 60.6965 26.2947C60.597 26.2782 60.4917 26.2699 60.3804 26.2699C60.1153 26.2699 59.8785 26.3255 59.6702 26.4368C59.4642 26.5457 59.3009 26.6972 59.1801 26.8913C59.0618 27.0831 59.0026 27.3021 59.0026 27.5483V31H58.1645ZM61.8852 31V25.5455H62.7233V31H61.8852ZM62.3113 24.6364C62.148 24.6364 62.0071 24.5807 61.8888 24.4695C61.7728 24.3582 61.7148 24.2244 61.7148 24.0682C61.7148 23.9119 61.7728 23.7782 61.8888 23.6669C62.0071 23.5556 62.148 23.5 62.3113 23.5C62.4747 23.5 62.6144 23.5556 62.7304 23.6669C62.8488 23.7782 62.9079 23.9119 62.9079 24.0682C62.9079 24.2244 62.8488 24.3582 62.7304 24.4695C62.6144 24.5807 62.4747 24.6364 62.3113 24.6364ZM66.46 33.1591C66.0551 33.1591 65.7071 33.107 65.4159 33.0028C65.1247 32.901 64.8821 32.7661 64.6879 32.598C64.4962 32.4323 64.3435 32.2547 64.2298 32.0653L64.8975 31.5966C64.9732 31.696 65.0691 31.8097 65.1851 31.9375C65.3011 32.0677 65.4597 32.1802 65.661 32.2749C65.8646 32.3719 66.1309 32.4205 66.46 32.4205C66.9003 32.4205 67.2637 32.3139 67.5502 32.1009C67.8366 31.8878 67.9798 31.554 67.9798 31.0994V29.9915H67.9088C67.8473 30.0909 67.7597 30.214 67.646 30.3608C67.5348 30.5052 67.3738 30.6342 67.1631 30.7479C66.9548 30.8591 66.673 30.9148 66.3179 30.9148C65.8776 30.9148 65.4822 30.8106 65.1318 30.6023C64.7838 30.3939 64.508 30.0909 64.3044 29.6932C64.1032 29.2955 64.0026 28.8125 64.0026 28.2443C64.0026 27.6856 64.1008 27.1991 64.2973 26.7848C64.4938 26.3681 64.7673 26.0462 65.1176 25.8189C65.468 25.5893 65.8728 25.4744 66.3321 25.4744C66.6872 25.4744 66.969 25.5336 67.1773 25.652C67.388 25.768 67.549 25.9006 67.6602 26.0497C67.7739 26.1965 67.8615 26.3172 67.923 26.4119H68.0083V25.5455H68.8179V31.1562C68.8179 31.625 68.7114 32.0062 68.4983 32.2997C68.2876 32.5956 68.0035 32.8123 67.646 32.9496C67.2909 33.0893 66.8956 33.1591 66.46 33.1591ZM66.4316 30.1619C66.7677 30.1619 67.0518 30.085 67.2838 29.9311C67.5158 29.7772 67.6922 29.5559 67.8129 29.267C67.9337 28.9782 67.9941 28.6326 67.9941 28.2301C67.9941 27.8371 67.9349 27.4903 67.8165 27.1896C67.6981 26.889 67.5229 26.6534 67.2909 26.483C67.0589 26.3125 66.7725 26.2273 66.4316 26.2273C66.0764 26.2273 65.7805 26.3172 65.5438 26.4972C65.3094 26.6771 65.133 26.9186 65.0146 27.2216C64.8986 27.5246 64.8406 27.8608 64.8406 28.2301C64.8406 28.6089 64.8998 28.9439 65.0182 29.2351C65.1389 29.5239 65.3165 29.7512 65.5509 29.9169C65.7876 30.0803 66.0812 30.1619 66.4316 30.1619ZM70.352 31V25.5455H71.1901V31H70.352ZM70.7781 24.6364C70.6148 24.6364 70.4739 24.5807 70.3556 24.4695C70.2396 24.3582 70.1816 24.2244 70.1816 24.0682C70.1816 23.9119 70.2396 23.7782 70.3556 23.6669C70.4739 23.5556 70.6148 23.5 70.7781 23.5C70.9415 23.5 71.0812 23.5556 71.1972 23.6669C71.3155 23.7782 71.3747 23.9119 71.3747 24.0682C71.3747 24.2244 71.3155 24.3582 71.1972 24.4695C71.0812 24.5807 70.9415 24.6364 70.7781 24.6364ZM73.5631 27.7188V31H72.7251V25.5455H73.5347V26.3977H73.6057C73.7336 26.1207 73.9277 25.8982 74.1881 25.7301C74.4485 25.5597 74.7847 25.4744 75.1966 25.4744C75.566 25.4744 75.8891 25.5502 76.1661 25.7017C76.4431 25.8509 76.6585 26.0781 76.8124 26.3835C76.9663 26.6866 77.0432 27.0701 77.0432 27.5341V31H76.2052V27.5909C76.2052 27.1624 76.0939 26.8286 75.8714 26.5895C75.6488 26.348 75.3434 26.2273 74.9552 26.2273C74.6876 26.2273 74.4485 26.2853 74.2378 26.4013C74.0295 26.5173 73.865 26.6866 73.7442 26.9091C73.6235 27.1316 73.5631 27.4015 73.5631 27.7188Z" fill="black"/>
<path id="exampleArrow" d="M73.3536 39.3536C73.5488 39.1583 73.5488 38.8417 73.3536 38.6464L70.1716 35.4645C69.9763 35.2692 69.6597 35.2692 69.4645 35.4645C69.2692 35.6597 69.2692 35.9763 69.4645 36.1716L72.2929 39L69.4645 41.8284C69.2692 42.0237 69.2692 42.3403 69.4645 42.5355C69.6597 42.7308 69.9763 42.7308 70.1716 42.5355L73.3536 39.3536ZM26 39.5H73V38.5H26V39.5Z" fill="black"/>
</g>
</g>
</svg>
