<svg width="681" height="433" viewBox="0 0 681 433" fill="none" xmlns="http://www.w3.org/2000/svg">
<rect width="681" height="433" fill="white"/>
<path d="M235.636 75.6818V68.1818H288V75.6818H266.045V138H257.591V75.6818H235.636Z" fill="black"/>
<path d="M144.455 138V68.1818H152.909V99.2727H190.136V68.1818H198.591V138H190.136V106.773H152.909V138H144.455Z" fill="black"/>
<path d="M50.4545 138V68.1818H58.9091V99.2727H96.1364V68.1818H104.591V138H96.1364V106.773H58.9091V138H50.4545Z" fill="black"/>
<path d="M239.455 370V300.182H247.909V331.273H285.136V300.182H293.591V370H285.136V338.773H247.909V370H239.455Z" fill="black"/>
<path d="M144.455 370V300.182H152.909V331.273H190.136V300.182H198.591V370H190.136V338.773H152.909V370H144.455Z" fill="black"/>
<path d="M46.6364 307.682V300.182H99V307.682H77.0455V370H68.5909V307.682H46.6364Z" fill="black"/>
<path d="M73.5795 290.482C73.8457 291.266 74.6974 291.687 75.4819 291.42L88.2661 287.083C89.0507 286.817 89.4708 285.965 89.2047 285.181C88.9385 284.396 88.0868 283.976 87.3023 284.242L75.9385 288.098L72.083 276.734C71.8168 275.949 70.965 275.529 70.1805 275.795C69.396 276.061 68.9759 276.913 69.242 277.698L73.5795 290.482ZM147.655 139.336L73.6548 289.336L76.3452 290.664L150.345 140.664L147.655 139.336Z" fill="#E21B1B"/>
<path d="M168.425 291.385C169.19 291.703 170.068 291.34 170.385 290.575L175.561 278.107C175.879 277.341 175.516 276.464 174.751 276.146C173.986 275.829 173.108 276.191 172.79 276.956L168.19 288.04L157.107 283.439C156.341 283.121 155.464 283.484 155.146 284.249C154.829 285.014 155.191 285.892 155.956 286.21L168.425 291.385ZM105.614 140.573L167.614 290.573L170.386 289.427L108.386 139.427L105.614 140.573Z" fill="#3EEF12"/>
<path d="M263.476 291.405C264.252 291.695 265.116 291.301 265.405 290.524L270.125 277.876C270.414 277.1 270.02 276.236 269.244 275.946C268.468 275.657 267.604 276.051 267.314 276.827L263.119 288.07L251.876 283.875C251.1 283.586 250.236 283.98 249.946 284.756C249.657 285.532 250.051 286.396 250.827 286.686L263.476 291.405ZM199.635 152.623L262.635 290.623L265.365 289.377L202.365 151.377L199.635 152.623Z" fill="#3EEF12"/>
<path d="M52.4687 263.32C51.9484 263.645 51.4235 263.802 50.8941 263.791C50.3647 263.781 49.864 263.623 49.3921 263.318C48.9202 263.013 48.5111 262.584 48.1647 262.03C47.8123 261.466 47.6049 260.904 47.5425 260.343C47.481 259.779 47.5609 259.258 47.7822 258.781C48.0044 258.301 48.366 257.904 48.867 257.591C49.2573 257.347 49.6542 257.199 50.0577 257.148C50.4612 257.097 50.8442 257.139 51.2068 257.274C51.5694 257.409 51.8832 257.635 52.1483 257.952L51.2955 258.485C51.0723 258.272 50.7877 258.139 50.4417 258.084C50.0966 258.025 49.7362 258.113 49.3604 258.348C49.028 258.555 48.7907 258.824 48.6486 259.154C48.5074 259.481 48.4648 259.844 48.5209 260.244C48.5778 260.641 48.7373 261.049 48.9994 261.468C49.2674 261.897 49.5683 262.228 49.902 262.462C50.2381 262.694 50.5852 262.82 50.9432 262.841C51.3037 262.86 51.6525 262.764 51.9898 262.554C52.2114 262.415 52.3885 262.251 52.5209 262.061C52.6534 261.871 52.7371 261.664 52.772 261.441C52.8069 261.219 52.7876 260.989 52.7141 260.754L53.5669 260.221C53.7235 260.579 53.7887 260.948 53.7626 261.33C53.7373 261.707 53.6175 262.07 53.4032 262.419C53.1897 262.763 52.8782 263.064 52.4687 263.32ZM54.591 257.188L56.6782 260.527L55.8255 261.06L51.1992 253.66L52.0519 253.127L53.7507 255.844L53.8229 255.799C53.7738 255.431 53.8266 255.081 53.9813 254.75C54.137 254.415 54.4328 254.111 54.8688 253.839C55.247 253.602 55.6257 253.471 56.0048 253.445C56.3824 253.417 56.7467 253.509 57.0975 253.722C57.4493 253.931 57.7742 254.274 58.0724 254.751L60.2772 258.277L59.4244 258.81L57.2558 255.342C56.9802 254.901 56.6527 254.631 56.2733 254.534C55.8947 254.432 55.5043 254.507 55.102 254.758C54.8226 254.933 54.609 255.149 54.4611 255.405C54.3157 255.66 54.2499 255.941 54.2638 256.247C54.2801 256.552 54.3892 256.866 54.591 257.188ZM63.5518 256.411C63.2001 256.631 62.8395 256.764 62.47 256.811C62.099 256.855 61.7501 256.804 61.4234 256.656C61.0951 256.506 60.8181 256.251 60.5922 255.889C60.3934 255.571 60.2949 255.274 60.2966 254.998C60.2969 254.72 60.3664 254.459 60.5052 254.215C60.644 253.97 60.8226 253.742 61.0409 253.528C61.2601 253.311 61.488 253.104 61.7247 252.91C62.0348 252.655 62.2879 252.452 62.4839 252.299C62.6809 252.143 62.8102 252.007 62.8719 251.891C62.936 251.774 62.9252 251.647 62.8393 251.509L62.8213 251.48C62.5984 251.124 62.3276 250.908 62.009 250.832C61.6928 250.755 61.3384 250.839 60.9457 251.085C60.5386 251.339 60.2752 251.628 60.1554 251.951C60.0355 252.274 59.9919 252.566 60.0245 252.827L59.0344 253.044C58.9681 252.616 58.9966 252.233 59.12 251.894C59.2444 251.552 59.4265 251.254 59.6665 251C59.9074 250.742 60.1675 250.526 60.447 250.351C60.6252 250.24 60.8435 250.134 61.1019 250.032C61.3612 249.927 61.6399 249.872 61.938 249.866C62.2385 249.859 62.5431 249.942 62.8518 250.114C63.1605 250.287 63.4526 250.593 63.7282 251.034L66.0143 254.691L65.1615 255.224L64.6917 254.472L64.6483 254.499C64.6658 254.656 64.65 254.845 64.6009 255.067C64.5519 255.288 64.4455 255.517 64.2817 255.754C64.1179 255.99 63.8746 256.209 63.5518 256.411ZM63.203 255.564C63.5402 255.353 63.7831 255.109 63.9315 254.832C64.0823 254.553 64.1512 254.272 64.1383 253.989C64.1277 253.704 64.0501 253.446 63.9056 253.215L63.4176 252.434C63.4086 252.5 63.3539 252.59 63.2537 252.703C63.1543 252.812 63.0334 252.929 62.891 253.055C62.7495 253.177 62.6101 253.294 62.4728 253.407C62.3364 253.516 62.2262 253.605 62.1422 253.674C61.9386 253.841 61.7608 254.018 61.6088 254.203C61.4576 254.385 61.3629 254.576 61.3247 254.778C61.2874 254.975 61.3365 255.183 61.472 255.399C61.6573 255.696 61.9069 255.851 62.221 255.866C62.536 255.877 62.8633 255.776 63.203 255.564ZM66.3362 249.846L68.4235 253.184L67.5707 253.718L64.101 248.167L64.9248 247.652L65.467 248.52L65.5393 248.474C65.4931 248.111 65.5491 247.761 65.7072 247.425C65.8637 247.086 66.1516 246.785 66.5707 246.523C66.9465 246.288 67.3235 246.16 67.7017 246.138C68.0785 246.113 68.4422 246.207 68.7931 246.42C69.1424 246.631 69.4647 246.972 69.7599 247.444L71.9646 250.971L71.1118 251.504L68.9433 248.035C68.6707 247.599 68.3451 247.33 67.9666 247.228C67.5865 247.124 67.199 247.196 66.8039 247.443C66.5317 247.613 66.3253 247.824 66.1847 248.076C66.0465 248.327 65.9868 248.603 66.0055 248.907C66.0242 249.21 66.1344 249.523 66.3362 249.846ZM77.1366 250.793C76.7246 251.05 76.3374 251.219 75.9748 251.298C75.6138 251.38 75.281 251.397 74.9766 251.349C74.6761 251.303 74.4077 251.219 74.1716 251.099L74.5528 250.197C74.6931 250.25 74.8629 250.305 75.0623 250.361C75.2632 250.42 75.4961 250.433 75.7611 250.401C76.03 250.371 76.3319 250.251 76.6667 250.041C77.1148 249.761 77.4168 249.422 77.5727 249.023C77.7287 248.624 77.6621 248.193 77.3729 247.73L76.6681 246.603L76.5959 246.648C76.5965 246.788 76.5857 246.969 76.5634 247.191C76.542 247.409 76.4603 247.643 76.3182 247.892C76.177 248.138 75.9257 248.374 75.5644 248.6C75.1163 248.88 74.6478 249.025 74.1587 249.036C73.6721 249.046 73.1987 248.913 72.7385 248.637C72.2808 248.361 71.8712 247.933 71.5098 247.355C71.1543 246.787 70.9448 246.229 70.8812 245.683C70.8161 245.134 70.8895 244.632 71.1015 244.178C71.3119 243.721 71.6508 243.347 72.1181 243.055C72.4795 242.829 72.8038 242.71 73.0911 242.698C73.3793 242.682 73.6274 242.714 73.8355 242.795C74.0445 242.873 74.2104 242.94 74.3333 242.997L74.42 242.943L73.8688 242.061L74.6927 241.546L78.2618 247.255C78.56 247.732 78.694 248.188 78.664 248.622C78.6378 249.057 78.4866 249.458 78.2102 249.825C77.9377 250.193 77.5798 250.516 77.1366 250.793ZM75.2011 247.761C75.5432 247.547 75.7833 247.288 75.9215 246.984C76.0597 246.68 76.0983 246.343 76.0375 245.972C75.9766 245.601 75.8182 245.211 75.5621 244.802C75.3122 244.402 75.0313 244.087 74.7196 243.856C74.4079 243.625 74.0798 243.497 73.7353 243.471C73.3908 243.445 73.0451 243.541 72.6982 243.758C72.3369 243.984 72.093 244.263 71.9666 244.597C71.8425 244.929 71.8167 245.287 71.889 245.671C71.9637 246.053 72.1185 246.432 72.3535 246.808C72.5944 247.193 72.8677 247.496 73.1734 247.717C73.48 247.934 73.8052 248.053 74.1491 248.072C74.4939 248.088 74.8446 247.984 75.2011 247.761ZM82.1227 244.781C81.5879 245.115 81.0528 245.286 80.5174 245.292C79.9829 245.295 79.4775 245.148 79.0014 244.853C78.5262 244.554 78.1109 244.12 77.7555 243.551C77.4001 242.983 77.1904 242.417 77.1265 241.854C77.0635 241.287 77.1426 240.765 77.3639 240.288C77.5861 239.807 77.9477 239.411 78.4488 239.097C78.7378 238.917 79.0534 238.786 79.3955 238.706C79.7376 238.627 80.092 238.623 80.4588 238.695C80.8241 238.765 81.1861 238.934 81.5448 239.202C81.9034 239.47 82.2447 239.864 82.5685 240.381L82.7943 240.743L78.5161 243.417L78.0553 242.68L81.4663 240.548C81.2705 240.235 81.0332 239.994 80.7543 239.827C80.4779 239.658 80.1808 239.574 79.8631 239.575C79.5478 239.574 79.236 239.671 78.9277 239.863C78.588 240.076 78.3468 240.344 78.2041 240.667C78.0623 240.987 78.0088 241.322 78.0434 241.672C78.0781 242.023 78.1911 242.351 78.3823 242.657L78.6895 243.148C78.9516 243.567 79.246 243.877 79.5727 244.079C79.9004 244.276 80.2417 244.369 80.5968 244.358C80.9503 244.345 81.2993 244.23 81.6438 244.015C81.8678 243.875 82.0506 243.717 82.1921 243.542C82.3345 243.362 82.4321 243.167 82.4847 242.957C82.5359 242.744 82.5374 242.518 82.4892 242.28L83.4576 241.997C83.5456 242.33 83.5534 242.667 83.4812 243.007C83.4075 243.345 83.2569 243.667 83.0296 243.973C82.8008 244.277 82.4985 244.546 82.1227 244.781Z" fill="#E21B1B"/>
<path d="M164.178 240.765L164.921 239.766L165.083 239.89L169.129 239.315L170.117 240.071L165.819 240.668L165.751 240.616L164.178 240.765ZM161.984 242.091L167.286 235.159L168.085 235.77L162.783 242.702L161.984 242.091ZM165.287 244.617L165.224 240.492L166.217 240.372L166.303 245.394L165.287 244.617ZM169.051 247.668C168.55 247.285 168.203 246.844 168.009 246.345C167.819 245.845 167.778 245.321 167.887 244.771C168 244.221 168.261 243.68 168.668 243.147C169.075 242.615 169.531 242.22 170.036 241.962C170.545 241.704 171.061 241.594 171.585 241.634C172.113 241.673 172.612 241.872 173.081 242.231C173.352 242.438 173.585 242.688 173.78 242.98C173.975 243.272 174.103 243.603 174.164 243.971C174.227 244.338 174.196 244.736 174.071 245.166C173.946 245.596 173.698 246.054 173.327 246.539L173.068 246.878L169.061 243.812L169.589 243.122L172.784 245.566C173.008 245.273 173.15 244.966 173.209 244.646C173.269 244.328 173.244 244.02 173.131 243.723C173.021 243.428 172.821 243.17 172.533 242.949C172.214 242.705 171.879 242.574 171.525 242.554C171.176 242.533 170.844 242.601 170.528 242.757C170.212 242.912 169.945 243.133 169.726 243.42L169.374 243.88C169.073 244.273 168.886 244.657 168.813 245.034C168.743 245.41 168.776 245.762 168.911 246.091C169.048 246.417 169.278 246.704 169.6 246.951C169.81 247.111 170.022 247.227 170.236 247.298C170.454 247.368 170.671 247.391 170.887 247.366C171.104 247.339 171.316 247.261 171.521 247.132L172.127 247.939C171.846 248.139 171.533 248.265 171.19 248.317C170.848 248.366 170.493 248.338 170.127 248.233C169.762 248.126 169.403 247.937 169.051 247.668ZM174.599 251.911C174.098 251.528 173.75 251.087 173.556 250.588C173.366 250.089 173.326 249.564 173.435 249.015C173.548 248.464 173.808 247.923 174.216 247.391C174.623 246.858 175.079 246.463 175.584 246.205C176.092 245.947 176.609 245.838 177.133 245.877C177.661 245.916 178.16 246.115 178.629 246.474C178.9 246.681 179.133 246.931 179.328 247.223C179.523 247.515 179.651 247.846 179.712 248.215C179.775 248.581 179.744 248.98 179.619 249.41C179.494 249.84 179.246 250.297 178.875 250.783L178.616 251.121L174.608 248.056L175.136 247.365L178.332 249.809C178.556 249.516 178.697 249.209 178.756 248.889C178.817 248.571 178.791 248.263 178.679 247.966C178.569 247.671 178.369 247.413 178.08 247.192C177.762 246.949 177.426 246.817 177.073 246.797C176.724 246.777 176.391 246.844 176.076 247C175.76 247.155 175.492 247.377 175.273 247.663L174.921 248.123C174.621 248.516 174.434 248.901 174.361 249.277C174.291 249.653 174.324 250.006 174.459 250.334C174.595 250.66 174.825 250.947 175.148 251.194C175.358 251.354 175.57 251.47 175.784 251.541C176.002 251.611 176.219 251.634 176.434 251.609C176.652 251.582 176.863 251.504 177.069 251.376L177.675 252.183C177.393 252.382 177.081 252.508 176.737 252.56C176.395 252.609 176.041 252.582 175.674 252.476C175.309 252.369 174.951 252.181 174.599 251.911ZM176.558 256.329L182.026 249.18L182.798 249.77L182.166 250.596L182.261 250.669C182.389 250.623 182.558 250.57 182.769 250.51C182.984 250.449 183.231 250.438 183.512 250.478C183.797 250.517 184.109 250.666 184.447 250.925C184.885 251.26 185.187 251.664 185.354 252.138C185.52 252.613 185.544 253.122 185.424 253.667C185.304 254.212 185.035 254.758 184.617 255.304C184.196 255.854 183.737 256.26 183.241 256.521C182.747 256.779 182.249 256.892 181.748 256.859C181.249 256.825 180.783 256.641 180.35 256.31C180.016 256.055 179.791 255.795 179.674 255.531C179.56 255.264 179.503 255.018 179.503 254.793C179.505 254.566 179.513 254.383 179.527 254.243L179.459 254.191L177.357 256.94L176.558 256.329ZM180.823 252.38C180.523 252.773 180.315 253.163 180.201 253.551C180.088 253.937 180.078 254.299 180.169 254.638C180.263 254.974 180.47 255.265 180.79 255.51C181.124 255.765 181.47 255.89 181.828 255.885C182.19 255.879 182.542 255.77 182.885 255.556C183.231 255.342 183.546 255.049 183.829 254.679C184.108 254.314 184.304 253.941 184.416 253.561C184.531 253.181 184.542 252.819 184.447 252.475C184.357 252.13 184.142 251.829 183.804 251.57C183.479 251.321 183.143 251.195 182.796 251.19C182.45 251.184 182.109 251.284 181.772 251.491C181.436 251.696 181.12 251.992 180.823 252.38Z" fill="#3EEF12"/>
<path d="M258.879 236.185L259.734 235.281L259.881 235.424L263.966 235.333L264.858 236.201L260.519 236.283L260.458 236.224L258.879 236.185ZM256.542 237.241L262.63 230.987L263.351 231.689L257.263 237.942L256.542 237.241ZM259.523 240.142L259.95 236.038L260.95 236.036L260.439 241.033L259.523 240.142ZM262.898 243.618C262.446 243.178 262.153 242.698 262.019 242.18C261.89 241.661 261.912 241.136 262.086 240.603C262.263 240.07 262.586 239.564 263.054 239.083C263.521 238.603 264.021 238.265 264.553 238.069C265.089 237.873 265.614 237.825 266.13 237.927C266.65 238.028 267.121 238.285 267.545 238.697C267.789 238.935 267.991 239.211 268.149 239.524C268.308 239.837 268.396 240.181 268.413 240.554C268.432 240.926 268.354 241.317 268.179 241.73C268.004 242.142 267.703 242.567 267.277 243.004L266.98 243.31L263.365 239.79L263.971 239.167L266.853 241.973C267.111 241.709 267.288 241.421 267.384 241.11C267.483 240.802 267.493 240.493 267.417 240.185C267.343 239.878 267.175 239.598 266.915 239.345C266.627 239.065 266.31 238.895 265.961 238.833C265.617 238.772 265.279 238.799 264.947 238.916C264.615 239.033 264.323 239.221 264.072 239.479L263.667 239.895C263.322 240.249 263.091 240.609 262.974 240.974C262.86 241.339 262.851 241.693 262.946 242.035C263.043 242.375 263.237 242.687 263.528 242.97C263.717 243.155 263.914 243.295 264.118 243.39C264.326 243.486 264.539 243.534 264.756 243.535C264.975 243.535 265.194 243.482 265.414 243.379L265.92 244.252C265.616 244.417 265.291 244.505 264.944 244.515C264.598 244.524 264.25 244.454 263.898 244.306C263.549 244.156 263.215 243.927 262.898 243.618ZM267.902 248.49C267.45 248.05 267.158 247.57 267.024 247.052C266.895 246.533 266.917 246.008 267.09 245.475C267.268 244.942 267.591 244.436 268.058 243.955C268.526 243.475 269.026 243.137 269.557 242.941C270.093 242.745 270.619 242.697 271.135 242.799C271.654 242.9 272.126 243.157 272.549 243.569C272.794 243.807 272.995 244.083 273.154 244.396C273.313 244.709 273.401 245.053 273.418 245.426C273.437 245.798 273.359 246.189 273.184 246.602C273.008 247.014 272.708 247.439 272.282 247.876L271.984 248.182L268.369 244.662L268.976 244.039L271.858 246.845C272.116 246.581 272.293 246.293 272.389 245.982C272.487 245.674 272.498 245.365 272.422 245.057C272.347 244.75 272.18 244.47 271.919 244.217C271.632 243.937 271.314 243.767 270.966 243.705C270.622 243.644 270.283 243.671 269.952 243.788C269.62 243.905 269.328 244.093 269.076 244.351L268.672 244.767C268.327 245.121 268.096 245.481 267.978 245.846C267.865 246.211 267.855 246.565 267.95 246.907C268.047 247.247 268.241 247.559 268.532 247.842C268.722 248.027 268.918 248.167 269.123 248.262C269.331 248.358 269.543 248.406 269.76 248.407C269.979 248.406 270.199 248.354 270.418 248.251L270.924 249.124C270.621 249.289 270.296 249.377 269.948 249.387C269.603 249.396 269.254 249.326 268.903 249.178C268.553 249.028 268.22 248.799 267.902 248.49ZM269.323 253.108L275.601 246.659L276.297 247.337L275.572 248.082L275.658 248.165C275.79 248.136 275.964 248.103 276.181 248.068C276.401 248.033 276.649 248.052 276.923 248.124C277.201 248.197 277.493 248.382 277.798 248.679C278.193 249.064 278.445 249.501 278.554 249.992C278.663 250.483 278.626 250.991 278.442 251.518C278.258 252.045 277.926 252.555 277.447 253.047C276.963 253.544 276.46 253.892 275.936 254.092C275.414 254.29 274.907 254.343 274.413 254.251C273.922 254.158 273.481 253.92 273.09 253.54C272.789 253.247 272.596 252.962 272.512 252.686C272.43 252.408 272.402 252.157 272.43 251.934C272.459 251.708 272.488 251.527 272.519 251.39L272.458 251.33L270.044 253.81L269.323 253.108ZM274.027 249.694C273.682 250.048 273.43 250.411 273.27 250.783C273.112 251.153 273.059 251.511 273.11 251.858C273.162 252.203 273.333 252.516 273.622 252.797C273.924 253.091 274.252 253.256 274.608 253.293C274.969 253.331 275.331 253.264 275.697 253.092C276.066 252.92 276.413 252.668 276.738 252.334C277.059 252.004 277.298 251.657 277.453 251.293C277.613 250.93 277.667 250.571 277.614 250.219C277.565 249.866 277.388 249.54 277.082 249.243C276.789 248.958 276.471 248.792 276.126 248.747C275.784 248.699 275.434 248.758 275.074 248.924C274.717 249.087 274.368 249.344 274.027 249.694Z" fill="#3EEF12"/>
<path d="M565.636 74.6818V67.1818H618V74.6818H596.045V137H587.591V74.6818H565.636Z" fill="black"/>
<path d="M470.636 74.6818V67.1818H523V74.6818H501.045V137H492.591V74.6818H470.636Z" fill="black"/>
<path d="M376.636 74.6818V67.1818H429V74.6818H407.045V137H398.591V74.6818H376.636Z" fill="black"/>
<path d="M565.636 306.682V299.182H618V306.682H596.045V369H587.591V306.682H565.636Z" fill="black"/>
<path d="M470.636 306.682V299.182H523V306.682H501.045V369H492.591V306.682H470.636Z" fill="black"/>
<path d="M380.455 369V299.182H388.909V330.273H426.136V299.182H434.591V369H426.136V337.773H388.909V369H380.455Z" fill="black"/>
<path d="M403.58 289.482C403.846 290.266 404.697 290.687 405.482 290.42L418.266 286.083C419.051 285.817 419.471 284.965 419.205 284.181C418.939 283.396 418.087 282.976 417.302 283.242L405.939 287.098L402.083 275.734C401.817 274.949 400.965 274.529 400.181 274.795C399.396 275.061 398.976 275.913 399.242 276.698L403.58 289.482ZM477.655 138.336L403.655 288.336L406.345 289.664L480.345 139.664L477.655 138.336Z" fill="#E21B1B"/>
<path d="M498.425 290.385C499.19 290.703 500.068 290.34 500.385 289.575L505.561 277.107C505.879 276.341 505.516 275.464 504.751 275.146C503.986 274.829 503.108 275.191 502.79 275.956L498.19 287.04L487.107 282.439C486.341 282.121 485.464 282.484 485.146 283.249C484.829 284.014 485.191 284.892 485.956 285.21L498.425 290.385ZM435.614 139.573L497.614 289.573L500.386 288.427L438.386 138.427L435.614 139.573Z" fill="#3EEF12"/>
<path d="M593.476 290.405C594.252 290.695 595.116 290.301 595.405 289.524L600.125 276.876C600.414 276.1 600.02 275.236 599.244 274.946C598.468 274.657 597.604 275.051 597.314 275.827L593.119 287.07L581.876 282.875C581.1 282.586 580.236 282.98 579.946 283.756C579.657 284.532 580.051 285.396 580.827 285.686L593.476 290.405ZM529.635 151.623L592.635 289.623L595.365 288.377L532.365 150.377L529.635 151.623Z" fill="#3EEF12"/>
<path d="M382.469 262.32C381.948 262.645 381.423 262.802 380.894 262.791C380.365 262.781 379.864 262.623 379.392 262.318C378.92 262.013 378.511 261.584 378.165 261.03C377.812 260.466 377.605 259.904 377.543 259.343C377.481 258.779 377.561 258.258 377.782 257.781C378.004 257.301 378.366 256.904 378.867 256.591C379.257 256.347 379.654 256.199 380.058 256.148C380.461 256.097 380.844 256.139 381.207 256.274C381.569 256.409 381.883 256.635 382.148 256.952L381.296 257.485C381.072 257.272 380.788 257.139 380.442 257.084C380.097 257.025 379.736 257.113 379.36 257.348C379.028 257.555 378.791 257.824 378.649 258.154C378.507 258.481 378.465 258.844 378.521 259.244C378.578 259.641 378.737 260.049 378.999 260.468C379.267 260.897 379.568 261.228 379.902 261.462C380.238 261.694 380.585 261.82 380.943 261.841C381.304 261.86 381.653 261.764 381.99 261.554C382.211 261.415 382.388 261.251 382.521 261.061C382.653 260.871 382.737 260.664 382.772 260.441C382.807 260.219 382.788 259.989 382.714 259.754L383.567 259.221C383.724 259.579 383.789 259.948 383.763 260.33C383.737 260.707 383.618 261.07 383.403 261.419C383.19 261.763 382.878 262.064 382.469 262.32ZM384.591 256.188L386.678 259.527L385.825 260.06L381.199 252.66L382.052 252.127L383.751 254.844L383.823 254.799C383.774 254.431 383.827 254.081 383.981 253.75C384.137 253.415 384.433 253.111 384.869 252.839C385.247 252.602 385.626 252.471 386.005 252.445C386.382 252.417 386.747 252.509 387.098 252.722C387.449 252.931 387.774 253.274 388.072 253.751L390.277 257.277L389.424 257.81L387.256 254.342C386.98 253.901 386.653 253.631 386.273 253.534C385.895 253.432 385.504 253.507 385.102 253.758C384.823 253.933 384.609 254.149 384.461 254.405C384.316 254.66 384.25 254.941 384.264 255.247C384.28 255.552 384.389 255.866 384.591 256.188ZM393.552 255.411C393.2 255.631 392.839 255.764 392.47 255.811C392.099 255.855 391.75 255.804 391.423 255.656C391.095 255.506 390.818 255.251 390.592 254.889C390.393 254.571 390.295 254.274 390.297 253.998C390.297 253.72 390.366 253.459 390.505 253.215C390.644 252.97 390.823 252.742 391.041 252.528C391.26 252.311 391.488 252.104 391.725 251.91C392.035 251.655 392.288 251.452 392.484 251.299C392.681 251.143 392.81 251.007 392.872 250.891C392.936 250.774 392.925 250.647 392.839 250.509L392.821 250.48C392.598 250.124 392.328 249.908 392.009 249.832C391.693 249.755 391.338 249.839 390.946 250.085C390.539 250.339 390.275 250.628 390.155 250.951C390.036 251.274 389.992 251.566 390.024 251.827L389.034 252.044C388.968 251.616 388.997 251.233 389.12 250.894C389.244 250.552 389.427 250.254 389.667 250C389.907 249.742 390.168 249.526 390.447 249.351C390.625 249.24 390.844 249.134 391.102 249.032C391.361 248.927 391.64 248.872 391.938 248.866C392.239 248.859 392.543 248.942 392.852 249.114C393.161 249.287 393.453 249.593 393.728 250.034L396.014 253.691L395.162 254.224L394.692 253.472L394.648 253.499C394.666 253.656 394.65 253.845 394.601 254.067C394.552 254.288 394.445 254.517 394.282 254.754C394.118 254.99 393.875 255.209 393.552 255.411ZM393.203 254.564C393.54 254.353 393.783 254.109 393.931 253.832C394.082 253.553 394.151 253.272 394.138 252.989C394.128 252.704 394.05 252.446 393.906 252.215L393.418 251.434C393.409 251.5 393.354 251.59 393.254 251.703C393.154 251.812 393.033 251.929 392.891 252.055C392.749 252.177 392.61 252.294 392.473 252.407C392.336 252.516 392.226 252.605 392.142 252.674C391.939 252.841 391.761 253.018 391.609 253.203C391.458 253.385 391.363 253.576 391.325 253.778C391.287 253.975 391.336 254.183 391.472 254.399C391.657 254.696 391.907 254.851 392.221 254.866C392.536 254.877 392.863 254.776 393.203 254.564ZM396.336 248.846L398.423 252.184L397.571 252.718L394.101 247.167L394.925 246.652L395.467 247.52L395.539 247.474C395.493 247.111 395.549 246.761 395.707 246.425C395.864 246.086 396.152 245.785 396.571 245.523C396.947 245.288 397.324 245.16 397.702 245.138C398.078 245.113 398.442 245.207 398.793 245.42C399.142 245.631 399.465 245.972 399.76 246.444L401.965 249.971L401.112 250.504L398.943 247.035C398.671 246.599 398.345 246.33 397.967 246.228C397.587 246.124 397.199 246.196 396.804 246.443C396.532 246.613 396.325 246.824 396.185 247.076C396.047 247.327 395.987 247.603 396.005 247.907C396.024 248.21 396.134 248.523 396.336 248.846ZM407.137 249.793C406.725 250.05 406.337 250.219 405.975 250.298C405.614 250.38 405.281 250.397 404.977 250.349C404.676 250.303 404.408 250.219 404.172 250.099L404.553 249.197C404.693 249.25 404.863 249.305 405.062 249.361C405.263 249.42 405.496 249.433 405.761 249.401C406.03 249.371 406.332 249.251 406.667 249.041C407.115 248.761 407.417 248.422 407.573 248.023C407.729 247.624 407.662 247.193 407.373 246.73L406.668 245.603L406.596 245.648C406.596 245.788 406.586 245.969 406.563 246.191C406.542 246.409 406.46 246.643 406.318 246.892C406.177 247.138 405.926 247.374 405.564 247.6C405.116 247.88 404.648 248.025 404.159 248.036C403.672 248.046 403.199 247.913 402.739 247.637C402.281 247.361 401.871 246.933 401.51 246.355C401.154 245.787 400.945 245.229 400.881 244.683C400.816 244.134 400.89 243.632 401.101 243.178C401.312 242.721 401.651 242.347 402.118 242.055C402.479 241.829 402.804 241.71 403.091 241.698C403.379 241.682 403.627 241.714 403.835 241.795C404.044 241.873 404.21 241.94 404.333 241.997L404.42 241.943L403.869 241.061L404.693 240.546L408.262 246.255C408.56 246.732 408.694 247.188 408.664 247.622C408.638 248.057 408.487 248.458 408.21 248.825C407.938 249.193 407.58 249.516 407.137 249.793ZM405.201 246.761C405.543 246.547 405.783 246.288 405.921 245.984C406.06 245.68 406.098 245.343 406.037 244.972C405.977 244.601 405.818 244.211 405.562 243.802C405.312 243.402 405.031 243.087 404.72 242.856C404.408 242.625 404.08 242.497 403.735 242.471C403.391 242.445 403.045 242.541 402.698 242.758C402.337 242.984 402.093 243.263 401.967 243.597C401.843 243.929 401.817 244.287 401.889 244.671C401.964 245.053 402.119 245.432 402.353 245.808C402.594 246.193 402.868 246.496 403.173 246.717C403.48 246.934 403.805 247.053 404.149 247.072C404.494 247.088 404.845 246.984 405.201 246.761ZM412.123 243.781C411.588 244.115 411.053 244.286 410.517 244.292C409.983 244.295 409.478 244.148 409.001 243.853C408.526 243.554 408.111 243.12 407.755 242.551C407.4 241.983 407.19 241.417 407.126 240.854C407.063 240.287 407.143 239.765 407.364 239.288C407.586 238.807 407.948 238.411 408.449 238.097C408.738 237.917 409.053 237.786 409.395 237.706C409.738 237.627 410.092 237.623 410.459 237.695C410.824 237.765 411.186 237.934 411.545 238.202C411.903 238.47 412.245 238.864 412.568 239.381L412.794 239.743L408.516 242.417L408.055 241.68L411.466 239.548C411.271 239.235 411.033 238.994 410.754 238.827C410.478 238.658 410.181 238.574 409.863 238.575C409.548 238.574 409.236 238.671 408.928 238.863C408.588 239.076 408.347 239.344 408.204 239.667C408.062 239.987 408.009 240.322 408.043 240.672C408.078 241.023 408.191 241.351 408.382 241.657L408.69 242.148C408.952 242.567 409.246 242.877 409.573 243.079C409.9 243.276 410.242 243.369 410.597 243.358C410.95 243.345 411.299 243.23 411.644 243.015C411.868 242.875 412.051 242.717 412.192 242.542C412.335 242.362 412.432 242.167 412.485 241.957C412.536 241.744 412.537 241.518 412.489 241.28L413.458 240.997C413.546 241.33 413.553 241.667 413.481 242.007C413.407 242.345 413.257 242.667 413.03 242.973C412.801 243.277 412.498 243.546 412.123 243.781Z" fill="#E21B1B"/>
<path d="M494.178 239.765L494.921 238.766L495.083 238.89L499.129 238.315L500.117 239.071L495.819 239.668L495.751 239.616L494.178 239.765ZM491.984 241.091L497.286 234.159L498.085 234.77L492.783 241.702L491.984 241.091ZM495.287 243.617L495.224 239.492L496.217 239.372L496.303 244.394L495.287 243.617ZM499.051 246.668C498.55 246.285 498.203 245.844 498.009 245.345C497.819 244.845 497.778 244.321 497.887 243.771C498 243.221 498.261 242.68 498.668 242.147C499.075 241.615 499.531 241.22 500.036 240.962C500.545 240.704 501.061 240.594 501.585 240.634C502.113 240.673 502.612 240.872 503.081 241.231C503.352 241.438 503.585 241.688 503.78 241.98C503.975 242.272 504.103 242.603 504.164 242.971C504.227 243.338 504.196 243.736 504.071 244.166C503.946 244.596 503.698 245.054 503.327 245.539L503.068 245.878L499.061 242.812L499.589 242.122L502.784 244.566C503.008 244.273 503.15 243.966 503.209 243.646C503.269 243.328 503.244 243.02 503.131 242.723C503.021 242.428 502.821 242.17 502.533 241.949C502.214 241.705 501.879 241.574 501.525 241.554C501.176 241.533 500.844 241.601 500.528 241.757C500.212 241.912 499.945 242.133 499.726 242.42L499.374 242.88C499.073 243.273 498.886 243.657 498.813 244.034C498.743 244.41 498.776 244.762 498.911 245.091C499.048 245.417 499.278 245.704 499.6 245.951C499.81 246.111 500.022 246.227 500.236 246.298C500.454 246.368 500.671 246.391 500.887 246.366C501.104 246.339 501.316 246.261 501.521 246.132L502.127 246.939C501.846 247.139 501.533 247.265 501.19 247.317C500.848 247.366 500.493 247.338 500.127 247.233C499.762 247.126 499.403 246.937 499.051 246.668ZM504.599 250.911C504.098 250.528 503.75 250.087 503.556 249.588C503.366 249.089 503.326 248.564 503.435 248.015C503.548 247.464 503.808 246.923 504.216 246.391C504.623 245.858 505.079 245.463 505.584 245.205C506.092 244.947 506.609 244.838 507.133 244.877C507.661 244.916 508.16 245.115 508.629 245.474C508.9 245.681 509.133 245.931 509.328 246.223C509.523 246.515 509.651 246.846 509.712 247.215C509.775 247.581 509.744 247.98 509.619 248.41C509.494 248.84 509.246 249.297 508.875 249.783L508.616 250.121L504.608 247.056L505.136 246.365L508.332 248.809C508.556 248.516 508.697 248.209 508.756 247.889C508.817 247.571 508.791 247.263 508.679 246.966C508.569 246.671 508.369 246.413 508.08 246.192C507.762 245.949 507.426 245.817 507.073 245.797C506.724 245.777 506.391 245.844 506.076 246C505.76 246.155 505.492 246.377 505.273 246.663L504.921 247.123C504.621 247.516 504.434 247.901 504.361 248.277C504.291 248.653 504.324 249.006 504.459 249.334C504.595 249.66 504.825 249.947 505.148 250.194C505.358 250.354 505.57 250.47 505.784 250.541C506.002 250.611 506.219 250.634 506.434 250.609C506.652 250.582 506.863 250.504 507.069 250.376L507.675 251.183C507.393 251.382 507.081 251.508 506.737 251.56C506.395 251.609 506.041 251.582 505.674 251.476C505.309 251.369 504.951 251.181 504.599 250.911ZM506.558 255.329L512.026 248.18L512.798 248.77L512.166 249.596L512.261 249.669C512.389 249.623 512.558 249.57 512.769 249.51C512.984 249.449 513.231 249.438 513.512 249.478C513.797 249.517 514.109 249.666 514.447 249.925C514.885 250.26 515.187 250.664 515.354 251.138C515.52 251.613 515.544 252.122 515.424 252.667C515.304 253.212 515.035 253.758 514.617 254.304C514.196 254.854 513.737 255.26 513.241 255.521C512.747 255.779 512.249 255.892 511.748 255.859C511.249 255.825 510.783 255.641 510.35 255.31C510.016 255.055 509.791 254.795 509.674 254.531C509.56 254.264 509.503 254.018 509.503 253.793C509.505 253.566 509.513 253.383 509.527 253.243L509.459 253.191L507.357 255.94L506.558 255.329ZM510.823 251.38C510.523 251.773 510.315 252.163 510.201 252.551C510.088 252.937 510.078 253.299 510.169 253.638C510.263 253.974 510.47 254.265 510.79 254.51C511.124 254.765 511.47 254.89 511.828 254.885C512.19 254.879 512.542 254.77 512.885 254.556C513.231 254.342 513.546 254.049 513.829 253.679C514.108 253.314 514.304 252.941 514.416 252.561C514.531 252.181 514.542 251.819 514.447 251.475C514.357 251.13 514.142 250.829 513.804 250.57C513.479 250.321 513.143 250.195 512.796 250.19C512.45 250.184 512.109 250.284 511.772 250.491C511.436 250.696 511.12 250.992 510.823 251.38Z" fill="#3EEF12"/>
<path d="M588.879 235.185L589.734 234.281L589.881 234.424L593.966 234.333L594.858 235.201L590.519 235.283L590.458 235.224L588.879 235.185ZM586.542 236.241L592.63 229.987L593.351 230.689L587.263 236.942L586.542 236.241ZM589.523 239.142L589.95 235.038L590.95 235.036L590.439 240.033L589.523 239.142ZM592.898 242.618C592.446 242.178 592.153 241.698 592.019 241.18C591.89 240.661 591.912 240.136 592.086 239.603C592.263 239.07 592.586 238.564 593.054 238.083C593.521 237.603 594.021 237.265 594.553 237.069C595.089 236.873 595.614 236.825 596.13 236.927C596.65 237.028 597.121 237.285 597.545 237.697C597.789 237.935 597.991 238.211 598.149 238.524C598.308 238.837 598.396 239.181 598.413 239.554C598.432 239.926 598.354 240.317 598.179 240.73C598.004 241.142 597.703 241.567 597.277 242.004L596.98 242.31L593.365 238.79L593.971 238.167L596.853 240.973C597.111 240.709 597.288 240.421 597.384 240.11C597.483 239.802 597.493 239.493 597.417 239.185C597.343 238.878 597.175 238.598 596.915 238.345C596.627 238.065 596.31 237.895 595.961 237.833C595.617 237.772 595.279 237.799 594.947 237.916C594.615 238.033 594.323 238.221 594.072 238.479L593.667 238.895C593.322 239.249 593.091 239.609 592.974 239.974C592.86 240.339 592.851 240.693 592.946 241.035C593.043 241.375 593.237 241.687 593.528 241.97C593.717 242.155 593.914 242.295 594.118 242.39C594.326 242.486 594.539 242.534 594.756 242.535C594.975 242.535 595.194 242.482 595.414 242.379L595.92 243.252C595.616 243.417 595.291 243.505 594.944 243.515C594.598 243.524 594.25 243.454 593.898 243.306C593.549 243.156 593.215 242.927 592.898 242.618ZM597.902 247.49C597.45 247.05 597.158 246.57 597.024 246.052C596.895 245.533 596.917 245.008 597.09 244.475C597.268 243.942 597.591 243.436 598.058 242.955C598.526 242.475 599.026 242.137 599.557 241.941C600.093 241.745 600.619 241.697 601.135 241.799C601.654 241.9 602.126 242.157 602.549 242.569C602.794 242.807 602.995 243.083 603.154 243.396C603.313 243.709 603.401 244.053 603.418 244.426C603.437 244.798 603.359 245.189 603.184 245.602C603.008 246.014 602.708 246.439 602.282 246.876L601.984 247.182L598.369 243.662L598.976 243.039L601.858 245.845C602.116 245.581 602.293 245.293 602.389 244.982C602.487 244.674 602.498 244.365 602.422 244.057C602.347 243.75 602.18 243.47 601.919 243.217C601.632 242.937 601.314 242.767 600.966 242.705C600.622 242.644 600.283 242.671 599.952 242.788C599.62 242.905 599.328 243.093 599.076 243.351L598.672 243.767C598.327 244.121 598.096 244.481 597.978 244.846C597.865 245.211 597.855 245.565 597.95 245.907C598.047 246.247 598.241 246.559 598.532 246.842C598.722 247.027 598.918 247.167 599.123 247.262C599.331 247.358 599.543 247.406 599.76 247.407C599.979 247.406 600.199 247.354 600.418 247.251L600.924 248.124C600.621 248.289 600.296 248.377 599.948 248.387C599.603 248.396 599.254 248.326 598.903 248.178C598.553 248.028 598.22 247.799 597.902 247.49ZM599.323 252.108L605.601 245.659L606.297 246.337L605.572 247.082L605.658 247.165C605.79 247.136 605.964 247.103 606.181 247.068C606.401 247.033 606.649 247.052 606.923 247.124C607.201 247.197 607.493 247.382 607.798 247.679C608.193 248.064 608.445 248.501 608.554 248.992C608.663 249.483 608.626 249.991 608.442 250.518C608.258 251.045 607.926 251.555 607.447 252.047C606.963 252.544 606.46 252.892 605.936 253.092C605.414 253.29 604.907 253.343 604.413 253.251C603.922 253.158 603.481 252.92 603.09 252.54C602.789 252.247 602.596 251.962 602.512 251.686C602.43 251.408 602.402 251.157 602.43 250.934C602.459 250.708 602.488 250.527 602.519 250.39L602.458 250.33L600.044 252.81L599.323 252.108ZM604.027 248.694C603.682 249.048 603.43 249.411 603.27 249.783C603.112 250.153 603.059 250.511 603.11 250.858C603.162 251.203 603.333 251.516 603.622 251.797C603.924 252.091 604.252 252.256 604.608 252.293C604.969 252.331 605.331 252.264 605.697 252.092C606.066 251.92 606.413 251.668 606.738 251.334C607.059 251.004 607.298 250.657 607.453 250.293C607.613 249.93 607.667 249.571 607.614 249.219C607.565 248.866 607.388 248.54 607.082 248.243C606.789 247.958 606.471 247.792 606.126 247.747C605.784 247.699 605.434 247.758 605.074 247.924C604.717 248.087 604.368 248.344 604.027 248.694Z" fill="#3EEF12"/>
<path d="M101.818 45V21.7273H115.864V24.2273H104.636V32.0909H115.136V34.5909H104.636V42.5H116.045V45H101.818ZM122.58 27.5455L126.761 34.6818L130.943 27.5455H134.034L128.398 36.2727L134.034 45H130.943L126.761 38.2273L122.58 45H119.489L125.034 36.2727L119.489 27.5455H122.58ZM142.997 45.4091C141.891 45.4091 140.887 45.2008 139.986 44.7841C139.084 44.3598 138.368 43.75 137.838 42.9545C137.308 42.1515 137.043 41.1818 137.043 40.0455C137.043 39.0455 137.24 38.2348 137.634 37.6136C138.027 36.9848 138.554 36.4924 139.213 36.1364C139.872 35.7803 140.599 35.5152 141.395 35.3409C142.198 35.1591 143.005 35.0152 143.815 34.9091C144.876 34.7727 145.736 34.6705 146.395 34.6023C147.062 34.5265 147.546 34.4015 147.849 34.2273C148.16 34.053 148.315 33.75 148.315 33.3182V33.2273C148.315 32.1061 148.009 31.2348 147.395 30.6136C146.789 29.9924 145.868 29.6818 144.634 29.6818C143.353 29.6818 142.349 29.9621 141.622 30.5227C140.895 31.0833 140.384 31.6818 140.088 32.3182L137.543 31.4091C137.997 30.3485 138.603 29.5227 139.361 28.9318C140.126 28.3333 140.959 27.9167 141.861 27.6818C142.77 27.4394 143.664 27.3182 144.543 27.3182C145.103 27.3182 145.747 27.3864 146.474 27.5227C147.209 27.6515 147.918 27.9205 148.599 28.3295C149.289 28.7386 149.861 29.3561 150.315 30.1818C150.77 31.0076 150.997 32.1136 150.997 33.5V45H148.315V42.6364H148.179C147.997 43.0152 147.694 43.4205 147.27 43.8523C146.846 44.2841 146.281 44.6515 145.577 44.9545C144.872 45.2576 144.012 45.4091 142.997 45.4091ZM143.406 43C144.467 43 145.361 42.7917 146.088 42.375C146.823 41.9583 147.376 41.4205 147.747 40.7614C148.126 40.1023 148.315 39.4091 148.315 38.6818V36.2273C148.202 36.3636 147.952 36.4886 147.565 36.6023C147.187 36.7083 146.747 36.803 146.247 36.8864C145.755 36.9621 145.274 37.0303 144.804 37.0909C144.342 37.1439 143.967 37.1894 143.679 37.2273C142.982 37.3182 142.33 37.4659 141.724 37.6705C141.126 37.8674 140.641 38.1667 140.27 38.5682C139.906 38.9621 139.724 39.5 139.724 40.1818C139.724 41.1136 140.069 41.8182 140.759 42.2955C141.455 42.7652 142.338 43 143.406 43ZM155.892 45V27.5455H158.483V30.2727H158.71C159.074 29.3409 159.661 28.6174 160.472 28.1023C161.282 27.5795 162.256 27.3182 163.392 27.3182C164.544 27.3182 165.502 27.5795 166.267 28.1023C167.04 28.6174 167.642 29.3409 168.074 30.2727H168.256C168.703 29.3712 169.373 28.6553 170.267 28.125C171.161 27.5871 172.233 27.3182 173.483 27.3182C175.044 27.3182 176.32 27.8068 177.312 28.7841C178.305 29.7538 178.801 31.2652 178.801 33.3182V45H176.119V33.3182C176.119 32.0303 175.767 31.1098 175.062 30.5568C174.358 30.0038 173.528 29.7273 172.574 29.7273C171.347 29.7273 170.396 30.0985 169.722 30.8409C169.047 31.5758 168.71 32.5076 168.71 33.6364V45H165.983V33.0455C165.983 32.053 165.661 31.2538 165.017 30.6477C164.373 30.0341 163.544 29.7273 162.528 29.7273C161.831 29.7273 161.18 29.9129 160.574 30.2841C159.975 30.6553 159.491 31.1705 159.119 31.8295C158.756 32.4811 158.574 33.2348 158.574 34.0909V45H155.892ZM183.705 51.5455V27.5455H186.295V30.3182H186.614C186.811 30.0152 187.083 29.6288 187.432 29.1591C187.788 28.6818 188.295 28.2576 188.955 27.8864C189.621 27.5076 190.523 27.3182 191.659 27.3182C193.129 27.3182 194.424 27.6856 195.545 28.4205C196.667 29.1553 197.542 30.197 198.17 31.5455C198.799 32.8939 199.114 34.4848 199.114 36.3182C199.114 38.1667 198.799 39.7689 198.17 41.125C197.542 42.4735 196.67 43.5189 195.557 44.2614C194.443 44.9962 193.159 45.3636 191.705 45.3636C190.583 45.3636 189.686 45.178 189.011 44.8068C188.337 44.428 187.818 44 187.455 43.5227C187.091 43.0379 186.811 42.6364 186.614 42.3182H186.386V51.5455H183.705ZM186.341 36.2727C186.341 37.5909 186.534 38.7538 186.92 39.7614C187.307 40.7614 187.871 41.5455 188.614 42.1136C189.356 42.6742 190.265 42.9545 191.341 42.9545C192.462 42.9545 193.398 42.6591 194.148 42.0682C194.905 41.4697 195.473 40.6667 195.852 39.6591C196.239 38.6439 196.432 37.5152 196.432 36.2727C196.432 35.0455 196.242 33.9394 195.864 32.9545C195.492 31.9621 194.928 31.178 194.17 30.6023C193.42 30.0189 192.477 29.7273 191.341 29.7273C190.25 29.7273 189.333 30.0038 188.591 30.5568C187.848 31.1023 187.288 31.8674 186.909 32.8523C186.53 33.8295 186.341 34.9697 186.341 36.2727ZM205.886 21.7273V45H203.205V21.7273H205.886ZM218.116 45.3636C216.435 45.3636 214.984 44.9924 213.764 44.25C212.552 43.5 211.616 42.4545 210.957 41.1136C210.306 39.7652 209.98 38.197 209.98 36.4091C209.98 34.6212 210.306 33.0455 210.957 31.6818C211.616 30.3106 212.533 29.2424 213.707 28.4773C214.889 27.7045 216.268 27.3182 217.844 27.3182C218.753 27.3182 219.651 27.4697 220.537 27.7727C221.423 28.0758 222.23 28.5682 222.957 29.25C223.685 29.9242 224.264 30.8182 224.696 31.9318C225.128 33.0455 225.344 34.4167 225.344 36.0455V37.1818H211.889V34.8636H222.616C222.616 33.8788 222.42 33 222.026 32.2273C221.639 31.4545 221.086 30.8447 220.366 30.3977C219.654 29.9508 218.813 29.7273 217.844 29.7273C216.776 29.7273 215.851 29.9924 215.071 30.5227C214.298 31.0455 213.704 31.7273 213.287 32.5682C212.87 33.4091 212.662 34.3106 212.662 35.2727V36.8182C212.662 38.1364 212.889 39.2538 213.344 40.1705C213.806 41.0795 214.446 41.7727 215.264 42.25C216.082 42.7197 217.033 42.9545 218.116 42.9545C218.821 42.9545 219.457 42.8561 220.026 42.6591C220.601 42.4545 221.098 42.1515 221.514 41.75C221.931 41.3409 222.253 40.8333 222.48 40.2273L225.071 40.9545C224.798 41.8333 224.34 42.6061 223.696 43.2727C223.052 43.9318 222.257 44.447 221.31 44.8182C220.363 45.1818 219.298 45.3636 218.116 45.3636ZM246.56 21.7273V45H243.741V24.6818H243.605L237.923 28.4545V25.5909L243.741 21.7273H246.56Z" fill="black"/>
<path d="M423.818 45V21.7273H437.864V24.2273H426.636V32.0909H437.136V34.5909H426.636V42.5H438.045V45H423.818ZM444.58 27.5455L448.761 34.6818L452.943 27.5455H456.034L450.398 36.2727L456.034 45H452.943L448.761 38.2273L444.58 45H441.489L447.034 36.2727L441.489 27.5455H444.58ZM464.997 45.4091C463.891 45.4091 462.887 45.2008 461.986 44.7841C461.084 44.3598 460.368 43.75 459.838 42.9545C459.308 42.1515 459.043 41.1818 459.043 40.0455C459.043 39.0455 459.24 38.2348 459.634 37.6136C460.027 36.9848 460.554 36.4924 461.213 36.1364C461.872 35.7803 462.599 35.5152 463.395 35.3409C464.198 35.1591 465.005 35.0152 465.815 34.9091C466.876 34.7727 467.736 34.6705 468.395 34.6023C469.062 34.5265 469.546 34.4015 469.849 34.2273C470.16 34.053 470.315 33.75 470.315 33.3182V33.2273C470.315 32.1061 470.009 31.2348 469.395 30.6136C468.789 29.9924 467.868 29.6818 466.634 29.6818C465.353 29.6818 464.349 29.9621 463.622 30.5227C462.895 31.0833 462.384 31.6818 462.088 32.3182L459.543 31.4091C459.997 30.3485 460.603 29.5227 461.361 28.9318C462.126 28.3333 462.959 27.9167 463.861 27.6818C464.77 27.4394 465.664 27.3182 466.543 27.3182C467.103 27.3182 467.747 27.3864 468.474 27.5227C469.209 27.6515 469.918 27.9205 470.599 28.3295C471.289 28.7386 471.861 29.3561 472.315 30.1818C472.77 31.0076 472.997 32.1136 472.997 33.5V45H470.315V42.6364H470.179C469.997 43.0152 469.694 43.4205 469.27 43.8523C468.846 44.2841 468.281 44.6515 467.577 44.9545C466.872 45.2576 466.012 45.4091 464.997 45.4091ZM465.406 43C466.467 43 467.361 42.7917 468.088 42.375C468.823 41.9583 469.376 41.4205 469.747 40.7614C470.126 40.1023 470.315 39.4091 470.315 38.6818V36.2273C470.202 36.3636 469.952 36.4886 469.565 36.6023C469.187 36.7083 468.747 36.803 468.247 36.8864C467.755 36.9621 467.274 37.0303 466.804 37.0909C466.342 37.1439 465.967 37.1894 465.679 37.2273C464.982 37.3182 464.33 37.4659 463.724 37.6705C463.126 37.8674 462.641 38.1667 462.27 38.5682C461.906 38.9621 461.724 39.5 461.724 40.1818C461.724 41.1136 462.069 41.8182 462.759 42.2955C463.455 42.7652 464.338 43 465.406 43ZM477.892 45V27.5455H480.483V30.2727H480.71C481.074 29.3409 481.661 28.6174 482.472 28.1023C483.282 27.5795 484.256 27.3182 485.392 27.3182C486.544 27.3182 487.502 27.5795 488.267 28.1023C489.04 28.6174 489.642 29.3409 490.074 30.2727H490.256C490.703 29.3712 491.373 28.6553 492.267 28.125C493.161 27.5871 494.233 27.3182 495.483 27.3182C497.044 27.3182 498.32 27.8068 499.312 28.7841C500.305 29.7538 500.801 31.2652 500.801 33.3182V45H498.119V33.3182C498.119 32.0303 497.767 31.1098 497.062 30.5568C496.358 30.0038 495.528 29.7273 494.574 29.7273C493.347 29.7273 492.396 30.0985 491.722 30.8409C491.047 31.5758 490.71 32.5076 490.71 33.6364V45H487.983V33.0455C487.983 32.053 487.661 31.2538 487.017 30.6477C486.373 30.0341 485.544 29.7273 484.528 29.7273C483.831 29.7273 483.18 29.9129 482.574 30.2841C481.975 30.6553 481.491 31.1705 481.119 31.8295C480.756 32.4811 480.574 33.2348 480.574 34.0909V45H477.892ZM505.705 51.5455V27.5455H508.295V30.3182H508.614C508.811 30.0152 509.083 29.6288 509.432 29.1591C509.788 28.6818 510.295 28.2576 510.955 27.8864C511.621 27.5076 512.523 27.3182 513.659 27.3182C515.129 27.3182 516.424 27.6856 517.545 28.4205C518.667 29.1553 519.542 30.197 520.17 31.5455C520.799 32.8939 521.114 34.4848 521.114 36.3182C521.114 38.1667 520.799 39.7689 520.17 41.125C519.542 42.4735 518.67 43.5189 517.557 44.2614C516.443 44.9962 515.159 45.3636 513.705 45.3636C512.583 45.3636 511.686 45.178 511.011 44.8068C510.337 44.428 509.818 44 509.455 43.5227C509.091 43.0379 508.811 42.6364 508.614 42.3182H508.386V51.5455H505.705ZM508.341 36.2727C508.341 37.5909 508.534 38.7538 508.92 39.7614C509.307 40.7614 509.871 41.5455 510.614 42.1136C511.356 42.6742 512.265 42.9545 513.341 42.9545C514.462 42.9545 515.398 42.6591 516.148 42.0682C516.905 41.4697 517.473 40.6667 517.852 39.6591C518.239 38.6439 518.432 37.5152 518.432 36.2727C518.432 35.0455 518.242 33.9394 517.864 32.9545C517.492 31.9621 516.928 31.178 516.17 30.6023C515.42 30.0189 514.477 29.7273 513.341 29.7273C512.25 29.7273 511.333 30.0038 510.591 30.5568C509.848 31.1023 509.288 31.8674 508.909 32.8523C508.53 33.8295 508.341 34.9697 508.341 36.2727ZM527.886 21.7273V45H525.205V21.7273H527.886ZM540.116 45.3636C538.435 45.3636 536.984 44.9924 535.764 44.25C534.552 43.5 533.616 42.4545 532.957 41.1136C532.306 39.7652 531.98 38.197 531.98 36.4091C531.98 34.6212 532.306 33.0455 532.957 31.6818C533.616 30.3106 534.533 29.2424 535.707 28.4773C536.889 27.7045 538.268 27.3182 539.844 27.3182C540.753 27.3182 541.651 27.4697 542.537 27.7727C543.423 28.0758 544.23 28.5682 544.957 29.25C545.685 29.9242 546.264 30.8182 546.696 31.9318C547.128 33.0455 547.344 34.4167 547.344 36.0455V37.1818H533.889V34.8636H544.616C544.616 33.8788 544.42 33 544.026 32.2273C543.639 31.4545 543.086 30.8447 542.366 30.3977C541.654 29.9508 540.813 29.7273 539.844 29.7273C538.776 29.7273 537.851 29.9924 537.071 30.5227C536.298 31.0455 535.704 31.7273 535.287 32.5682C534.87 33.4091 534.662 34.3106 534.662 35.2727V36.8182C534.662 38.1364 534.889 39.2538 535.344 40.1705C535.806 41.0795 536.446 41.7727 537.264 42.25C538.082 42.7197 539.033 42.9545 540.116 42.9545C540.821 42.9545 541.457 42.8561 542.026 42.6591C542.601 42.4545 543.098 42.1515 543.514 41.75C543.931 41.3409 544.253 40.8333 544.48 40.2273L547.071 40.9545C546.798 41.8333 546.34 42.6061 545.696 43.2727C545.052 43.9318 544.257 44.447 543.31 44.8182C542.363 45.1818 541.298 45.3636 540.116 45.3636ZM560.378 45V42.9545L568.06 34.5455C568.961 33.5606 569.704 32.7045 570.287 31.9773C570.87 31.2424 571.302 30.553 571.582 29.9091C571.87 29.2576 572.014 28.5758 572.014 27.8636C572.014 27.0455 571.817 26.3371 571.423 25.7386C571.037 25.1402 570.507 24.678 569.832 24.3523C569.158 24.0265 568.401 23.8636 567.56 23.8636C566.666 23.8636 565.885 24.0492 565.219 24.4205C564.56 24.7841 564.048 25.2955 563.685 25.9545C563.329 26.6136 563.151 27.3864 563.151 28.2727H560.469C560.469 26.9091 560.783 25.7121 561.412 24.6818C562.041 23.6515 562.897 22.8485 563.98 22.2727C565.071 21.697 566.295 21.4091 567.651 21.4091C569.014 21.4091 570.223 21.697 571.276 22.2727C572.329 22.8485 573.154 23.625 573.753 24.6023C574.351 25.5795 574.651 26.6667 574.651 27.8636C574.651 28.7197 574.495 29.5568 574.185 30.375C573.882 31.1856 573.351 32.0909 572.594 33.0909C571.844 34.0833 570.802 35.2955 569.469 36.7273L564.241 42.3182V42.5H575.06V45H560.378Z" fill="black"/>
</svg>
