<svg width="500" height="317" viewBox="0 0 500 317" fill="none" xmlns="http://www.w3.org/2000/svg">
<g id="penney-tree">
<rect width="500" height="317" fill="white"/>
<ellipse id="start" cx="119.5" cy="158.5" rx="34.5" ry="14.5" fill="#D9D9D9"/>
<path id="START" d="M105.83 155.455C105.778 155.023 105.571 154.688 105.207 154.449C104.844 154.21 104.398 154.091 103.869 154.091C103.483 154.091 103.145 154.153 102.855 154.278C102.568 154.403 102.344 154.575 102.182 154.794C102.023 155.013 101.943 155.261 101.943 155.54C101.943 155.773 101.999 155.973 102.109 156.141C102.223 156.305 102.368 156.443 102.544 156.554C102.72 156.662 102.905 156.751 103.098 156.822C103.291 156.891 103.469 156.946 103.631 156.989L104.517 157.227C104.744 157.287 104.997 157.369 105.276 157.474C105.557 157.58 105.825 157.723 106.081 157.905C106.339 158.084 106.553 158.314 106.72 158.595C106.888 158.876 106.972 159.222 106.972 159.631C106.972 160.102 106.848 160.528 106.601 160.909C106.357 161.29 105.999 161.592 105.527 161.817C105.058 162.041 104.489 162.153 103.818 162.153C103.193 162.153 102.652 162.053 102.195 161.851C101.74 161.649 101.382 161.368 101.121 161.007C100.862 160.646 100.716 160.227 100.682 159.75H101.773C101.801 160.08 101.912 160.352 102.105 160.568C102.301 160.781 102.548 160.94 102.847 161.045C103.148 161.148 103.472 161.199 103.818 161.199C104.222 161.199 104.584 161.134 104.905 161.003C105.226 160.869 105.48 160.685 105.668 160.449C105.855 160.21 105.949 159.932 105.949 159.614C105.949 159.324 105.868 159.088 105.706 158.906C105.544 158.724 105.331 158.577 105.067 158.463C104.803 158.349 104.517 158.25 104.21 158.165L103.136 157.858C102.455 157.662 101.915 157.382 101.517 157.018C101.119 156.655 100.92 156.179 100.92 155.591C100.92 155.102 101.053 154.676 101.317 154.312C101.584 153.946 101.942 153.662 102.391 153.46C102.842 153.256 103.347 153.153 103.903 153.153C104.466 153.153 104.966 153.254 105.403 153.456C105.841 153.655 106.188 153.928 106.443 154.274C106.702 154.621 106.838 155.014 106.852 155.455H105.83ZM108.232 154.21V153.273H114.777V154.21H112.033V162H110.976V154.21H108.232ZM115.747 162H114.639L117.843 153.273H118.934L122.139 162H121.031L118.423 154.653H118.355L115.747 162ZM116.156 158.591H120.622V159.528H116.156V158.591ZM123.498 162V153.273H126.447C127.129 153.273 127.689 153.389 128.126 153.622C128.564 153.852 128.887 154.169 129.098 154.572C129.308 154.976 129.413 155.435 129.413 155.949C129.413 156.463 129.308 156.919 129.098 157.317C128.887 157.714 128.565 158.027 128.13 158.254C127.696 158.479 127.14 158.591 126.464 158.591H124.078V157.636H126.43C126.896 157.636 127.271 157.568 127.555 157.432C127.842 157.295 128.049 157.102 128.177 156.852C128.308 156.599 128.373 156.298 128.373 155.949C128.373 155.599 128.308 155.294 128.177 155.033C128.047 154.771 127.838 154.57 127.551 154.428C127.264 154.283 126.885 154.21 126.413 154.21H124.555V162H123.498ZM127.606 158.08L129.754 162H128.527L126.413 158.08H127.606ZM130.697 154.21V153.273H137.242V154.21H134.498V162H133.441V154.21H130.697Z" fill="black"/>
<path id="H" d="M163.551 134V123.818H164.784V128.352H170.213V123.818H171.446V134H170.213V129.446H164.784V134H163.551Z" fill="black"/>
<path id="H_2" d="M251.551 196V185.818H252.784V190.352H258.213V185.818H259.446V196H258.213V191.446H252.784V196H251.551Z" fill="black"/>
<path id="H_3" d="M340.551 112V101.818H341.784V106.352H347.213V101.818H348.446V112H347.213V107.446H341.784V112H340.551Z" fill="black"/>
<path id="T" d="M251.685 100.912V99.8182H259.321V100.912H256.12V110H254.887V100.912H251.685Z" fill="black"/>
<path id="T_2" d="M246.685 145.912V144.818H254.321V145.912H251.12V155H249.887V145.912H246.685Z" fill="black"/>
<path id="T_3" d="M231.685 259.912V258.818H239.321V259.912H236.12V269H234.887V259.912H231.685Z" fill="black"/>
<path id="T_4" d="M295.685 270.912V269.818H303.321V270.912H300.12V280H298.887V270.912H295.685Z" fill="black"/>
<path id="H_4" d="M181.551 45V34.8182H182.784V39.3523H188.213V34.8182H189.446V45H188.213V40.446H182.784V45H181.551Z" fill="black"/>
<path id="T_5" d="M160.685 181.912V180.818H168.321V181.912H165.12V191H163.887V181.912H160.685Z" fill="black"/>
<path id="H_5" d="M339.551 196V185.818H340.784V190.352H346.213V185.818H347.446V196H346.213V191.446H340.784V196H339.551Z" fill="black"/>
<path id="Arrow 14" d="M196.495 122.073C196.535 121.799 196.346 121.545 196.073 121.505L191.62 120.852C191.347 120.812 191.093 121.001 191.053 121.274C191.013 121.548 191.202 121.802 191.475 121.842L195.433 122.422L194.852 126.38C194.812 126.653 195.001 126.907 195.274 126.947C195.548 126.987 195.802 126.798 195.842 126.525L196.495 122.073ZM153.299 154.401L196.299 122.401L195.701 121.599L152.701 153.599L153.299 154.401Z" fill="black"/>
<ellipse id="Ellipse 6" cx="216.5" cy="114" rx="18.5" ry="17" fill="#D9D9D9"/>
<path id="H_6" d="M212.551 119V108.818H213.784V113.352H219.213V108.818H220.446V119H219.213V114.446H213.784V119H212.551Z" fill="black"/>
<path id="Arrow 16" d="M280.354 114.354C280.549 114.158 280.549 113.842 280.354 113.646L277.172 110.464C276.976 110.269 276.66 110.269 276.464 110.464C276.269 110.66 276.269 110.976 276.464 111.172L279.293 114L276.464 116.828C276.269 117.024 276.269 117.34 276.464 117.536C276.66 117.731 276.976 117.731 277.172 117.536L280.354 114.354ZM235 114.5H280V113.5H235V114.5Z" fill="black"/>
<ellipse id="Ellipse 8" cx="302.5" cy="114" rx="18.5" ry="17" fill="#D9D9D9"/>
<path id="HT" d="M294.06 119V108.818H295.293V113.352H300.722V108.818H301.955V119H300.722V114.446H295.293V119H294.06ZM303.867 109.912V108.818H311.503V109.912H308.301V119H307.068V109.912H303.867Z" fill="black"/>
<path id="Arrow 17" d="M368.354 114.354C368.549 114.158 368.549 113.842 368.354 113.646L365.172 110.464C364.976 110.269 364.66 110.269 364.464 110.464C364.269 110.66 364.269 110.976 364.464 111.172L367.293 114L364.464 116.828C364.269 117.024 364.269 117.34 364.464 117.536C364.66 117.731 364.976 117.731 365.172 117.536L368.354 114.354ZM323 114.5H368V113.5H323V114.5Z" fill="black"/>
<path id="Arrow 15" d="M196.051 201.497C196.326 201.469 196.526 201.224 196.497 200.949L196.038 196.472C196.01 196.198 195.765 195.998 195.49 196.026C195.215 196.054 195.015 196.3 195.043 196.574L195.452 200.554L191.472 200.962C191.198 200.99 190.998 201.235 191.026 201.51C191.054 201.785 191.3 201.985 191.574 201.957L196.051 201.497ZM152.684 166.388L195.684 201.388L196.316 200.612L153.316 165.612L152.684 166.388Z" fill="black"/>
<ellipse id="Ellipse 10" cx="391.5" cy="114.5" rx="22.5" ry="21.5" fill="#D9D9D9"/>
<path id="HTH" d="M379.324 118V109.273H380.381V113.159H385.035V109.273H386.091V118H385.035V114.097H380.381V118H379.324ZM387.73 110.21V109.273H394.275V110.21H391.531V118H390.474V110.21H387.73ZM395.906 118V109.273H396.963V113.159H401.617V109.273H402.673V118H401.617V114.097H396.963V118H395.906Z" fill="black"/>
<ellipse id="Ellipse 11" cx="216.5" cy="200" rx="18.5" ry="17" fill="#D9D9D9"/>
<path id="T_6" d="M212.685 195.912V194.818H220.321V195.912H217.12V205H215.887V195.912H212.685Z" fill="black"/>
<path id="Arrow 18" d="M280.354 200.354C280.549 200.158 280.549 199.842 280.354 199.646L277.172 196.464C276.976 196.269 276.66 196.269 276.464 196.464C276.269 196.66 276.269 196.976 276.464 197.172L279.293 200L276.464 202.828C276.269 203.024 276.269 203.34 276.464 203.536C276.66 203.731 276.976 203.731 277.172 203.536L280.354 200.354ZM235 200.5H280V199.5H235V200.5Z" fill="black"/>
<ellipse id="Ellipse 12" cx="302.5" cy="200" rx="18.5" ry="17" fill="#D9D9D9"/>
<path id="TH" d="M293.503 195.912V194.818H301.14V195.912H297.938V205H296.705V195.912H293.503ZM303.043 205V194.818H304.275V199.352H309.704V194.818H310.937V205H309.704V200.446H304.275V205H303.043Z" fill="black"/>
<path id="Arrow 19" d="M368.354 200.354C368.549 200.158 368.549 199.842 368.354 199.646L365.172 196.464C364.976 196.269 364.66 196.269 364.464 196.464C364.269 196.66 364.269 196.976 364.464 197.172L367.293 200L364.464 202.828C364.269 203.024 364.269 203.34 364.464 203.536C364.66 203.731 364.976 203.731 365.172 203.536L368.354 200.354ZM323 200.5H368V199.5H323V200.5Z" fill="black"/>
<ellipse id="Ellipse 13" cx="391.5" cy="200.5" rx="22.5" ry="21.5" fill="#D9D9D9"/>
<path id="THH" d="M378.847 196.21V195.273H385.393V196.21H382.648V204H381.591V196.21H378.847ZM387.024 204V195.273H388.08V199.159H392.734V195.273H393.791V204H392.734V200.097H388.08V204H387.024ZM395.906 204V195.273H396.963V199.159H401.617V195.273H402.673V204H401.617V200.097H396.963V204H395.906Z" fill="black"/>
<path id="Arrow 20" d="M199.691 93.4705C199.951 93.564 200.238 93.4291 200.331 93.1693L201.855 88.9352C201.948 88.6754 201.814 88.3889 201.554 88.2954C201.294 88.2019 201.008 88.3367 200.914 88.5965L199.559 92.3602L195.796 91.0057C195.536 90.9122 195.25 91.047 195.156 91.3068C195.063 91.5666 195.197 91.8531 195.457 91.9466L199.691 93.4705ZM233.34 93.1873C242.124 71.4409 242.005 55.2099 237.393 44.4215C232.776 33.6216 223.671 28.3289 214.671 28.5042C205.67 28.6795 196.849 34.3219 192.803 45.214C188.761 56.0932 189.495 72.1527 199.408 93.2129L200.313 92.7871C190.466 71.8679 189.825 56.1005 193.74 45.5622C197.651 35.0367 206.12 29.6709 214.69 29.504C223.261 29.3371 232.008 34.3682 236.474 44.8146C240.944 55.2727 241.138 71.2108 232.413 92.8127L233.34 93.1873Z" fill="black"/>
<path id="Arrow 21" d="M226.503 178.947C226.473 179.221 226.672 179.468 226.947 179.497L231.421 179.977C231.696 180.006 231.942 179.807 231.972 179.533C232.001 179.258 231.802 179.012 231.528 178.982L227.55 178.556L227.977 174.579C228.006 174.304 227.807 174.058 227.533 174.028C227.258 173.999 227.012 174.198 226.982 174.472L226.503 178.947ZM288.686 128.611L226.686 178.611L227.314 179.389L289.314 129.389L288.686 128.611Z" fill="black"/>
<path id="Arrow 22" d="M212.485 221.878C212.417 221.61 212.145 221.448 211.877 221.516L207.515 222.619C207.247 222.687 207.085 222.959 207.153 223.226C207.22 223.494 207.492 223.656 207.76 223.588L211.638 222.608L212.618 226.486C212.686 226.753 212.958 226.916 213.226 226.848C213.494 226.78 213.656 226.508 213.588 226.241L212.485 221.878ZM225.627 222.333C235.829 233.779 237.916 242.758 236.06 248.926C234.205 255.092 228.345 258.67 222.146 259.189C215.949 259.708 209.57 257.157 206.692 251.242C203.808 245.318 204.34 235.823 212.429 222.257L211.571 221.744C203.411 235.428 202.692 245.308 205.793 251.68C208.898 258.062 215.738 260.73 222.229 260.186C228.718 259.643 235.014 255.877 237.018 249.215C239.021 242.556 236.671 233.221 226.373 221.668L225.627 222.333Z" fill="black"/>
<path id="Arrow 23" d="M203.777 221.758C203.628 221.526 203.318 221.458 203.086 221.607L199.299 224.038C199.066 224.187 198.999 224.496 199.148 224.729C199.297 224.961 199.607 225.029 199.839 224.88L203.205 222.719L205.366 226.085C205.515 226.318 205.824 226.385 206.057 226.236C206.289 226.087 206.357 225.778 206.207 225.545L203.777 221.758ZM307.904 221.242C314.413 234.997 309.897 248.163 299.668 258.684C289.427 269.218 273.506 277.034 257.429 279.966C241.343 282.899 225.219 280.923 214.499 272.033C203.814 263.172 198.351 247.313 203.845 222.135L202.868 221.922C197.327 247.316 202.786 263.619 213.86 272.802C224.9 281.957 241.374 283.91 257.608 280.949C273.852 277.988 289.975 270.089 300.385 259.381C310.806 248.662 315.549 235.06 308.808 220.814L307.904 221.242Z" fill="black"/>
</g>
</svg>
