<svg width="345" height="179" viewBox="0 0 345 179" fill="none" xmlns="http://www.w3.org/2000/svg">
<path d="M323.966 67.2102V66.3409L327.802 60.2727H328.432V61.6193H328.006L325.108 66.2045V66.2727H330.273V67.2102H323.966ZM328.074 69V66.946V66.5412V60.2727H329.08V69H328.074ZM334.972 59.8636L332.16 70.3125H331.24L334.052 59.8636H334.972ZM339.045 69.1193C338.687 69.1136 338.329 69.0455 337.971 68.9148C337.613 68.7841 337.287 68.5639 336.991 68.2543C336.696 67.9418 336.459 67.5199 336.28 66.9886C336.101 66.4545 336.011 65.7841 336.011 64.9773C336.011 64.2045 336.084 63.5199 336.229 62.9233C336.373 62.3239 336.584 61.8196 336.859 61.4105C337.135 60.9986 337.467 60.6861 337.856 60.473C338.248 60.2599 338.69 60.1534 339.182 60.1534C339.67 60.1534 340.105 60.2514 340.486 60.4474C340.869 60.6406 341.182 60.9105 341.423 61.2571C341.665 61.6037 341.821 62.0028 341.892 62.4545H340.852C340.756 62.0625 340.568 61.7372 340.29 61.4787C340.011 61.2202 339.642 61.0909 339.182 61.0909C338.506 61.0909 337.973 61.3849 337.584 61.973C337.197 62.5611 337.003 63.3864 337 64.4489H337.068C337.227 64.2074 337.416 64.0014 337.635 63.831C337.856 63.6577 338.101 63.5241 338.368 63.4304C338.635 63.3366 338.917 63.2898 339.216 63.2898C339.716 63.2898 340.173 63.4148 340.588 63.6648C341.003 63.9119 341.335 64.2543 341.585 64.6918C341.835 65.1264 341.96 65.625 341.96 66.1875C341.96 66.7273 341.839 67.2216 341.598 67.6705C341.356 68.1165 341.017 68.4716 340.579 68.7358C340.145 68.9972 339.633 69.125 339.045 69.1193ZM339.045 68.1818C339.403 68.1818 339.724 68.0923 340.008 67.9134C340.295 67.7344 340.521 67.4943 340.686 67.1932C340.854 66.892 340.937 66.5568 340.937 66.1875C340.937 65.8267 340.856 65.4986 340.694 65.2031C340.535 64.9048 340.315 64.6676 340.034 64.4915C339.756 64.3153 339.437 64.2273 339.079 64.2273C338.809 64.2273 338.558 64.2812 338.325 64.3892C338.092 64.4943 337.888 64.6392 337.711 64.8239C337.538 65.0085 337.402 65.2202 337.302 65.4588C337.203 65.6946 337.153 65.9432 337.153 66.2045C337.153 66.5511 337.234 66.875 337.396 67.1761C337.561 67.4773 337.785 67.7202 338.069 67.9048C338.356 68.0895 338.682 68.1818 339.045 68.1818Z" fill="black"/>
<line x1="0.832697" y1="64.5288" x2="138.833" y2="15.5288" stroke="black"/>
<line x1="1.17032" y1="60.5299" x2="139.17" y2="110.53" stroke="black"/>
<path d="M47.2853 20V11.2727H50.2342C50.916 11.2727 51.4757 11.3892 51.9132 11.6222C52.3507 11.8523 52.6745 12.169 52.8848 12.5724C53.095 12.9759 53.2001 13.4347 53.2001 13.9489C53.2001 14.4631 53.095 14.919 52.8848 15.3168C52.6745 15.7145 52.3521 16.027 51.9174 16.2543C51.4828 16.4787 50.9274 16.5909 50.2512 16.5909H47.8649V15.6364H50.2172C50.6831 15.6364 51.0581 15.5682 51.3422 15.4318C51.6291 15.2955 51.8365 15.1023 51.9643 14.8523C52.095 14.5994 52.1603 14.2983 52.1603 13.9489C52.1603 13.5994 52.095 13.294 51.9643 13.0327C51.8336 12.7713 51.6248 12.5696 51.3379 12.4276C51.051 12.2827 50.6717 12.2102 50.2001 12.2102H48.3422V20H47.2853ZM51.3933 16.0795L53.541 20H52.3137L50.2001 16.0795H51.3933ZM57.4135 20.1364C56.8226 20.1364 56.3042 19.9957 55.8581 19.7145C55.415 19.4332 55.0684 19.0398 54.8184 18.5341C54.5712 18.0284 54.4476 17.4375 54.4476 16.7614C54.4476 16.0795 54.5712 15.4844 54.8184 14.9759C55.0684 14.4673 55.415 14.0724 55.8581 13.7912C56.3042 13.5099 56.8226 13.3693 57.4135 13.3693C58.0044 13.3693 58.5215 13.5099 58.9647 13.7912C59.4107 14.0724 59.7573 14.4673 60.0044 14.9759C60.2544 15.4844 60.3794 16.0795 60.3794 16.7614C60.3794 17.4375 60.2544 18.0284 60.0044 18.5341C59.7573 19.0398 59.4107 19.4332 58.9647 19.7145C58.5215 19.9957 58.0044 20.1364 57.4135 20.1364ZM57.4135 19.233C57.8624 19.233 58.2317 19.1179 58.5215 18.8878C58.8113 18.6577 59.0257 18.3551 59.165 17.9801C59.3042 17.6051 59.3738 17.1989 59.3738 16.7614C59.3738 16.3239 59.3042 15.9162 59.165 15.5384C59.0257 15.1605 58.8113 14.8551 58.5215 14.6222C58.2317 14.3892 57.8624 14.2727 57.4135 14.2727C56.9647 14.2727 56.5953 14.3892 56.3056 14.6222C56.0158 14.8551 55.8013 15.1605 55.6621 15.5384C55.5229 15.9162 55.4533 16.3239 55.4533 16.7614C55.4533 17.1989 55.5229 17.6051 55.6621 17.9801C55.8013 18.3551 56.0158 18.6577 56.3056 18.8878C56.5953 19.1179 56.9647 19.233 57.4135 19.233ZM62.9203 11.2727V20H61.9146V11.2727H62.9203ZM65.7679 11.2727V20H64.7623V11.2727H65.7679ZM72.2463 14.9205L71.3429 15.1761C71.286 15.0256 71.2022 14.8793 71.0914 14.7372C70.9835 14.5923 70.8358 14.473 70.6483 14.3793C70.4608 14.2855 70.2207 14.2386 69.9281 14.2386C69.5275 14.2386 69.1937 14.331 68.9267 14.5156C68.6625 14.6974 68.5304 14.929 68.5304 15.2102C68.5304 15.4602 68.6213 15.6577 68.8031 15.8026C68.9849 15.9474 69.269 16.0682 69.6554 16.1648L70.627 16.4034C71.2122 16.5455 71.6483 16.7628 71.9352 17.0554C72.2221 17.3452 72.3656 17.7187 72.3656 18.1761C72.3656 18.5511 72.2576 18.8864 72.0417 19.1818C71.8287 19.4773 71.5304 19.7102 71.1468 19.8807C70.7633 20.0511 70.3173 20.1364 69.8088 20.1364C69.1412 20.1364 68.5886 19.9915 68.1511 19.7017C67.7136 19.4119 67.4366 18.9886 67.3201 18.4318L68.2747 18.1932C68.3656 18.5455 68.5375 18.8097 68.7903 18.9858C69.046 19.1619 69.3798 19.25 69.7917 19.25C70.2605 19.25 70.6326 19.1506 70.9082 18.9517C71.1866 18.75 71.3258 18.5085 71.3258 18.2273C71.3258 18 71.2463 17.8097 71.0872 17.6562C70.9281 17.5 70.6838 17.3835 70.3542 17.3068L69.2633 17.0511C68.6639 16.9091 68.2235 16.6889 67.9423 16.3906C67.6639 16.0895 67.5247 15.7131 67.5247 15.2614C67.5247 14.892 67.6284 14.5653 67.8358 14.2812C68.046 13.9972 68.3315 13.7741 68.6923 13.6122C69.0559 13.4503 69.4679 13.3693 69.9281 13.3693C70.5758 13.3693 71.0843 13.5114 71.4537 13.7955C71.8258 14.0795 72.09 14.4545 72.2463 14.9205ZM79.1806 20.1534C78.7658 20.1534 78.3894 20.0753 78.0513 19.919C77.7132 19.7599 77.4448 19.5312 77.2459 19.233C77.0471 18.9318 76.9476 18.5682 76.9476 18.142C76.9476 17.767 77.0215 17.4631 77.1692 17.2301C77.3169 16.9943 77.5144 16.8097 77.7615 16.6761C78.0087 16.5426 78.2814 16.4432 78.5797 16.3778C78.8809 16.3097 79.1834 16.2557 79.4874 16.2159C79.8851 16.1648 80.2076 16.1264 80.4547 16.1009C80.7047 16.0724 80.8865 16.0256 81.0002 15.9602C81.1167 15.8949 81.1749 15.7812 81.1749 15.6193V15.5852C81.1749 15.1648 81.0598 14.8381 80.8297 14.6051C80.6025 14.3722 80.2573 14.2557 79.7942 14.2557C79.3141 14.2557 78.9377 14.3608 78.665 14.571C78.3922 14.7812 78.2005 15.0057 78.0897 15.2443L77.1351 14.9034C77.3056 14.5057 77.5328 14.196 77.8169 13.9744C78.1039 13.75 78.4164 13.5937 78.7544 13.5057C79.0953 13.4148 79.4306 13.3693 79.7601 13.3693C79.9703 13.3693 80.2118 13.3949 80.4846 13.446C80.7601 13.4943 81.0257 13.5952 81.2814 13.7486C81.54 13.902 81.7544 14.1335 81.9249 14.4432C82.0953 14.7528 82.1806 15.1676 82.1806 15.6875V20H81.1749V19.1136H81.1238C81.0556 19.2557 80.9419 19.4077 80.7828 19.5696C80.6238 19.7315 80.4121 19.8693 80.1479 19.983C79.8837 20.0966 79.5613 20.1534 79.1806 20.1534ZM79.334 19.25C79.7317 19.25 80.0669 19.1719 80.3397 19.0156C80.6152 18.8594 80.8226 18.6577 80.9618 18.4105C81.1039 18.1634 81.1749 17.9034 81.1749 17.6307V16.7102C81.1323 16.7614 81.0385 16.8082 80.8936 16.8509C80.7516 16.8906 80.5868 16.9261 80.3993 16.9574C80.2147 16.9858 80.0343 17.0114 79.8581 17.0341C79.6848 17.054 79.5442 17.071 79.4363 17.0852C79.1749 17.1193 78.9306 17.1747 78.7033 17.2514C78.4789 17.3253 78.2971 17.4375 78.1578 17.5881C78.0215 17.7358 77.9533 17.9375 77.9533 18.1932C77.9533 18.5426 78.0826 18.8068 78.3411 18.9858C78.6025 19.1619 78.9334 19.25 79.334 19.25ZM90.1014 20.1193C89.6014 20.1193 89.1511 20.0199 88.7505 19.821C88.35 19.6222 88.0289 19.3494 87.7875 19.0028C87.546 18.6562 87.4139 18.2614 87.3912 17.8182H88.4139C88.4537 18.2131 88.6326 18.5398 88.9508 18.7983C89.2718 19.054 89.6554 19.1818 90.1014 19.1818C90.4593 19.1818 90.7775 19.098 91.0559 18.9304C91.3372 18.7628 91.5574 18.5327 91.7164 18.2401C91.8784 17.9446 91.9593 17.6108 91.9593 17.2386C91.9593 16.858 91.8755 16.5185 91.7079 16.2202C91.5431 15.919 91.3159 15.6818 91.0261 15.5085C90.7363 15.3352 90.4054 15.2472 90.0332 15.2443C89.7662 15.2415 89.492 15.2827 89.2108 15.3679C88.9295 15.4503 88.698 15.5568 88.5162 15.6875L87.5275 15.5682L88.0559 11.2727H92.59V12.2102H88.9423L88.6355 14.7841H88.6866C88.8656 14.642 89.09 14.5241 89.3599 14.4304C89.6298 14.3366 89.911 14.2898 90.2037 14.2898C90.7377 14.2898 91.2136 14.4176 91.6312 14.6733C92.0517 14.9261 92.3812 15.2727 92.6199 15.7131C92.8613 16.1534 92.9821 16.6562 92.9821 17.2216C92.9821 17.7784 92.8571 18.2756 92.6071 18.7131C92.3599 19.1477 92.019 19.4915 91.5843 19.7443C91.1497 19.9943 90.6554 20.1193 90.1014 20.1193Z" fill="black"/>
<path d="M47.215 105V96.2727H50.1639C50.8457 96.2727 51.4054 96.3892 51.8429 96.6222C52.2804 96.8523 52.6042 97.169 52.8145 97.5724C53.0247 97.9759 53.1298 98.4347 53.1298 98.9489C53.1298 99.4631 53.0247 99.919 52.8145 100.317C52.6042 100.714 52.2818 101.027 51.8471 101.254C51.4125 101.479 50.8571 101.591 50.1809 101.591H47.7946V100.636H50.1468C50.6127 100.636 50.9877 100.568 51.2718 100.432C51.5588 100.295 51.7662 100.102 51.894 99.8523C52.0247 99.5994 52.09 99.2983 52.09 98.9489C52.09 98.5994 52.0247 98.294 51.894 98.0327C51.7633 97.7713 51.5545 97.5696 51.2676 97.4276C50.9806 97.2827 50.6014 97.2102 50.1298 97.2102H48.2718V105H47.215ZM51.323 101.08L53.4707 105H52.2434L50.1298 101.08H51.323ZM57.3432 105.136C56.7523 105.136 56.2338 104.996 55.7878 104.714C55.3446 104.433 54.998 104.04 54.748 103.534C54.5009 103.028 54.3773 102.437 54.3773 101.761C54.3773 101.08 54.5009 100.484 54.748 99.9759C54.998 99.4673 55.3446 99.0724 55.7878 98.7912C56.2338 98.5099 56.7523 98.3693 57.3432 98.3693C57.9341 98.3693 58.4512 98.5099 58.8944 98.7912C59.3404 99.0724 59.687 99.4673 59.9341 99.9759C60.1841 100.484 60.3091 101.08 60.3091 101.761C60.3091 102.437 60.1841 103.028 59.9341 103.534C59.687 104.04 59.3404 104.433 58.8944 104.714C58.4512 104.996 57.9341 105.136 57.3432 105.136ZM57.3432 104.233C57.7921 104.233 58.1614 104.118 58.4512 103.888C58.7409 103.658 58.9554 103.355 59.0946 102.98C59.2338 102.605 59.3034 102.199 59.3034 101.761C59.3034 101.324 59.2338 100.916 59.0946 100.538C58.9554 100.161 58.7409 99.8551 58.4512 99.6222C58.1614 99.3892 57.7921 99.2727 57.3432 99.2727C56.8944 99.2727 56.525 99.3892 56.2353 99.6222C55.9455 99.8551 55.731 100.161 55.5918 100.538C55.4526 100.916 55.383 101.324 55.383 101.761C55.383 102.199 55.4526 102.605 55.5918 102.98C55.731 103.355 55.9455 103.658 56.2353 103.888C56.525 104.118 56.8944 104.233 57.3432 104.233ZM62.85 96.2727V105H61.8443V96.2727H62.85ZM65.6976 96.2727V105H64.6919V96.2727H65.6976ZM72.176 99.9205L71.2725 100.176C71.2157 100.026 71.1319 99.8793 71.0211 99.7372C70.9132 99.5923 70.7654 99.473 70.5779 99.3793C70.3904 99.2855 70.1504 99.2386 69.8578 99.2386C69.4572 99.2386 69.1234 99.331 68.8564 99.5156C68.5922 99.6974 68.46 99.929 68.46 100.21C68.46 100.46 68.551 100.658 68.7328 100.803C68.9146 100.947 69.1987 101.068 69.585 101.165L70.5566 101.403C71.1419 101.545 71.5779 101.763 71.8649 102.055C72.1518 102.345 72.2953 102.719 72.2953 103.176C72.2953 103.551 72.1873 103.886 71.9714 104.182C71.7583 104.477 71.46 104.71 71.0765 104.881C70.693 105.051 70.247 105.136 69.7385 105.136C69.0708 105.136 68.5183 104.991 68.0808 104.702C67.6433 104.412 67.3663 103.989 67.2498 103.432L68.2044 103.193C68.2953 103.545 68.4672 103.81 68.72 103.986C68.9757 104.162 69.3095 104.25 69.7214 104.25C70.1902 104.25 70.5623 104.151 70.8379 103.952C71.1163 103.75 71.2555 103.509 71.2555 103.227C71.2555 103 71.176 102.81 71.0169 102.656C70.8578 102.5 70.6135 102.384 70.2839 102.307L69.193 102.051C68.5936 101.909 68.1532 101.689 67.872 101.391C67.5936 101.089 67.4544 100.713 67.4544 100.261C67.4544 99.892 67.5581 99.5653 67.7654 99.2812C67.9757 98.9972 68.2612 98.7741 68.622 98.6122C68.9856 98.4503 69.3975 98.3693 69.8578 98.3693C70.5055 98.3693 71.014 98.5114 71.3833 98.7955C71.7555 99.0795 72.0197 99.4545 72.176 99.9205ZM80.2353 96.2727V105H79.1784V97.3807H79.1273L76.9966 98.7955V97.7216L79.1784 96.2727H80.2353Z" fill="black"/>
<path d="M149.149 119.119C148.587 119.119 148.085 119.023 147.645 118.83C147.207 118.636 146.859 118.368 146.601 118.024C146.345 117.678 146.206 117.276 146.183 116.818H147.257C147.28 117.099 147.376 117.342 147.547 117.547C147.717 117.749 147.94 117.905 148.216 118.016C148.491 118.126 148.797 118.182 149.132 118.182C149.507 118.182 149.839 118.116 150.129 117.986C150.419 117.855 150.646 117.673 150.811 117.44C150.976 117.207 151.058 116.938 151.058 116.631C151.058 116.31 150.979 116.027 150.82 115.783C150.661 115.536 150.428 115.342 150.121 115.203C149.814 115.064 149.439 114.994 148.996 114.994H148.297V114.057H148.996C149.342 114.057 149.646 113.994 149.908 113.869C150.172 113.744 150.378 113.568 150.526 113.341C150.676 113.114 150.751 112.847 150.751 112.54C150.751 112.244 150.686 111.987 150.555 111.768C150.425 111.55 150.24 111.379 150.001 111.257C149.766 111.135 149.487 111.074 149.166 111.074C148.865 111.074 148.581 111.129 148.314 111.24C148.05 111.348 147.834 111.506 147.666 111.713C147.499 111.918 147.408 112.165 147.393 112.455H146.371C146.388 111.997 146.526 111.597 146.784 111.253C147.043 110.906 147.381 110.636 147.798 110.443C148.219 110.25 148.68 110.153 149.183 110.153C149.723 110.153 150.186 110.263 150.572 110.482C150.959 110.697 151.256 110.983 151.463 111.338C151.67 111.693 151.774 112.077 151.774 112.489C151.774 112.98 151.645 113.399 151.386 113.746C151.131 114.092 150.783 114.332 150.342 114.466V114.534C150.893 114.625 151.324 114.859 151.634 115.237C151.943 115.612 152.098 116.077 152.098 116.631C152.098 117.105 151.969 117.531 151.71 117.909C151.455 118.284 151.105 118.58 150.662 118.795C150.219 119.011 149.714 119.119 149.149 119.119ZM156.943 109.864L154.131 120.312H153.21L156.023 109.864H156.943ZM161.016 119.119C160.658 119.114 160.3 119.045 159.942 118.915C159.584 118.784 159.257 118.564 158.962 118.254C158.667 117.942 158.429 117.52 158.25 116.989C158.071 116.455 157.982 115.784 157.982 114.977C157.982 114.205 158.054 113.52 158.199 112.923C158.344 112.324 158.554 111.82 158.83 111.411C159.105 110.999 159.438 110.686 159.827 110.473C160.219 110.26 160.661 110.153 161.152 110.153C161.641 110.153 162.076 110.251 162.456 110.447C162.84 110.641 163.152 110.911 163.394 111.257C163.635 111.604 163.792 112.003 163.863 112.455H162.823C162.726 112.062 162.539 111.737 162.26 111.479C161.982 111.22 161.613 111.091 161.152 111.091C160.476 111.091 159.944 111.385 159.554 111.973C159.168 112.561 158.973 113.386 158.971 114.449H159.039C159.198 114.207 159.387 114.001 159.605 113.831C159.827 113.658 160.071 113.524 160.338 113.43C160.605 113.337 160.888 113.29 161.186 113.29C161.686 113.29 162.144 113.415 162.559 113.665C162.973 113.912 163.306 114.254 163.556 114.692C163.806 115.126 163.931 115.625 163.931 116.188C163.931 116.727 163.81 117.222 163.569 117.67C163.327 118.116 162.988 118.472 162.55 118.736C162.115 118.997 161.604 119.125 161.016 119.119ZM161.016 118.182C161.374 118.182 161.695 118.092 161.979 117.913C162.266 117.734 162.492 117.494 162.657 117.193C162.824 116.892 162.908 116.557 162.908 116.188C162.908 115.827 162.827 115.499 162.665 115.203C162.506 114.905 162.286 114.668 162.005 114.491C161.726 114.315 161.408 114.227 161.05 114.227C160.78 114.227 160.529 114.281 160.296 114.389C160.063 114.494 159.858 114.639 159.682 114.824C159.509 115.009 159.373 115.22 159.273 115.459C159.174 115.695 159.124 115.943 159.124 116.205C159.124 116.551 159.205 116.875 159.367 117.176C159.532 117.477 159.756 117.72 160.04 117.905C160.327 118.089 160.652 118.182 161.016 118.182Z" fill="black"/>
<path d="M149.149 16.1193C148.587 16.1193 148.085 16.0227 147.645 15.8295C147.207 15.6364 146.859 15.3679 146.601 15.0241C146.345 14.6776 146.206 14.2756 146.183 13.8182H147.257C147.28 14.0994 147.376 14.3423 147.547 14.5469C147.717 14.7486 147.94 14.9048 148.216 15.0156C148.491 15.1264 148.797 15.1818 149.132 15.1818C149.507 15.1818 149.839 15.1165 150.129 14.9858C150.419 14.8551 150.646 14.6733 150.811 14.4403C150.976 14.2074 151.058 13.9375 151.058 13.6307C151.058 13.3097 150.979 13.027 150.82 12.7827C150.661 12.5355 150.428 12.3423 150.121 12.2031C149.814 12.0639 149.439 11.9943 148.996 11.9943H148.297V11.0568H148.996C149.342 11.0568 149.646 10.9943 149.908 10.8693C150.172 10.7443 150.378 10.5682 150.526 10.3409C150.676 10.1136 150.751 9.84659 150.751 9.53977C150.751 9.24432 150.686 8.98722 150.555 8.76847C150.425 8.54972 150.24 8.37926 150.001 8.2571C149.766 8.13494 149.487 8.07386 149.166 8.07386C148.865 8.07386 148.581 8.12926 148.314 8.24006C148.05 8.34801 147.834 8.50568 147.666 8.71307C147.499 8.91761 147.408 9.16477 147.393 9.45455H146.371C146.388 8.99716 146.526 8.59659 146.784 8.25284C147.043 7.90625 147.381 7.63636 147.798 7.44318C148.219 7.25 148.68 7.15341 149.183 7.15341C149.723 7.15341 150.186 7.26278 150.572 7.48153C150.959 7.69744 151.256 7.98295 151.463 8.33807C151.67 8.69318 151.774 9.0767 151.774 9.48864C151.774 9.98011 151.645 10.3991 151.386 10.7457C151.131 11.0923 150.783 11.3324 150.342 11.4659V11.5341C150.893 11.625 151.324 11.8594 151.634 12.2372C151.943 12.6122 152.098 13.0767 152.098 13.6307C152.098 14.1051 151.969 14.5312 151.71 14.9091C151.455 15.2841 151.105 15.5795 150.662 15.7955C150.219 16.0114 149.714 16.1193 149.149 16.1193ZM156.943 6.86364L154.131 17.3125H153.21L156.023 6.86364H156.943ZM161.016 16.1193C160.658 16.1136 160.3 16.0455 159.942 15.9148C159.584 15.7841 159.257 15.5639 158.962 15.2543C158.667 14.9418 158.429 14.5199 158.25 13.9886C158.071 13.4545 157.982 12.7841 157.982 11.9773C157.982 11.2045 158.054 10.5199 158.199 9.9233C158.344 9.32386 158.554 8.8196 158.83 8.41051C159.105 7.99858 159.438 7.68608 159.827 7.47301C160.219 7.25994 160.661 7.15341 161.152 7.15341C161.641 7.15341 162.076 7.25142 162.456 7.44744C162.84 7.64062 163.152 7.91051 163.394 8.2571C163.635 8.60369 163.792 9.00284 163.863 9.45455H162.823C162.726 9.0625 162.539 8.73722 162.26 8.47869C161.982 8.22017 161.613 8.09091 161.152 8.09091C160.476 8.09091 159.944 8.38494 159.554 8.97301C159.168 9.56108 158.973 10.3864 158.971 11.4489H159.039C159.198 11.2074 159.387 11.0014 159.605 10.831C159.827 10.6577 160.071 10.5241 160.338 10.4304C160.605 10.3366 160.888 10.2898 161.186 10.2898C161.686 10.2898 162.144 10.4148 162.559 10.6648C162.973 10.9119 163.306 11.2543 163.556 11.6918C163.806 12.1264 163.931 12.625 163.931 13.1875C163.931 13.7273 163.81 14.2216 163.569 14.6705C163.327 15.1165 162.988 15.4716 162.55 15.7358C162.115 15.9972 161.604 16.125 161.016 16.1193ZM161.016 15.1818C161.374 15.1818 161.695 15.0923 161.979 14.9134C162.266 14.7344 162.492 14.4943 162.657 14.1932C162.824 13.892 162.908 13.5568 162.908 13.1875C162.908 12.8267 162.827 12.4986 162.665 12.2031C162.506 11.9048 162.286 11.6676 162.005 11.4915C161.726 11.3153 161.408 11.2273 161.05 11.2273C160.78 11.2273 160.529 11.2812 160.296 11.3892C160.063 11.4943 159.858 11.6392 159.682 11.8239C159.509 12.0085 159.373 12.2202 159.273 12.4588C159.174 12.6946 159.124 12.9432 159.124 13.2045C159.124 13.5511 159.205 13.875 159.367 14.1761C159.532 14.4773 159.756 14.7202 160.04 14.9048C160.327 15.0895 160.652 15.1818 161.016 15.1818Z" fill="black"/>
<line x1="178.833" y1="117.529" x2="316.833" y2="68.5288" stroke="black"/>
<line x1="179.17" y1="113.53" x2="317.17" y2="163.53" stroke="black"/>
<path d="M225.086 73V64.2727H228.035C228.717 64.2727 229.276 64.3892 229.714 64.6222C230.151 64.8523 230.475 65.169 230.686 65.5724C230.896 65.9759 231.001 66.4347 231.001 66.9489C231.001 67.4631 230.896 67.919 230.686 68.3168C230.475 68.7145 230.153 69.027 229.718 69.2543C229.284 69.4787 228.728 69.5909 228.052 69.5909H225.666V68.6364H228.018C228.484 68.6364 228.859 68.5682 229.143 68.4318C229.43 68.2955 229.637 68.1023 229.765 67.8523C229.896 67.5994 229.961 67.2983 229.961 66.9489C229.961 66.5994 229.896 66.294 229.765 66.0327C229.634 65.7713 229.426 65.5696 229.139 65.4276C228.852 65.2827 228.472 65.2102 228.001 65.2102H226.143V73H225.086ZM229.194 69.0795L231.342 73H230.115L228.001 69.0795H229.194ZM235.214 73.1364C234.623 73.1364 234.105 72.9957 233.659 72.7145C233.216 72.4332 232.869 72.0398 232.619 71.5341C232.372 71.0284 232.248 70.4375 232.248 69.7614C232.248 69.0795 232.372 68.4844 232.619 67.9759C232.869 67.4673 233.216 67.0724 233.659 66.7912C234.105 66.5099 234.623 66.3693 235.214 66.3693C235.805 66.3693 236.322 66.5099 236.765 66.7912C237.211 67.0724 237.558 67.4673 237.805 67.9759C238.055 68.4844 238.18 69.0795 238.18 69.7614C238.18 70.4375 238.055 71.0284 237.805 71.5341C237.558 72.0398 237.211 72.4332 236.765 72.7145C236.322 72.9957 235.805 73.1364 235.214 73.1364ZM235.214 72.233C235.663 72.233 236.032 72.1179 236.322 71.8878C236.612 71.6577 236.827 71.3551 236.966 70.9801C237.105 70.6051 237.175 70.1989 237.175 69.7614C237.175 69.3239 237.105 68.9162 236.966 68.5384C236.827 68.1605 236.612 67.8551 236.322 67.6222C236.032 67.3892 235.663 67.2727 235.214 67.2727C234.765 67.2727 234.396 67.3892 234.106 67.6222C233.817 67.8551 233.602 68.1605 233.463 68.5384C233.324 68.9162 233.254 69.3239 233.254 69.7614C233.254 70.1989 233.324 70.6051 233.463 70.9801C233.602 71.3551 233.817 71.6577 234.106 71.8878C234.396 72.1179 234.765 72.233 235.214 72.233ZM240.721 64.2727V73H239.715V64.2727H240.721ZM243.569 64.2727V73H242.563V64.2727H243.569ZM250.047 67.9205L249.144 68.1761C249.087 68.0256 249.003 67.8793 248.892 67.7372C248.784 67.5923 248.637 67.473 248.449 67.3793C248.262 67.2855 248.021 67.2386 247.729 67.2386C247.328 67.2386 246.994 67.331 246.727 67.5156C246.463 67.6974 246.331 67.929 246.331 68.2102C246.331 68.4602 246.422 68.6577 246.604 68.8026C246.786 68.9474 247.07 69.0682 247.456 69.1648L248.428 69.4034C249.013 69.5455 249.449 69.7628 249.736 70.0554C250.023 70.3452 250.166 70.7187 250.166 71.1761C250.166 71.5511 250.058 71.8864 249.843 72.1818C249.629 72.4773 249.331 72.7102 248.948 72.8807C248.564 73.0511 248.118 73.1364 247.61 73.1364C246.942 73.1364 246.389 72.9915 245.952 72.7017C245.514 72.4119 245.237 71.9886 245.121 71.4318L246.075 71.1932C246.166 71.5455 246.338 71.8097 246.591 71.9858C246.847 72.1619 247.181 72.25 247.593 72.25C248.061 72.25 248.433 72.1506 248.709 71.9517C248.987 71.75 249.127 71.5085 249.127 71.2273C249.127 71 249.047 70.8097 248.888 70.6562C248.729 70.5 248.485 70.3835 248.155 70.3068L247.064 70.0511C246.465 69.9091 246.024 69.6889 245.743 69.3906C245.465 69.0895 245.325 68.7131 245.325 68.2614C245.325 67.892 245.429 67.5653 245.637 67.2812C245.847 66.9972 246.132 66.7741 246.493 66.6122C246.857 66.4503 247.269 66.3693 247.729 66.3693C248.377 66.3693 248.885 66.5114 249.254 66.7955C249.627 67.0795 249.891 67.4545 250.047 67.9205ZM256.981 73.1534C256.567 73.1534 256.19 73.0753 255.852 72.919C255.514 72.7599 255.246 72.5312 255.047 72.233C254.848 71.9318 254.748 71.5682 254.748 71.142C254.748 70.767 254.822 70.4631 254.97 70.2301C255.118 69.9943 255.315 69.8097 255.562 69.6761C255.809 69.5426 256.082 69.4432 256.381 69.3778C256.682 69.3097 256.984 69.2557 257.288 69.2159C257.686 69.1648 258.008 69.1264 258.256 69.1009C258.506 69.0724 258.687 69.0256 258.801 68.9602C258.917 68.8949 258.976 68.7812 258.976 68.6193V68.5852C258.976 68.1648 258.861 67.8381 258.631 67.6051C258.403 67.3722 258.058 67.2557 257.595 67.2557C257.115 67.2557 256.738 67.3608 256.466 67.571C256.193 67.7812 256.001 68.0057 255.89 68.2443L254.936 67.9034C255.106 67.5057 255.334 67.196 255.618 66.9744C255.905 66.75 256.217 66.5937 256.555 66.5057C256.896 66.4148 257.231 66.3693 257.561 66.3693C257.771 66.3693 258.013 66.3949 258.285 66.446C258.561 66.4943 258.827 66.5952 259.082 66.7486C259.341 66.902 259.555 67.1335 259.726 67.4432C259.896 67.7528 259.981 68.1676 259.981 68.6875V73H258.976V72.1136H258.925C258.856 72.2557 258.743 72.4077 258.584 72.5696C258.425 72.7315 258.213 72.8693 257.949 72.983C257.684 73.0966 257.362 73.1534 256.981 73.1534ZM257.135 72.25C257.532 72.25 257.868 72.1719 258.14 72.0156C258.416 71.8594 258.623 71.6577 258.763 71.4105C258.905 71.1634 258.976 70.9034 258.976 70.6307V69.7102C258.933 69.7614 258.839 69.8082 258.694 69.8509C258.552 69.8906 258.388 69.9261 258.2 69.9574C258.015 69.9858 257.835 70.0114 257.659 70.0341C257.486 70.054 257.345 70.071 257.237 70.0852C256.976 70.1193 256.731 70.1747 256.504 70.2514C256.28 70.3253 256.098 70.4375 255.959 70.5881C255.822 70.7358 255.754 70.9375 255.754 71.1932C255.754 71.5426 255.883 71.8068 256.142 71.9858C256.403 72.1619 256.734 72.25 257.135 72.25ZM264.97 71.2102V70.3409L268.806 64.2727H269.436V65.6193H269.01L266.112 70.2045V70.2727H271.277V71.2102H264.97ZM269.078 73V70.946V70.5412V64.2727H270.084V73H269.078Z" fill="black"/>
<path d="M220.186 160V151.273H223.135C223.816 151.273 224.376 151.389 224.814 151.622C225.251 151.852 225.575 152.169 225.785 152.572C225.995 152.976 226.1 153.435 226.1 153.949C226.1 154.463 225.995 154.919 225.785 155.317C225.575 155.714 225.252 156.027 224.818 156.254C224.383 156.479 223.828 156.591 223.152 156.591H220.765V155.636H223.118C223.583 155.636 223.958 155.568 224.243 155.432C224.529 155.295 224.737 155.102 224.865 154.852C224.995 154.599 225.061 154.298 225.061 153.949C225.061 153.599 224.995 153.294 224.865 153.033C224.734 152.771 224.525 152.57 224.238 152.428C223.951 152.283 223.572 152.21 223.1 152.21H221.243V160H220.186ZM224.294 156.08L226.441 160H225.214L223.1 156.08H224.294ZM230.314 160.136C229.723 160.136 229.205 159.996 228.759 159.714C228.315 159.433 227.969 159.04 227.719 158.534C227.472 158.028 227.348 157.437 227.348 156.761C227.348 156.08 227.472 155.484 227.719 154.976C227.969 154.467 228.315 154.072 228.759 153.791C229.205 153.51 229.723 153.369 230.314 153.369C230.905 153.369 231.422 153.51 231.865 153.791C232.311 154.072 232.658 154.467 232.905 154.976C233.155 155.484 233.28 156.08 233.28 156.761C233.28 157.437 233.155 158.028 232.905 158.534C232.658 159.04 232.311 159.433 231.865 159.714C231.422 159.996 230.905 160.136 230.314 160.136ZM230.314 159.233C230.763 159.233 231.132 159.118 231.422 158.888C231.712 158.658 231.926 158.355 232.065 157.98C232.205 157.605 232.274 157.199 232.274 156.761C232.274 156.324 232.205 155.916 232.065 155.538C231.926 155.161 231.712 154.855 231.422 154.622C231.132 154.389 230.763 154.273 230.314 154.273C229.865 154.273 229.496 154.389 229.206 154.622C228.916 154.855 228.702 155.161 228.562 155.538C228.423 155.916 228.354 156.324 228.354 156.761C228.354 157.199 228.423 157.605 228.562 157.98C228.702 158.355 228.916 158.658 229.206 158.888C229.496 159.118 229.865 159.233 230.314 159.233ZM235.821 151.273V160H234.815V151.273H235.821ZM238.668 151.273V160H237.663V151.273H238.668ZM245.147 154.92L244.243 155.176C244.186 155.026 244.103 154.879 243.992 154.737C243.884 154.592 243.736 154.473 243.549 154.379C243.361 154.286 243.121 154.239 242.828 154.239C242.428 154.239 242.094 154.331 241.827 154.516C241.563 154.697 241.431 154.929 241.431 155.21C241.431 155.46 241.522 155.658 241.703 155.803C241.885 155.947 242.169 156.068 242.556 156.165L243.527 156.403C244.113 156.545 244.549 156.763 244.836 157.055C245.123 157.345 245.266 157.719 245.266 158.176C245.266 158.551 245.158 158.886 244.942 159.182C244.729 159.477 244.431 159.71 244.047 159.881C243.664 160.051 243.218 160.136 242.709 160.136C242.042 160.136 241.489 159.991 241.051 159.702C240.614 159.412 240.337 158.989 240.221 158.432L241.175 158.193C241.266 158.545 241.438 158.81 241.691 158.986C241.946 159.162 242.28 159.25 242.692 159.25C243.161 159.25 243.533 159.151 243.809 158.952C244.087 158.75 244.226 158.509 244.226 158.227C244.226 158 244.147 157.81 243.988 157.656C243.828 157.5 243.584 157.384 243.255 157.307L242.164 157.051C241.564 156.909 241.124 156.689 240.843 156.391C240.564 156.089 240.425 155.713 240.425 155.261C240.425 154.892 240.529 154.565 240.736 154.281C240.946 153.997 241.232 153.774 241.593 153.612C241.956 153.45 242.368 153.369 242.828 153.369C243.476 153.369 243.985 153.511 244.354 153.795C244.726 154.08 244.99 154.455 245.147 154.92ZM252.081 160.153C251.666 160.153 251.29 160.075 250.952 159.919C250.614 159.76 250.345 159.531 250.146 159.233C249.947 158.932 249.848 158.568 249.848 158.142C249.848 157.767 249.922 157.463 250.07 157.23C250.217 156.994 250.415 156.81 250.662 156.676C250.909 156.543 251.182 156.443 251.48 156.378C251.781 156.31 252.084 156.256 252.388 156.216C252.786 156.165 253.108 156.126 253.355 156.101C253.605 156.072 253.787 156.026 253.901 155.96C254.017 155.895 254.075 155.781 254.075 155.619V155.585C254.075 155.165 253.96 154.838 253.73 154.605C253.503 154.372 253.158 154.256 252.695 154.256C252.214 154.256 251.838 154.361 251.565 154.571C251.293 154.781 251.101 155.006 250.99 155.244L250.036 154.903C250.206 154.506 250.433 154.196 250.717 153.974C251.004 153.75 251.317 153.594 251.655 153.506C251.996 153.415 252.331 153.369 252.661 153.369C252.871 153.369 253.112 153.395 253.385 153.446C253.661 153.494 253.926 153.595 254.182 153.749C254.44 153.902 254.655 154.134 254.825 154.443C254.996 154.753 255.081 155.168 255.081 155.688V160H254.075V159.114H254.024C253.956 159.256 253.842 159.408 253.683 159.57C253.524 159.732 253.313 159.869 253.048 159.983C252.784 160.097 252.462 160.153 252.081 160.153ZM252.234 159.25C252.632 159.25 252.967 159.172 253.24 159.016C253.516 158.859 253.723 158.658 253.862 158.411C254.004 158.163 254.075 157.903 254.075 157.631V156.71C254.033 156.761 253.939 156.808 253.794 156.851C253.652 156.891 253.487 156.926 253.3 156.957C253.115 156.986 252.935 157.011 252.759 157.034C252.585 157.054 252.445 157.071 252.337 157.085C252.075 157.119 251.831 157.175 251.604 157.251C251.379 157.325 251.197 157.437 251.058 157.588C250.922 157.736 250.854 157.937 250.854 158.193C250.854 158.543 250.983 158.807 251.241 158.986C251.503 159.162 251.834 159.25 252.234 159.25ZM263.121 160.119C262.479 160.119 261.932 159.945 261.48 159.595C261.029 159.243 260.684 158.733 260.445 158.065C260.206 157.395 260.087 156.585 260.087 155.636C260.087 154.693 260.206 153.888 260.445 153.22C260.686 152.55 261.033 152.038 261.485 151.686C261.939 151.331 262.485 151.153 263.121 151.153C263.757 151.153 264.301 151.331 264.753 151.686C265.208 152.038 265.554 152.55 265.793 153.22C266.034 153.888 266.155 154.693 266.155 155.636C266.155 156.585 266.036 157.395 265.797 158.065C265.559 158.733 265.213 159.243 264.762 159.595C264.31 159.945 263.763 160.119 263.121 160.119ZM263.121 159.182C263.757 159.182 264.252 158.875 264.604 158.261C264.956 157.648 265.132 156.773 265.132 155.636C265.132 154.881 265.051 154.237 264.89 153.706C264.73 153.175 264.5 152.77 264.199 152.491C263.901 152.213 263.542 152.074 263.121 152.074C262.49 152.074 261.998 152.385 261.642 153.007C261.287 153.626 261.11 154.503 261.11 155.636C261.11 156.392 261.189 157.034 261.348 157.562C261.507 158.091 261.736 158.493 262.034 158.768C262.336 159.044 262.698 159.182 263.121 159.182Z" fill="black"/>
<path d="M324.388 172V171.233L327.268 168.08C327.607 167.71 327.885 167.389 328.104 167.116C328.322 166.841 328.484 166.582 328.589 166.341C328.697 166.097 328.751 165.841 328.751 165.574C328.751 165.267 328.678 165.001 328.53 164.777C328.385 164.553 328.186 164.379 327.933 164.257C327.68 164.135 327.396 164.074 327.081 164.074C326.746 164.074 326.453 164.143 326.203 164.283C325.956 164.419 325.764 164.611 325.628 164.858C325.494 165.105 325.428 165.395 325.428 165.727H324.422C324.422 165.216 324.54 164.767 324.776 164.381C325.011 163.994 325.332 163.693 325.739 163.477C326.148 163.261 326.607 163.153 327.115 163.153C327.626 163.153 328.08 163.261 328.474 163.477C328.869 163.693 329.179 163.984 329.403 164.351C329.628 164.717 329.74 165.125 329.74 165.574C329.74 165.895 329.682 166.209 329.565 166.516C329.452 166.82 329.253 167.159 328.969 167.534C328.688 167.906 328.297 168.361 327.797 168.898L325.837 170.994V171.062H329.893V172H324.388ZM334.756 162.864L331.943 173.312H331.023L333.835 162.864H334.756ZM338.828 172.119C338.471 172.114 338.113 172.045 337.755 171.915C337.397 171.784 337.07 171.564 336.775 171.254C336.479 170.942 336.242 170.52 336.063 169.989C335.884 169.455 335.794 168.784 335.794 167.977C335.794 167.205 335.867 166.52 336.012 165.923C336.157 165.324 336.367 164.82 336.642 164.411C336.918 163.999 337.25 163.686 337.64 163.473C338.032 163.26 338.473 163.153 338.965 163.153C339.453 163.153 339.888 163.251 340.269 163.447C340.652 163.641 340.965 163.911 341.206 164.257C341.448 164.604 341.604 165.003 341.675 165.455H340.635C340.539 165.062 340.351 164.737 340.073 164.479C339.794 164.22 339.425 164.091 338.965 164.091C338.289 164.091 337.756 164.385 337.367 164.973C336.98 165.561 336.786 166.386 336.783 167.449H336.851C337.01 167.207 337.199 167.001 337.418 166.831C337.64 166.658 337.884 166.524 338.151 166.43C338.418 166.337 338.701 166.29 338.999 166.29C339.499 166.29 339.956 166.415 340.371 166.665C340.786 166.912 341.118 167.254 341.368 167.692C341.618 168.126 341.743 168.625 341.743 169.188C341.743 169.727 341.623 170.222 341.381 170.67C341.14 171.116 340.8 171.472 340.363 171.736C339.928 171.997 339.417 172.125 338.828 172.119ZM338.828 171.182C339.186 171.182 339.507 171.092 339.792 170.913C340.078 170.734 340.304 170.494 340.469 170.193C340.637 169.892 340.721 169.557 340.721 169.188C340.721 168.827 340.64 168.499 340.478 168.203C340.319 167.905 340.098 167.668 339.817 167.491C339.539 167.315 339.221 167.227 338.863 167.227C338.593 167.227 338.341 167.281 338.108 167.389C337.875 167.494 337.671 167.639 337.495 167.824C337.321 168.009 337.185 168.22 337.086 168.459C336.986 168.695 336.936 168.943 336.936 169.205C336.936 169.551 337.017 169.875 337.179 170.176C337.344 170.477 337.569 170.72 337.853 170.905C338.14 171.089 338.465 171.182 338.828 171.182Z" fill="black"/>
</svg>
